<svg width="488" height="96" viewBox="0 0 488 96" fill="none" xmlns="http://www.w3.org/2000/svg">
<path d="M43.75 90.75C42.5 90.9167 41.2917 91.125 40.125 91.375C39.0417 91.625 37.9167 91.9167 36.75 92.25C36.25 92.4167 35.75 92.5417 35.25 92.625C34.75 92.7083 34.2083 92.8333 33.625 93C32.125 92.6667 30.6667 92.4167 29.25 92.25C27.9167 92.0833 26.7083 92 25.625 92L23.75 91.5C22.75 91.1667 22 90.9167 21.5 90.75C21 90.5 20.5 90.3333 20 90.25C19.5833 90.0833 19.0417 89.9583 18.375 89.875C17.7917 89.7917 16.9167 89.6667 15.75 89.5C14.3333 90.0833 12.9583 90.375 11.625 90.375C10.7083 90.375 9.75 90.25 8.75 90C7.75 89.6667 6.75 89.0833 5.75 88.25C4.75 87.3333 3.79167 86.125 2.875 84.625C1.95833 83.0417 1.16667 81.0417 0.5 78.625C0.75 76.7083 1.04167 75.0417 1.375 73.625C1.70833 72.2083 2.04167 71.0833 2.375 70.25L3.375 69.125C4.875 68.5417 6.58333 68.25 8.5 68.25C10.3333 68.25 12.125 68.5417 13.875 69.125C15.625 69.7083 17.375 70.3333 19.125 71C19.875 71.3333 20.4167 71.5833 20.75 71.75C21.0833 71.9167 21.3333 72.0417 21.5 72.125C21.6667 72.2083 21.875 72.25 22.125 72.25C22.4583 72.25 23 72.25 23.75 72.25C24.1667 72.25 24.5417 72.25 24.875 72.25C25.2917 72.1667 25.7083 72.0833 26.125 72L27.625 72.125C28.2083 72.4583 28.9167 72.625 29.75 72.625C30.3333 72.625 30.9167 72.5417 31.5 72.375C32.1667 72.2083 32.8333 72.0417 33.5 71.875C34.1667 71.625 34.75 71.4583 35.25 71.375C35.75 71.2917 36.2083 71.1667 36.625 71L37.875 69.875C38.7083 69.5417 39.3333 69.1667 39.75 68.75C40.25 68.3333 40.6667 67.875 41 67.375C41.3333 66.7917 41.625 66.2083 41.875 65.625C42.2083 65.0417 42.625 64.4167 43.125 63.75C43.5417 63.25 43.9167 62.75 44.25 62.25C44.6667 61.75 45.0833 61.2917 45.5 60.875V59.625C46.8333 56.5417 48 53.4167 49 50.25C50 47.0833 50.875 43.9167 51.625 40.75C52.375 37.5833 53 34.5 53.5 31.5C54.0833 28.5 54.5833 25.7917 55 23.375C54.75 23.375 54.5 23.375 54.25 23.375C54 23.2917 53.7917 23.25 53.625 23.25C51.125 23.25 49.0833 23.2917 47.5 23.375C45.9167 23.4583 44.4583 23.5833 43.125 23.75C41.7917 23.9167 40.375 24.1667 38.875 24.5C37.4583 24.75 35.625 25.0833 33.375 25.5L31.25 25.875C29.6667 26.625 28.125 27.3333 26.625 28C25.2083 28.5833 23.7083 28.875 22.125 28.875C19.625 28.875 17.4583 27.875 15.625 25.875C13.7083 24.7083 12.625 23.0417 12.375 20.875C11.9583 20.125 11.7917 19.4167 11.875 18.75C11.5417 17.5833 11.3333 16.5417 11.25 15.625C11.25 14.625 11.25 13.7083 11.25 12.875L11.375 10.75H13.25C13.75 10.25 14.0833 9.875 14.25 9.625C14.5 9.375 14.6667 9.08333 14.75 8.75L15.125 7.5L16.375 7.375C18.125 7.125 19.9167 6.83333 21.75 6.5C23.5833 6.16667 25.4583 5.79167 27.375 5.375C29.2917 5.04167 30.9167 4.75 32.25 4.5C33.6667 4.25 35 4.08333 36.25 4C37.5 3.83333 38.7917 3.75 40.125 3.75C41.4583 3.66667 43 3.625 44.75 3.625C45.4167 3.625 46 3.66667 46.5 3.75C47.0833 3.75 47.6667 3.75 48.25 3.75C48.5833 3.33333 48.9167 3.08333 49.25 3C49.5833 2.91667 49.8333 2.875 50 2.875C50.5833 2.95833 51 3.04167 51.25 3.125C51.5833 3.20833 51.8333 3.29167 52 3.375C54.8333 2.875 57.4167 2.58333 59.75 2.5C62.1667 2.33333 64.3333 2.25 66.25 2.25C67.1667 2.25 68.0833 2.25 69 2.25C69.9167 2.25 70.7917 2.29167 71.625 2.375H76.375H79.75C80.1667 2.29167 80.5417 2.25 80.875 2.25C81.2917 2.25 81.7083 2.25 82.125 2.25C82.9583 2.25 83.5833 2.25 84 2.25C84.5 2.25 84.9167 2.29167 85.25 2.375C85.5833 2.375 85.9167 2.41667 86.25 2.5C86.5833 2.5 87.0417 2.54167 87.625 2.625C89.0417 2.875 90.3333 3.08333 91.5 3.25C92.6667 3.41667 93.8333 3.5 95 3.5L97.375 3.375L97.75 4.875L98.875 6.5C99.125 7 99.4583 7.45833 99.875 7.875C100.292 8.29167 100.75 8.70833 101.25 9.125C102.25 10.0417 103.208 11.2083 104.125 12.625C105.125 13.9583 105.5 15.9167 105.25 18.5L104.125 20C103.792 20.1667 103.458 20.375 103.125 20.625C102.875 20.875 102.583 21.1667 102.25 21.5L101 22.625C99.9167 22.7083 99 22.7917 98.25 22.875C97.5 22.875 96.6667 22.875 95.75 22.875C94.25 22.875 92.7083 22.8333 91.125 22.75C89.625 22.6667 88.0417 22.5833 86.375 22.5C85.4583 22.4167 84.75 22.375 84.25 22.375C83.75 22.375 83.2917 22.375 82.875 22.375C82.4583 22.375 81.9583 22.4167 81.375 22.5C80.875 22.5 80.2083 22.5 79.375 22.5C78.5417 22.5 77.9167 22.5 77.5 22.5C77.1667 22.5 76.6667 22.5417 76 22.625C75.8333 25.2917 75.5 27.625 75 29.625C74.5833 31.5417 74.0417 33.5833 73.375 35.75C71.7917 43.9167 69.8333 51.625 67.5 58.875C65.25 66.125 62.7083 72.6667 59.875 78.5C57.2083 81.3333 54.6667 83.875 52.25 86.125C49.8333 88.2917 47.125 89.8333 44.125 90.75H43.75ZM161.5 55.5C161.417 56.5 161.5 57.4583 161.75 58.375C162 59.2917 162.292 60.2083 162.625 61.125C163.042 61.9583 163.417 62.8333 163.75 63.75C164.083 64.6667 164.333 65.5833 164.5 66.5C164.667 67.6667 164.667 68.9583 164.5 70.375C164.333 71.7083 164.042 73.0417 163.625 74.375C163.208 75.625 162.667 76.7917 162 77.875C161.333 78.875 160.542 79.625 159.625 80.125C158.458 81.625 157.042 82.7917 155.375 83.625C153.708 84.4583 152.167 85.4583 150.75 86.625C149.833 87.2083 148.792 87.625 147.625 87.875C146.542 88.125 145.417 88.375 144.25 88.625C143.333 89.125 142.25 89.6667 141 90.25C139.75 90.75 138.458 91.25 137.125 91.75C135.792 92.1667 134.458 92.5 133.125 92.75C131.792 92.9167 130.625 92.9583 129.625 92.875C127.125 93.7917 124.667 94.375 122.25 94.625C119.917 94.9583 117.167 94.7917 114 94.125C111 94.5417 108.208 94.4167 105.625 93.75C103.125 93.0833 100.875 92.0417 98.875 90.625C96.9583 89.125 95.25 87.375 93.75 85.375C92.3333 83.2917 91.1667 81.125 90.25 78.875C89.5833 74.125 89.75 69.8333 90.75 66C91.75 62.0833 93.1667 58.5 95 55.25C96.9167 51.9167 99.0833 48.875 101.5 46.125C103.917 43.2917 106.25 40.5417 108.5 37.875C109 38.0417 109.375 38.0417 109.625 37.875C109.958 37.625 110.25 37.3333 110.5 37C110.75 36.5833 111 36.2083 111.25 35.875C111.583 35.5417 111.958 35.3333 112.375 35.25C112.958 34 113.792 33.0833 114.875 32.5C116.042 31.8333 116.958 30.9167 117.625 29.75C118.375 29.5833 119 29.3333 119.5 29C120 28.6667 120.458 28.2917 120.875 27.875C121.375 27.4583 121.875 27.0833 122.375 26.75C122.875 26.3333 123.458 26.0417 124.125 25.875V24.5C125.625 23.8333 126.708 23.0833 127.375 22.25C128.125 21.3333 129 20.25 130 19C130.75 18.9167 131.333 18.875 131.75 18.875C132.25 18.875 132.958 18.7917 133.875 18.625C134.542 17.4583 135.125 16.5833 135.625 16C136.208 15.4167 137.042 14.7917 138.125 14.125C139.125 14.625 140.208 14.9583 141.375 15.125C142.625 15.2917 143.708 15.8333 144.625 16.75C144.708 17.5833 144.958 18.25 145.375 18.75C145.792 19.1667 146.25 19.5833 146.75 20C147.25 20.3333 147.708 20.7083 148.125 21.125C148.625 21.5417 148.958 22.125 149.125 22.875C149.458 22.9583 149.667 22.9167 149.75 22.75C149.917 22.5833 150.167 22.5417 150.5 22.625C150.75 23.7917 151.042 24.5833 151.375 25C151.708 25.3333 152.042 26.0417 152.375 27.125C151.958 27.9583 151.625 28.8333 151.375 29.75C151.208 30.5833 150.708 31.2083 149.875 31.625C149.792 32.2083 149.958 32.5417 150.375 32.625C150.792 32.625 151.042 32.8333 151.125 33.25C151.208 34 151.083 34.5417 150.75 34.875C152.75 38.125 154.542 41.5833 156.125 45.25C157.708 48.8333 159.5 52.25 161.5 55.5ZM145.875 67.375C146.208 66.4583 146.625 65.7083 147.125 65.125C147.708 64.5417 148.042 63.6667 148.125 62.5C147.708 61.8333 147.458 61.3333 147.375 61C147.292 60.5833 147.25 59.9583 147.25 59.125C145.417 56.5417 143.833 53.7917 142.5 50.875C141.167 47.875 139.667 45.0833 138 42.5C137.833 42.8333 137.542 43.1667 137.125 43.5C136.708 43.8333 136.25 43.75 135.75 43.25C135.583 43.9167 135.292 44.4167 134.875 44.75C134.458 45 134 45.125 133.5 45.125C133 45.0417 132.458 44.9167 131.875 44.75C131.375 44.5 130.917 44.2083 130.5 43.875C128.083 45.7917 125.667 47.6667 123.25 49.5C120.833 51.3333 118.667 53.4583 116.75 55.875C116.417 56.0417 116.208 56.125 116.125 56.125C116.042 56.0417 115.792 56.0833 115.375 56.25C114.708 57.8333 113.875 59.2917 112.875 60.625C111.958 61.875 111.042 63.1667 110.125 64.5C109.208 65.8333 108.417 67.25 107.75 68.75C107.083 70.25 106.708 72 106.625 74C108.042 75.1667 109.708 75.875 111.625 76.125C113.542 76.375 115.5 76.4167 117.5 76.25C119.583 76.0833 121.583 75.8333 123.5 75.5C125.5 75.0833 127.333 74.875 129 74.875C132.5 74.0417 135.5 72.9583 138 71.625C140.5 70.2083 143.125 68.7917 145.875 67.375ZM190.5 84.25C190.917 86.75 190.75 88.7083 190 90.125C189.333 91.5417 188.333 92.5833 187 93.25C185.75 94 184.292 94.4167 182.625 94.5C180.958 94.5833 179.375 94.5 177.875 94.25C177.042 93.0833 176.292 91.625 175.625 89.875C174.958 88.125 174.333 86.3333 173.75 84.5C173.167 82.5833 172.625 80.7083 172.125 78.875C171.708 77.0417 171.333 75.4167 171 74C171.417 73 171.667 71.875 171.75 70.625C171.917 69.2917 172 67.9583 172 66.625C172.083 65.2917 172.125 63.9583 172.125 62.625C172.208 61.2083 172.333 59.875 172.5 58.625C173.083 55.125 173.917 51.7917 175 48.625C176.167 45.4583 177.083 42.1667 177.75 38.75C177.917 38 177.833 37.2917 177.5 36.625C177.25 35.9583 177.208 35.3333 177.375 34.75C177.458 34.4167 177.708 34.2083 178.125 34.125C178.542 33.9583 178.792 33.6667 178.875 33.25C179.125 32.3333 179.167 31.5833 179 31C178.917 30.4167 179.083 29.7083 179.5 28.875C179.917 28.2083 180.417 27.25 181 26C181.667 24.6667 181.917 23.2917 181.75 21.875C182.5 21.375 183.208 20.7917 183.875 20.125C184.542 19.4583 185.208 18.875 185.875 18.375C186.625 17.7917 187.417 17.2917 188.25 16.875C189.167 16.4583 190.25 16.25 191.5 16.25C192.167 17.0833 192.583 18 192.75 19C193 20 193.208 21 193.375 22C193.625 23 193.958 23.9583 194.375 24.875C194.792 25.7083 195.5 26.375 196.5 26.875C196.5 27.5417 196.5 28.375 196.5 29.375C196.5 30.375 196.542 31.375 196.625 32.375C196.708 33.2917 196.875 34.1667 197.125 35C197.458 35.75 197.958 36.25 198.625 36.5C197.125 40.5 195.708 44.4583 194.375 48.375C193.125 52.2917 192.083 56.25 191.25 60.25C190.417 64.1667 189.875 68.125 189.625 72.125C189.458 76.125 189.75 80.1667 190.5 84.25ZM230.625 70.25C229.875 70.4167 229.333 70.875 229 71.625C228.667 72.2917 228.333 73 228 73.75C227.75 74.5 227.458 75.2083 227.125 75.875C226.875 76.4583 226.458 76.75 225.875 76.75C225.792 77.4167 225.542 78 225.125 78.5C224.792 79 224.458 79.5417 224.125 80.125C223.792 80.625 223.542 81.2083 223.375 81.875C223.208 82.4583 223.292 83.1667 223.625 84C222.958 84.5 222.542 85.2083 222.375 86.125C222.208 87.0417 222 87.9167 221.75 88.75C221.583 89.5833 221.25 90.2917 220.75 90.875C220.25 91.4583 219.333 91.7083 218 91.625C217.75 91.9583 217.708 92.1667 217.875 92.25C218.042 92.3333 218.167 92.625 218.25 93.125C217.333 92.9583 216.625 93 216.125 93.25C215.708 93.5833 215.167 93.7917 214.5 93.875C212.917 93.375 211.583 92.5 210.5 91.25C209.5 90 208.583 88.625 207.75 87.125C207 85.5417 206.292 83.9583 205.625 82.375C205.042 80.7917 204.458 79.4167 203.875 78.25C204.125 77.3333 204.167 76.4583 204 75.625C203.833 74.7083 203.542 73.9583 203.125 73.375C207.208 64.7083 211.667 55.4583 216.5 45.625C221.333 35.7917 225.917 26.0833 230.25 16.5C232.167 17.25 234.042 18.125 235.875 19.125C237.792 20.0417 239.5 21.125 241 22.375C242.583 23.625 243.917 25.0833 245 26.75C246.083 28.3333 246.792 30.125 247.125 32.125C246.958 32.625 246.75 32.8333 246.5 32.75C246.333 32.5833 246.167 32.625 246 32.875C246.333 33.2917 246.5 33.5833 246.5 33.75C246.583 33.9167 246.583 34.0833 246.5 34.25C246.5 34.4167 246.5 34.6667 246.5 35C246.5 35.25 246.625 35.625 246.875 36.125C246.542 36.0417 246.292 36.0833 246.125 36.25C246.042 36.4167 245.792 36.4167 245.375 36.25C245.708 37.1667 245.792 37.9167 245.625 38.5C245.542 39.0833 245.375 39.625 245.125 40.125C244.875 40.5417 244.667 41.0417 244.5 41.625C244.333 42.125 244.375 42.7917 244.625 43.625C244.375 43.625 244.167 43.7083 244 43.875C243.917 43.9583 243.833 44.0833 243.75 44.25C243.667 44.3333 243.542 44.4583 243.375 44.625C243.292 44.7083 243.125 44.7083 242.875 44.625C243.125 46.4583 243.208 48.2917 243.125 50.125C243.042 51.9583 242.958 53.8333 242.875 55.75C242.875 57.5833 242.917 59.5417 243 61.625C243.083 63.625 243.375 65.7083 243.875 67.875C246.875 66.125 249.25 63.875 251 61.125C252.833 58.375 254.292 55.2917 255.375 51.875C256.542 48.4583 257.417 44.7917 258 40.875C258.583 36.9583 259.208 32.9583 259.875 28.875C260.625 28.125 261.208 27.2083 261.625 26.125C262.042 25.0417 262.417 23.9167 262.75 22.75C263.083 21.5 263.417 20.2917 263.75 19.125C264.083 17.875 264.5 16.75 265 15.75C266.25 15.9167 267.292 16.3333 268.125 17C269.042 17.5833 269.875 18.25 270.625 19C271.375 19.6667 272.167 20.3333 273 21C273.833 21.5833 274.875 21.9583 276.125 22.125C277.125 23.5417 278.042 24.9167 278.875 26.25C279.708 27.5833 280.25 29 280.5 30.5C280.083 31.1667 279.75 31.9167 279.5 32.75C279.333 33.5833 279.125 34.4167 278.875 35.25C278.625 36.0833 278.292 36.875 277.875 37.625C277.458 38.2917 276.875 38.875 276.125 39.375C275.875 41.5417 275.542 43.5417 275.125 45.375C274.792 47.125 274.417 48.875 274 50.625C273.667 52.375 273.375 54.2083 273.125 56.125C272.875 57.9583 272.792 60 272.875 62.25C272.208 64.1667 271.5 66.2083 270.75 68.375C270 70.5417 269.417 72.5 269 74.25C267.667 75.3333 266.625 76.625 265.875 78.125C265.125 79.625 264.333 81.125 263.5 82.625C263.167 82.9583 262.958 83.0417 262.875 82.875C262.792 82.7083 262.5 82.5833 262 82.5C262.083 82.8333 262.083 83.0833 262 83.25C261.917 83.4167 261.792 83.5833 261.625 83.75C261.542 83.8333 261.458 84 261.375 84.25C261.375 84.5 261.458 84.8333 261.625 85.25C260.458 85.75 259.417 86.4583 258.5 87.375C257.583 88.2917 256.583 89.125 255.5 89.875C254.5 90.625 253.25 91.125 251.75 91.375C250.333 91.625 248.458 91.3333 246.125 90.5C242.708 88 239.667 85.125 237 81.875C234.417 78.625 232.292 74.75 230.625 70.25ZM333.625 31.125C333.458 30.0417 333.25 29.375 333 29.125C333.583 27.625 334 26.1667 334.25 24.75C334.583 23.25 334.833 21.8333 335 20.5C335.167 19.3333 335.333 18.25 335.5 17.25C335.75 16.25 336.042 15.2917 336.375 14.375C337.792 14.0417 338.833 13.4583 339.5 12.625C340.25 11.7083 340.833 10.9167 341.25 10.25C342.75 10.1667 343.708 10.375 344.125 10.875C344.625 11.375 345.167 12.2083 345.75 13.375C346.167 14.2917 346.75 15.2917 347.5 16.375C348.25 17.375 349.375 18.1667 350.875 18.75C351.125 19.6667 351.417 20.5417 351.75 21.375C352.083 22.2083 352.458 23.0833 352.875 24C353.625 25.75 354.333 27.5833 355 29.5C355.667 31.3333 356.042 33.0833 356.125 34.75C355.125 36.6667 354.333 38.875 353.75 41.375C353.25 43.875 352.917 46.4167 352.75 49C352.667 51.5 352.75 53.9167 353 56.25C353.25 58.5833 353.667 60.5417 354.25 62.125L355 64.125L357.75 63.875C360.75 63.125 363.458 62.2917 365.875 61.375C368.292 60.375 370.542 59.2083 372.625 57.875C374.708 56.5417 376.708 55.0417 378.625 53.375C380.542 51.625 382.542 49.5833 384.625 47.25C386.625 44.9167 388.417 42.2917 390 39.375C391.583 36.375 392.875 33.2917 393.875 30.125C394.958 26.9583 395.792 23.7917 396.375 20.625C396.958 17.4583 397.333 14.5 397.5 11.75C399.083 11 399.958 9.79167 400.125 8.125L399.75 6.5C399.5 6.08333 399.375 5.70833 399.375 5.375C399.458 4.95833 399.583 4.58333 399.75 4.25C400.417 2.33333 401.833 0.916667 404 0C405.5 1 406.875 2.08333 408.125 3.25C409.458 4.41667 410.667 5.58333 411.75 6.75C411.917 9 412.25 10.9583 412.75 12.625C413.25 14.2083 413.792 15.75 414.375 17.25C414.958 18.6667 415.458 20.0417 415.875 21.375C416.375 22.7083 416.708 24.3333 416.875 26.25C416.042 28.75 415.417 31.125 415 33.375C414.667 35.5417 414.333 37.8333 414 40.25L413.75 41.625C412.25 44.2083 410.75 46.875 409.25 49.625C407.833 52.2917 406.667 54.625 405.75 56.625C405.25 57.125 404.792 57.7083 404.375 58.375C404.042 59.0417 403.708 59.7083 403.375 60.375C403.208 60.625 402.958 61.0417 402.625 61.625C402.375 62.2083 402.125 62.625 401.875 62.875L398.875 61.75L398.125 65.625L396.125 66.125L394.625 67.875C392.708 71.2083 390.667 74 388.5 76.25C386.417 78.5 384.042 80.5 381.375 82.25C378.792 84 375.833 85.6667 372.5 87.25C369.25 88.75 365.5 90.375 361.25 92.125C359.583 91.875 358.125 91.75 356.875 91.75C355.708 91.6667 354.542 91.5833 353.375 91.5C352.208 91.5 351.083 91.4583 350 91.375C348.917 91.2917 347.667 91.1667 346.25 91C345.917 90.25 345.458 89.7083 344.875 89.375C344.292 89.0417 343.75 88.875 343.25 88.875C341.583 88.0417 340.333 86.875 339.5 85.375C338.667 83.875 337.792 82.2083 336.875 80.375C336.458 79.375 336 78.375 335.5 77.375C335.083 76.375 334.542 75.4167 333.875 74.5L336.375 73.75L333.125 70C332.875 69.75 332.583 69.5 332.25 69.25C332 69 331.75 68.7083 331.5 68.375V66C331.167 59.1667 331 52.875 331 47.125C331.083 41.2917 331.875 36.1667 333.375 31.75L333.625 31.125ZM415.625 36.75C416.208 35 417.125 33.5 418.375 32.25C419.708 31 421.125 29.9583 422.625 29.125C424.208 28.2083 425.833 27.4583 427.5 26.875C429.167 26.2917 430.75 25.7917 432.25 25.375C435.583 23.9583 439.125 22.625 442.875 21.375C446.708 20.0417 450.583 18.875 454.5 17.875C458.5 16.875 462.583 16.25 466.75 16C470.917 15.6667 475.292 16.1667 479.875 17.5C480.125 18.3333 480.5 19.125 481 19.875C481.5 20.625 482 21.375 482.5 22.125C483.083 22.875 483.583 23.625 484 24.375C484.417 25.0417 484.667 25.75 484.75 26.5C485.583 27.25 486.25 28.0833 486.75 29C487.25 29.8333 487.333 30.9583 487 32.375C486.167 33.0417 485.333 33.6667 484.5 34.25C483.75 34.75 482.917 35.2083 482 35.625C478.917 34.875 475.792 34.625 472.625 34.875C469.458 35.125 466.625 35.3333 464.125 35.5C463.375 34.75 462.458 34.375 461.375 34.375C460.375 34.375 459.292 34.5417 458.125 34.875C457.042 35.2083 455.917 35.5417 454.75 35.875C453.667 36.2083 452.625 36.2917 451.625 36.125C450.792 36.7917 449.75 37.25 448.5 37.5C447.333 37.6667 446.042 37.8333 444.625 38C444.542 38.4167 444.625 38.7083 444.875 38.875C445.125 38.9583 445.167 39.2083 445 39.625C445.5 40.2083 446.125 40.625 446.875 40.875C447.708 41.125 448.542 41.375 449.375 41.625C450.292 41.875 451.083 42.2083 451.75 42.625C452.417 42.9583 452.875 43.5417 453.125 44.375C454.375 44.375 455.458 44.6667 456.375 45.25C457.292 45.8333 458.042 46.5417 458.625 47.375C459.208 48.2083 459.625 49.125 459.875 50.125C460.208 51.0417 460.375 51.875 460.375 52.625C460.625 53.2917 460.917 53.5833 461.25 53.5C461.583 53.4167 461.958 53.5833 462.375 54C462.625 55.0833 463.25 56.2083 464.25 57.375C465.25 58.4583 466.042 59.6667 466.625 61C466.792 63.0833 466.917 64.9583 467 66.625C467.083 68.2083 466.792 69.8333 466.125 71.5C464.875 74.5833 463.125 77.3333 460.875 79.75C458.708 82.1667 456.208 84.3333 453.375 86.25C450.625 88.0833 447.667 89.6667 444.5 91C441.333 92.3333 438.25 93.4583 435.25 94.375C434.917 94.2917 434.583 94.2917 434.25 94.375C433.917 94.4583 433.833 94.25 434 93.75C433.333 94.3333 432.583 94.7083 431.75 94.875C431 95.0417 430.167 95.0833 429.25 95C428.333 95 427.375 94.9583 426.375 94.875C425.458 94.7917 424.583 94.8333 423.75 95C423.167 94.4167 422.625 93.8333 422.125 93.25C421.708 92.75 421.375 92.0833 421.125 91.25C420.708 91.25 420.5 91.0417 420.5 90.625C420.583 90.2083 420.458 90 420.125 90C420.625 89.1667 420.833 88.7083 420.75 88.625C420.75 88.4583 420.625 88.3333 420.375 88.25C420.208 88.1667 420.042 88.0833 419.875 88C419.708 87.8333 419.667 87.625 419.75 87.375C420.083 86.7083 420.208 85.9583 420.125 85.125C420.042 84.2083 419.958 83.2917 419.875 82.375C419.792 81.4583 419.833 80.5833 420 79.75C420.25 78.9167 420.875 78.25 421.875 77.75C424.708 78.0833 427.375 78 429.875 77.5C432.458 76.9167 434.875 76.125 437.125 75.125C439.375 74.125 441.5 73.0417 443.5 71.875C445.583 70.7083 447.625 69.6667 449.625 68.75C449.875 68 450.208 67.375 450.625 66.875C451.125 66.375 451.625 65.9167 452.125 65.5C452.625 65.0833 453.083 64.625 453.5 64.125C453.917 63.625 454.208 63 454.375 62.25C454.458 61.6667 454.292 61.3333 453.875 61.25C453.542 61.0833 453.375 60.75 453.375 60.25L452 59.875C450.417 58.9583 448.625 58.2083 446.625 57.625C444.625 56.9583 442.917 56.25 441.5 55.5C440.583 56 439.708 56.125 438.875 55.875C438.125 55.625 437.125 55.375 435.875 55.125C433.042 54.9583 430.292 54.6667 427.625 54.25C425.042 53.8333 422.542 53.0833 420.125 52C419.958 51.5833 419.75 51.2083 419.5 50.875C419.25 50.5417 418.792 50.4583 418.125 50.625C417.625 49.9583 417.125 49.3333 416.625 48.75C416.125 48.0833 415.667 47.375 415.25 46.625C415.417 45.625 415.542 44.7917 415.625 44.125C415.708 43.375 415.458 42.6667 414.875 42C415.208 40.9167 415.458 40.0417 415.625 39.375C415.792 38.7083 415.792 37.8333 415.625 36.75Z" fill="#1FB2A6"/>
</svg>
