<svg width="784" height="100" viewBox="0 0 784 100" fill="none" xmlns="http://www.w3.org/2000/svg">
<path d="M2.8125 83.25C2.39583 83.3333 2.02083 83.0417 1.6875 82.375C1.35417 81.625 0.979167 80.9167 0.5625 80.25H1.9375C1.35417 78.4167 1.1875 76.75 1.4375 75.25C1.77083 73.6667 2.14583 72.1667 2.5625 70.75C2.97917 69.25 3.3125 67.8333 3.5625 66.5C3.89583 65.0833 3.77083 63.625 3.1875 62.125C3.60417 62.375 3.89583 62.2917 4.0625 61.875C4.3125 61.375 4.47917 60.7917 4.5625 60.125C4.72917 59.375 4.77083 58.625 4.6875 57.875C4.6875 57.0417 4.64583 56.375 4.5625 55.875C5.64583 53.2917 6.47917 50.625 7.0625 47.875C7.72917 45.125 8.3125 42.4167 8.8125 39.75C9.3125 37 9.85417 34.375 10.4375 31.875C11.1042 29.2917 11.9375 26.875 12.9375 24.625C14.1042 24.4583 15.3125 24.625 16.5625 25.125C17.8958 25.5417 18.7708 26.0833 19.1875 26.75C21.7708 24.75 24.0625 22.3333 26.0625 19.5C28.0625 16.6667 30.0625 13.9167 32.0625 11.25C34.1458 8.5 36.4792 6.08333 39.0625 4C41.6458 1.91667 44.8542 0.666667 48.6875 0.25C50.6875 1.66667 52.9375 3.20833 55.4375 4.875C57.9375 6.45833 59.9792 8.45833 61.5625 10.875C62.2292 11.2917 62.8542 11.75 63.4375 12.25C64.1042 12.6667 64.7708 13.0833 65.4375 13.5V15.375C66.6042 16.4583 67.5625 17.75 68.3125 19.25C69.1458 20.6667 69.8542 22.2083 70.4375 23.875C71.1042 25.4583 71.7292 27.0833 72.3125 28.75C72.8958 30.4167 73.5625 31.9583 74.3125 33.375C74.1458 33.875 74.0625 34.3333 74.0625 34.75C74.1458 35.0833 74.2292 35.4583 74.3125 35.875C74.4792 36.2083 74.6042 36.625 74.6875 37.125C74.7708 37.5417 74.8125 38.0833 74.8125 38.75C74.4792 43.1667 73.0208 46.75 70.4375 49.5C67.9375 52.1667 64.8542 54.375 61.1875 56.125C57.6042 57.7917 53.7708 59.25 49.6875 60.5C45.6042 61.6667 41.8958 62.9583 38.5625 64.375C38.5625 64.7083 38.7292 64.875 39.0625 64.875C39.4792 64.875 39.6042 65.125 39.4375 65.625C41.9375 67.125 43.8542 68.3333 45.1875 69.25C46.6042 70.1667 47.8958 70.9583 49.0625 71.625C50.3125 72.2083 51.6458 72.7083 53.0625 73.125C54.5625 73.5417 56.6042 74.0417 59.1875 74.625C61.7708 75.2083 63.7708 75.7083 65.1875 76.125C66.6875 76.4583 68.0208 76.75 69.1875 77C70.3542 77.1667 71.6042 77.3333 72.9375 77.5C74.2708 77.6667 76.0625 77.875 78.3125 78.125C79.2292 79.0417 79.9792 80.125 80.5625 81.375C81.1458 82.625 81.5625 83.875 81.8125 85.125C82.0625 86.375 82.1042 87.5833 81.9375 88.75C81.8542 89.8333 81.5208 90.7083 80.9375 91.375C81.0208 91.7083 81.2292 91.875 81.5625 91.875C81.9792 91.7917 82.3958 91.7917 82.8125 91.875C82.2292 92.2917 81.7292 92.7917 81.3125 93.375C80.8958 93.9583 80.4792 94.5417 80.0625 95.125C79.6458 95.7083 79.1458 96.25 78.5625 96.75C78.0625 97.25 77.3958 97.5417 76.5625 97.625C73.5625 98.7917 69.7292 98.8333 65.0625 97.75C60.3958 96.6667 54.4375 94.75 47.1875 92C43.6042 90.6667 40.6875 89.4583 38.4375 88.375C36.1875 87.2917 34.2292 86.25 32.5625 85.25C30.8958 84.1667 29.3542 83.0417 27.9375 81.875C26.5208 80.625 24.8958 79.1667 23.0625 77.5C22.8125 77.5833 22.6458 77.75 22.5625 78C22.5625 78.25 22.4375 78.4167 22.1875 78.5C21.7708 81.8333 21.1042 84.5417 20.1875 86.625C19.3542 88.7083 18.1042 90.8333 16.4375 93C15.1042 92.75 14.1875 92.875 13.6875 93.375C13.2708 93.875 12.7292 94.3333 12.0625 94.75C11.2292 94.9167 10.6042 94.875 10.1875 94.625C9.77083 94.4583 9.39583 94.25 9.0625 94C8.72917 93.75 8.35417 93.5 7.9375 93.25C7.52083 93 6.85417 92.9167 5.9375 93C5.6875 92.25 5.4375 91.5417 5.1875 90.875C4.9375 90.125 4.27083 89.7917 3.1875 89.875C3.4375 89.125 3.52083 88.5 3.4375 88C3.35417 87.4167 3.22917 86.9167 3.0625 86.5C2.89583 86 2.72917 85.5 2.5625 85C2.47917 84.5 2.5625 83.9167 2.8125 83.25ZM44.5625 26.125C43.4792 27.7083 42.2708 29.1667 40.9375 30.5C39.6042 31.75 38.2708 33.0833 36.9375 34.5C35.6875 35.8333 34.5625 37.3333 33.5625 39C32.5625 40.5833 31.8542 42.5 31.4375 44.75C34.9375 44.3333 38.6042 43.375 42.4375 41.875C46.2708 40.2917 49.8958 38.7917 53.3125 37.375C52.8958 34.2917 51.8125 31.8333 50.0625 30C48.3125 28.0833 46.4792 26.7917 44.5625 26.125ZM151.812 23.625C151.896 24.2083 151.896 24.6667 151.812 25C151.812 25.25 151.771 25.5 151.688 25.75C151.688 26 151.688 26.2917 151.688 26.625C151.688 26.875 151.771 27.2917 151.938 27.875C150.188 30.7083 148.146 32.6667 145.812 33.75C143.562 34.75 141.104 35.5 138.438 36C135.771 36.4167 133.021 36.875 130.188 37.375C127.438 37.875 124.688 38.9583 121.938 40.625C120.854 40.2083 119.854 40.2083 118.938 40.625C118.104 41.0417 116.854 41.1667 115.188 41C114.688 41.5 114.062 41.875 113.312 42.125C112.562 42.2917 111.812 42.5 111.062 42.75C111.396 43.5 111.521 44.2917 111.438 45.125C111.438 45.875 111.562 46.5 111.812 47C114.729 47.25 117.938 47.2083 121.438 46.875C125.021 46.5417 128.521 46.3333 131.938 46.25C132.021 46.6667 131.979 46.9583 131.812 47.125C131.646 47.2083 131.604 47.4167 131.688 47.75C132.271 48.1667 132.854 48.7083 133.438 49.375C134.021 49.9583 134.604 50.5417 135.188 51.125C135.771 51.7083 136.354 52.2083 136.938 52.625C137.604 52.9583 138.354 53.0833 139.188 53C139.521 53.6667 139.729 54.4167 139.812 55.25C139.979 56 139.896 56.7917 139.562 57.625C138.229 58.5417 136.896 59.5 135.562 60.5C134.229 61.4167 132.812 62.25 131.312 63C129.896 63.75 128.354 64.375 126.688 64.875C125.104 65.2917 123.312 65.4583 121.312 65.375C120.896 65.375 120.562 65.375 120.312 65.375C120.146 65.375 119.896 65.25 119.562 65C118.896 65.4167 117.938 65.5417 116.688 65.375C115.521 65.2083 114.604 65.3333 113.938 65.75C113.021 65.3333 111.896 65.1667 110.562 65.25C109.312 65.25 108.188 65.0833 107.188 64.75C105.854 66.5 104.646 68.375 103.562 70.375C102.479 72.375 101.521 74.5 100.688 76.75C103.521 77.1667 105.854 77.3333 107.688 77.25C109.604 77.1667 111.396 77.0417 113.062 76.875C114.729 76.625 116.438 76.4167 118.188 76.25C119.938 76 122.146 75.9167 124.812 76C126.479 75.0833 128.438 74.5 130.688 74.25C133.021 73.9167 135.146 73.4167 137.062 72.75C137.729 73 138.312 73.4583 138.812 74.125C139.312 74.7083 139.771 75.2917 140.188 75.875C140.688 76.375 141.188 76.8333 141.688 77.25C142.188 77.6667 142.812 77.8333 143.562 77.75C143.896 78.0833 144.104 78.5 144.188 79C144.354 79.4167 144.479 79.8333 144.562 80.25C144.646 80.6667 144.771 81.0417 144.938 81.375C145.188 81.625 145.562 81.7083 146.062 81.625C144.812 84.375 143.354 86.5 141.688 88C140.104 89.4167 138.271 90.5 136.188 91.25C134.104 92 131.771 92.5833 129.188 93C126.688 93.4167 123.896 93.9167 120.812 94.5C120.062 94.6667 119.438 94.625 118.938 94.375C118.438 94.2083 117.854 94.125 117.188 94.125C115.271 94.5417 112.979 94.9167 110.312 95.25C107.646 95.5833 104.938 95.7083 102.188 95.625C99.4375 95.5417 96.8125 95.1667 94.3125 94.5C91.8125 93.9167 89.7708 92.8333 88.1875 91.25C87.5208 90.6667 87.0625 90 86.8125 89.25C86.6458 88.4167 86.1042 87.7917 85.1875 87.375C85.1042 86.2917 84.9375 85.0833 84.6875 83.75C84.4375 82.4167 84.1875 81.0417 83.9375 79.625C83.6875 78.125 83.4792 76.6667 83.3125 75.25C83.2292 73.8333 83.3125 72.5417 83.5625 71.375C83.8125 70.125 84.3125 69 85.0625 68C85.8958 67 86.1875 65.9167 85.9375 64.75C86.3542 64.6667 86.6042 64.4583 86.6875 64.125C86.7708 63.7083 87.1042 63.5417 87.6875 63.625C88.1875 62.125 88.7292 60.7083 89.3125 59.375C89.8958 58.0417 90.4792 56.75 91.0625 55.5C91.7292 54.25 92.3542 53 92.9375 51.75C93.6042 50.4167 94.2292 48.9583 94.8125 47.375C93.6458 46.2917 92.7708 45.125 92.1875 43.875C91.6875 42.5417 91.3125 41.25 91.0625 40C90.8125 38.6667 90.6042 37.3333 90.4375 36C90.2708 34.5833 89.9792 33.1667 89.5625 31.75C90.3958 30.5 91.3958 29.5 92.5625 28.75C93.8125 27.9167 95.1458 27.25 96.5625 26.75C97.9792 26.25 99.5208 25.8333 101.188 25.5C102.854 25.1667 104.604 24.7917 106.438 24.375C109.771 23.2917 112.729 22.4583 115.312 21.875C117.979 21.2917 120.562 20.8333 123.062 20.5C125.646 20.0833 128.312 19.7083 131.062 19.375C133.812 19.0417 136.938 18.5417 140.438 17.875C141.188 18.625 141.896 19 142.562 19C142.896 18.25 143.271 18.0417 143.688 18.375C144.188 18.625 144.396 18.375 144.312 17.625C145.146 19.0417 146.188 20.25 147.438 21.25C148.771 22.1667 150.229 22.9583 151.812 23.625ZM195.938 16.5C199.438 16.9167 202.562 17.625 205.312 18.625C208.062 19.625 210.396 20.9583 212.312 22.625C213.646 24.7083 214.896 26.9583 216.062 29.375C217.312 31.7917 218.229 34.3333 218.812 37C219.479 39.5833 219.771 42.25 219.688 45C219.688 47.75 219.104 50.5417 217.938 53.375C215.521 56.375 212.562 58.8333 209.062 60.75C205.646 62.5833 201.938 64.0833 197.938 65.25C193.938 66.4167 189.771 67.4167 185.438 68.25C181.188 69.0833 177.021 69.9167 172.938 70.75C173.021 72.6667 173.021 74.7083 172.938 76.875C172.938 78.9583 172.729 81.0833 172.312 83.25C171.979 85.3333 171.438 87.375 170.688 89.375C169.938 91.375 168.938 93.2083 167.688 94.875C166.271 94.875 164.812 95.0417 163.312 95.375C161.812 95.7917 160.479 96.125 159.312 96.375C158.729 96.0417 158.188 95.7083 157.688 95.375C157.271 95.125 156.646 94.9583 155.812 94.875C155.979 94.0417 155.771 93.2083 155.188 92.375C154.604 91.4583 154.021 90.5417 153.438 89.625C152.854 88.7083 152.438 87.8333 152.188 87C152.021 86.1667 152.438 85.375 153.438 84.625C152.854 84.0417 152.562 83.2917 152.562 82.375C153.146 81.375 153.646 80 154.062 78.25C154.562 76.5 154.938 74.7917 155.188 73.125C155.521 71.375 155.604 69.7917 155.438 68.375C155.271 66.9583 154.438 65.9167 152.938 65.25C153.021 65.0833 153.188 65 153.438 65C153.688 65 153.938 64.9583 154.188 64.875C153.521 64.375 153.104 63.6667 152.938 62.75C152.854 61.8333 152.562 61.0417 152.062 60.375C152.229 59.9583 152.354 59.5833 152.438 59.25C152.521 58.9167 152.812 58.7917 153.312 58.875C153.062 57.375 153.062 55.9583 153.312 54.625C153.646 53.2917 154.104 52.0417 154.688 50.875C155.271 49.625 155.979 48.4167 156.812 47.25C157.646 46.0833 158.438 44.9167 159.188 43.75C159.771 43.6667 160.104 43.75 160.188 44C160.354 44.25 160.646 44.2083 161.062 43.875C162.146 43.0417 162.896 42.1667 163.312 41.25C163.729 40.3333 163.938 39.2917 163.938 38.125C164.521 36.375 165.229 34.625 166.062 32.875C166.896 31.0417 167.812 29.375 168.812 27.875C169.812 26.375 170.896 25.0417 172.062 23.875C173.312 22.7083 174.604 21.8333 175.938 21.25C176.938 20.4167 178.188 19.6667 179.688 19C181.188 18.25 182.812 17.7083 184.562 17.375C186.312 16.9583 188.062 16.75 189.812 16.75C191.646 16.6667 193.312 16.8333 194.812 17.25C195.229 17.4167 195.438 17.3333 195.438 17C195.521 16.6667 195.688 16.5 195.938 16.5ZM190.812 46.375C192.896 45.4583 195.104 44.75 197.438 44.25C199.854 43.6667 201.854 42.625 203.438 41.125C202.438 40.2083 200.979 39.4167 199.062 38.75C197.146 38 195.062 37.5417 192.812 37.375C190.562 37.2083 188.271 37.4167 185.938 38C183.688 38.5 181.729 39.5 180.062 41C179.562 42.5 179.146 43.7083 178.812 44.625C178.479 45.4583 178.021 46.5 177.438 47.75C177.604 48.1667 177.854 48.5 178.188 48.75C178.604 48.9167 178.896 49.2083 179.062 49.625C180.979 48.625 182.896 48.0833 184.812 48C186.812 47.8333 188.812 47.2917 190.812 46.375ZM288.812 56.5C288.729 57.5 288.812 58.4583 289.062 59.375C289.312 60.2917 289.604 61.2083 289.938 62.125C290.354 62.9583 290.729 63.8333 291.062 64.75C291.396 65.6667 291.646 66.5833 291.812 67.5C291.979 68.6667 291.979 69.9583 291.812 71.375C291.646 72.7083 291.354 74.0417 290.938 75.375C290.521 76.625 289.979 77.7917 289.312 78.875C288.646 79.875 287.854 80.625 286.938 81.125C285.771 82.625 284.354 83.7917 282.688 84.625C281.021 85.4583 279.479 86.4583 278.062 87.625C277.146 88.2083 276.104 88.625 274.938 88.875C273.854 89.125 272.729 89.375 271.562 89.625C270.646 90.125 269.562 90.6667 268.312 91.25C267.062 91.75 265.771 92.25 264.438 92.75C263.104 93.1667 261.771 93.5 260.438 93.75C259.104 93.9167 257.938 93.9583 256.938 93.875C254.438 94.7917 251.979 95.375 249.562 95.625C247.229 95.9583 244.479 95.7917 241.312 95.125C238.312 95.5417 235.521 95.4167 232.938 94.75C230.438 94.0833 228.188 93.0417 226.188 91.625C224.271 90.125 222.562 88.375 221.062 86.375C219.646 84.2917 218.479 82.125 217.562 79.875C216.896 75.125 217.062 70.8333 218.062 67C219.062 63.0833 220.479 59.5 222.312 56.25C224.229 52.9167 226.396 49.875 228.812 47.125C231.229 44.2917 233.562 41.5417 235.812 38.875C236.312 39.0417 236.688 39.0417 236.938 38.875C237.271 38.625 237.562 38.3333 237.812 38C238.062 37.5833 238.312 37.2083 238.562 36.875C238.896 36.5417 239.271 36.3333 239.688 36.25C240.271 35 241.104 34.0833 242.188 33.5C243.354 32.8333 244.271 31.9167 244.938 30.75C245.688 30.5833 246.312 30.3333 246.812 30C247.312 29.6667 247.771 29.2917 248.188 28.875C248.688 28.4583 249.188 28.0833 249.688 27.75C250.188 27.3333 250.771 27.0417 251.438 26.875V25.5C252.938 24.8333 254.021 24.0833 254.688 23.25C255.438 22.3333 256.312 21.25 257.312 20C258.062 19.9167 258.646 19.875 259.062 19.875C259.562 19.875 260.271 19.7917 261.188 19.625C261.854 18.4583 262.438 17.5833 262.938 17C263.521 16.4167 264.354 15.7917 265.438 15.125C266.438 15.625 267.521 15.9583 268.688 16.125C269.938 16.2917 271.021 16.8333 271.938 17.75C272.021 18.5833 272.271 19.25 272.688 19.75C273.104 20.1667 273.562 20.5833 274.062 21C274.562 21.3333 275.021 21.7083 275.438 22.125C275.938 22.5417 276.271 23.125 276.438 23.875C276.771 23.9583 276.979 23.9167 277.062 23.75C277.229 23.5833 277.479 23.5417 277.812 23.625C278.062 24.7917 278.354 25.5833 278.688 26C279.021 26.3333 279.354 27.0417 279.688 28.125C279.271 28.9583 278.938 29.8333 278.688 30.75C278.521 31.5833 278.021 32.2083 277.188 32.625C277.104 33.2083 277.271 33.5417 277.688 33.625C278.104 33.625 278.354 33.8333 278.438 34.25C278.521 35 278.396 35.5417 278.062 35.875C280.062 39.125 281.854 42.5833 283.438 46.25C285.021 49.8333 286.812 53.25 288.812 56.5ZM273.188 68.375C273.521 67.4583 273.938 66.7083 274.438 66.125C275.021 65.5417 275.354 64.6667 275.438 63.5C275.021 62.8333 274.771 62.3333 274.688 62C274.604 61.5833 274.562 60.9583 274.562 60.125C272.729 57.5417 271.146 54.7917 269.812 51.875C268.479 48.875 266.979 46.0833 265.312 43.5C265.146 43.8333 264.854 44.1667 264.438 44.5C264.021 44.8333 263.562 44.75 263.062 44.25C262.896 44.9167 262.604 45.4167 262.188 45.75C261.771 46 261.312 46.125 260.812 46.125C260.312 46.0417 259.771 45.9167 259.188 45.75C258.688 45.5 258.229 45.2083 257.812 44.875C255.396 46.7917 252.979 48.6667 250.562 50.5C248.146 52.3333 245.979 54.4583 244.062 56.875C243.729 57.0417 243.521 57.125 243.438 57.125C243.354 57.0417 243.104 57.0833 242.688 57.25C242.021 58.8333 241.188 60.2917 240.188 61.625C239.271 62.875 238.354 64.1667 237.438 65.5C236.521 66.8333 235.729 68.25 235.062 69.75C234.396 71.25 234.021 73 233.938 75C235.354 76.1667 237.021 76.875 238.938 77.125C240.854 77.375 242.812 77.4167 244.812 77.25C246.896 77.0833 248.896 76.8333 250.812 76.5C252.812 76.0833 254.646 75.875 256.312 75.875C259.812 75.0417 262.812 73.9583 265.312 72.625C267.812 71.2083 270.438 69.7917 273.188 68.375ZM295.938 37.75C296.521 36 297.438 34.5 298.688 33.25C300.021 32 301.438 30.9583 302.938 30.125C304.521 29.2083 306.146 28.4583 307.812 27.875C309.479 27.2917 311.062 26.7917 312.562 26.375C315.896 24.9583 319.438 23.625 323.188 22.375C327.021 21.0417 330.896 19.875 334.812 18.875C338.812 17.875 342.896 17.25 347.062 17C351.229 16.6667 355.604 17.1667 360.188 18.5C360.438 19.3333 360.812 20.125 361.312 20.875C361.812 21.625 362.312 22.375 362.812 23.125C363.396 23.875 363.896 24.625 364.312 25.375C364.729 26.0417 364.979 26.75 365.062 27.5C365.896 28.25 366.562 29.0833 367.062 30C367.562 30.8333 367.646 31.9583 367.312 33.375C366.479 34.0417 365.646 34.6667 364.812 35.25C364.062 35.75 363.229 36.2083 362.312 36.625C359.229 35.875 356.104 35.625 352.938 35.875C349.771 36.125 346.938 36.3333 344.438 36.5C343.688 35.75 342.771 35.375 341.688 35.375C340.688 35.375 339.604 35.5417 338.438 35.875C337.354 36.2083 336.229 36.5417 335.062 36.875C333.979 37.2083 332.938 37.2917 331.938 37.125C331.104 37.7917 330.062 38.25 328.812 38.5C327.646 38.6667 326.354 38.8333 324.938 39C324.854 39.4167 324.938 39.7083 325.188 39.875C325.438 39.9583 325.479 40.2083 325.312 40.625C325.812 41.2083 326.438 41.625 327.188 41.875C328.021 42.125 328.854 42.375 329.688 42.625C330.604 42.875 331.396 43.2083 332.062 43.625C332.729 43.9583 333.188 44.5417 333.438 45.375C334.688 45.375 335.771 45.6667 336.688 46.25C337.604 46.8333 338.354 47.5417 338.938 48.375C339.521 49.2083 339.938 50.125 340.188 51.125C340.521 52.0417 340.688 52.875 340.688 53.625C340.938 54.2917 341.229 54.5833 341.562 54.5C341.896 54.4167 342.271 54.5833 342.688 55C342.938 56.0833 343.562 57.2083 344.562 58.375C345.562 59.4583 346.354 60.6667 346.938 62C347.104 64.0833 347.229 65.9583 347.312 67.625C347.396 69.2083 347.104 70.8333 346.438 72.5C345.188 75.5833 343.438 78.3333 341.188 80.75C339.021 83.1667 336.521 85.3333 333.688 87.25C330.938 89.0833 327.979 90.6667 324.812 92C321.646 93.3333 318.562 94.4583 315.562 95.375C315.229 95.2917 314.896 95.2917 314.562 95.375C314.229 95.4583 314.146 95.25 314.312 94.75C313.646 95.3333 312.896 95.7083 312.062 95.875C311.312 96.0417 310.479 96.0833 309.562 96C308.646 96 307.688 95.9583 306.688 95.875C305.771 95.7917 304.896 95.8333 304.062 96C303.479 95.4167 302.938 94.8333 302.438 94.25C302.021 93.75 301.688 93.0833 301.438 92.25C301.021 92.25 300.812 92.0417 300.812 91.625C300.896 91.2083 300.771 91 300.438 91C300.938 90.1667 301.146 89.7083 301.062 89.625C301.062 89.4583 300.938 89.3333 300.688 89.25C300.521 89.1667 300.354 89.0833 300.188 89C300.021 88.8333 299.979 88.625 300.062 88.375C300.396 87.7083 300.521 86.9583 300.438 86.125C300.354 85.2083 300.271 84.2917 300.188 83.375C300.104 82.4583 300.146 81.5833 300.312 80.75C300.562 79.9167 301.188 79.25 302.188 78.75C305.021 79.0833 307.688 79 310.188 78.5C312.771 77.9167 315.188 77.125 317.438 76.125C319.688 75.125 321.812 74.0417 323.812 72.875C325.896 71.7083 327.938 70.6667 329.938 69.75C330.188 69 330.521 68.375 330.938 67.875C331.438 67.375 331.938 66.9167 332.438 66.5C332.938 66.0833 333.396 65.625 333.812 65.125C334.229 64.625 334.521 64 334.688 63.25C334.771 62.6667 334.604 62.3333 334.188 62.25C333.854 62.0833 333.688 61.75 333.688 61.25L332.312 60.875C330.729 59.9583 328.938 59.2083 326.938 58.625C324.938 57.9583 323.229 57.25 321.812 56.5C320.896 57 320.021 57.125 319.188 56.875C318.438 56.625 317.438 56.375 316.188 56.125C313.354 55.9583 310.604 55.6667 307.938 55.25C305.354 54.8333 302.854 54.0833 300.438 53C300.271 52.5833 300.062 52.2083 299.812 51.875C299.562 51.5417 299.104 51.4583 298.438 51.625C297.938 50.9583 297.438 50.3333 296.938 49.75C296.438 49.0833 295.979 48.375 295.562 47.625C295.729 46.625 295.854 45.7917 295.938 45.125C296.021 44.375 295.771 43.6667 295.188 43C295.521 41.9167 295.771 41.0417 295.938 40.375C296.104 39.7083 296.104 38.8333 295.938 37.75ZM379.812 85.25C380.229 87.75 380.062 89.7083 379.312 91.125C378.646 92.5417 377.646 93.5833 376.312 94.25C375.062 95 373.604 95.4167 371.938 95.5C370.271 95.5833 368.688 95.5 367.188 95.25C366.354 94.0833 365.604 92.625 364.938 90.875C364.271 89.125 363.646 87.3333 363.062 85.5C362.479 83.5833 361.938 81.7083 361.438 79.875C361.021 78.0417 360.646 76.4167 360.312 75C360.729 74 360.979 72.875 361.062 71.625C361.229 70.2917 361.312 68.9583 361.312 67.625C361.396 66.2917 361.438 64.9583 361.438 63.625C361.521 62.2083 361.646 60.875 361.812 59.625C362.396 56.125 363.229 52.7917 364.312 49.625C365.479 46.4583 366.396 43.1667 367.062 39.75C367.229 39 367.146 38.2917 366.812 37.625C366.562 36.9583 366.521 36.3333 366.688 35.75C366.771 35.4167 367.021 35.2083 367.438 35.125C367.854 34.9583 368.104 34.6667 368.188 34.25C368.438 33.3333 368.479 32.5833 368.312 32C368.229 31.4167 368.396 30.7083 368.812 29.875C369.229 29.2083 369.729 28.25 370.312 27C370.979 25.6667 371.229 24.2917 371.062 22.875C371.812 22.375 372.521 21.7917 373.188 21.125C373.854 20.4583 374.521 19.875 375.188 19.375C375.938 18.7917 376.729 18.2917 377.562 17.875C378.479 17.4583 379.562 17.25 380.812 17.25C381.479 18.0833 381.896 19 382.062 20C382.312 21 382.521 22 382.688 23C382.938 24 383.271 24.9583 383.688 25.875C384.104 26.7083 384.812 27.375 385.812 27.875C385.812 28.5417 385.812 29.375 385.812 30.375C385.812 31.375 385.854 32.375 385.938 33.375C386.021 34.2917 386.188 35.1667 386.438 36C386.771 36.75 387.271 37.25 387.938 37.5C386.438 41.5 385.021 45.4583 383.688 49.375C382.438 53.2917 381.396 57.25 380.562 61.25C379.729 65.1667 379.188 69.125 378.938 73.125C378.771 77.125 379.062 81.1667 379.812 85.25ZM465.438 33.875C463.354 33.875 461.104 34.0417 458.688 34.375C456.271 34.625 453.896 34.9167 451.562 35.25C449.896 35.5 448.271 35.7083 446.688 35.875C445.188 36.0417 443.812 36.1667 442.562 36.25C441.979 38.0833 441.396 39.7083 440.812 41.125C440.229 42.5417 439.604 43.9167 438.938 45.25C438.271 46.6667 437.646 48.125 437.062 49.625C436.562 51.0417 436.062 52.5833 435.562 54.25C434.729 55.5833 434.021 56.8333 433.438 58C432.938 59.0833 432.521 60.3333 432.188 61.75C431.188 63 430.438 64.3333 429.938 65.75C429.438 67.0833 429.062 68.25 428.812 69.25L428.312 70.75C427.812 71.25 427.521 71.6667 427.438 72C427.354 72.25 427.146 72.5 426.812 72.75C426.729 73.6667 426.438 74.5833 425.938 75.5C425.771 75.9167 425.646 76.3333 425.562 76.75C425.479 77.0833 425.438 77.3333 425.438 77.5C425.438 78.3333 425.229 78.875 424.812 79.125C424.896 79.5417 424.896 80 424.812 80.5C424.729 80.9167 424.646 81.3333 424.562 81.75C424.312 82.75 424.229 83.5417 424.312 84.125C424.562 84.4583 424.771 84.75 424.938 85C425.188 85.25 425.354 85.5833 425.438 86C425.938 86.3333 426.312 86.5417 426.562 86.625C426.896 86.875 427.396 87.1667 428.062 87.5L429.188 88.75C429.604 91.1667 429.229 93.0833 428.062 94.5C426.812 96.0833 424.688 96.875 421.688 96.875H420.188C419.771 96.4583 419.521 96.125 419.438 95.875C418.771 95.625 418.229 95.4167 417.812 95.25C417.396 95.0833 417.021 94.75 416.688 94.25C415.604 93.75 414.729 93.3333 414.062 93L412.938 92.375C412.938 91.4583 412.938 90.9583 412.938 90.875C412.354 90.125 411.896 89.2917 411.562 88.375C411.312 87.4583 411.104 86.5417 410.938 85.625C410.771 84.875 410.562 84.1667 410.312 83.5C410.146 82.8333 409.896 82.25 409.562 81.75C409.396 76.9167 409.854 72.8333 410.938 69.5C412.021 66.1667 413.146 62.9583 414.312 59.875C414.979 58.2083 415.646 56.5417 416.312 54.875C416.979 53.125 417.562 51.3333 418.062 49.5L419.188 48.25C419.771 46.9167 420.229 45.8333 420.562 45C420.979 44.0833 421.396 43.1667 421.812 42.25C422.062 41.6667 422.271 41.125 422.438 40.625C422.688 40.0417 422.896 39.5417 423.062 39.125C422.562 39.125 422.104 39.1667 421.688 39.25C421.271 39.25 420.854 39.2917 420.438 39.375C419.938 39.4583 419.479 39.5417 419.062 39.625C418.646 39.625 418.229 39.625 417.812 39.625C417.229 39.625 416.812 39.5833 416.562 39.5C415.646 39.9167 414.646 40.125 413.562 40.125H412.312C412.062 40.125 411.812 40.125 411.562 40.125C411.396 40.0417 411.229 40 411.062 40C410.229 40 409.562 40.125 409.062 40.375C408.062 40.375 407.104 40.375 406.188 40.375H404.938C404.771 40.375 404.562 40.4167 404.312 40.5C404.062 40.5 403.854 40.5 403.688 40.5C403.104 40.5 402.479 40.4583 401.812 40.375C401.146 40.2083 400.438 39.9167 399.688 39.5C398.688 38.1667 398.021 37.4583 397.688 37.375L396.562 35.875C396.479 35.375 396.354 34.9167 396.188 34.5C396.021 34 395.854 33.4583 395.688 32.875C395.354 32.0417 395.021 31.1667 394.688 30.25C394.438 29.25 394.312 28.0833 394.312 26.75C394.396 26.0833 394.562 25.5833 394.812 25.25C395.062 24.9167 395.271 24.625 395.438 24.375L395.812 22.5L397.438 22.625H400.938C403.604 22.625 406.312 22.5417 409.062 22.375C411.812 22.125 414.646 21.875 417.562 21.625C419.229 21.4583 420.896 21.2917 422.562 21.125C424.312 20.9583 426.104 20.7917 427.938 20.625C428.271 19.875 428.604 19.1667 428.938 18.5L430.188 17.875C431.688 17.7917 432.729 18 433.312 18.5C433.979 18.9167 434.521 19.3333 434.938 19.75C436.771 19.5833 438.604 19.4167 440.438 19.25C442.354 19 444.271 18.7083 446.188 18.375C449.021 17.9583 451.854 17.5833 454.688 17.25C457.604 16.9167 460.396 16.75 463.062 16.75C464.229 16.75 465.354 16.7917 466.438 16.875C467.521 16.9583 468.521 17.0833 469.438 17.25L470.688 18.125C470.938 18.625 471.271 19.0833 471.688 19.5C472.188 19.9167 472.688 20.3333 473.188 20.75C474.188 21.6667 475.188 22.75 476.188 24C477.188 25.25 477.562 27.0833 477.312 29.5C476.646 30.5 476.146 31.0833 475.812 31.25L474.688 32.75L473.438 32.625C472.938 32.625 472.479 32.7083 472.062 32.875C471.646 32.9583 471.229 33.0833 470.812 33.25C470.479 33.4167 470.146 33.5833 469.812 33.75C469.479 33.8333 469.104 33.9167 468.688 34C467.938 34 467.312 34 466.812 34C466.396 33.9167 465.938 33.875 465.438 33.875ZM524.688 56.5C524.604 57.5 524.688 58.4583 524.938 59.375C525.188 60.2917 525.479 61.2083 525.812 62.125C526.229 62.9583 526.604 63.8333 526.938 64.75C527.271 65.6667 527.521 66.5833 527.688 67.5C527.854 68.6667 527.854 69.9583 527.688 71.375C527.521 72.7083 527.229 74.0417 526.812 75.375C526.396 76.625 525.854 77.7917 525.188 78.875C524.521 79.875 523.729 80.625 522.812 81.125C521.646 82.625 520.229 83.7917 518.562 84.625C516.896 85.4583 515.354 86.4583 513.938 87.625C513.021 88.2083 511.979 88.625 510.812 88.875C509.729 89.125 508.604 89.375 507.438 89.625C506.521 90.125 505.438 90.6667 504.188 91.25C502.938 91.75 501.646 92.25 500.312 92.75C498.979 93.1667 497.646 93.5 496.312 93.75C494.979 93.9167 493.812 93.9583 492.812 93.875C490.312 94.7917 487.854 95.375 485.438 95.625C483.104 95.9583 480.354 95.7917 477.188 95.125C474.188 95.5417 471.396 95.4167 468.812 94.75C466.312 94.0833 464.062 93.0417 462.062 91.625C460.146 90.125 458.438 88.375 456.938 86.375C455.521 84.2917 454.354 82.125 453.438 79.875C452.771 75.125 452.938 70.8333 453.938 67C454.938 63.0833 456.354 59.5 458.188 56.25C460.104 52.9167 462.271 49.875 464.688 47.125C467.104 44.2917 469.438 41.5417 471.688 38.875C472.188 39.0417 472.562 39.0417 472.812 38.875C473.146 38.625 473.438 38.3333 473.688 38C473.938 37.5833 474.188 37.2083 474.438 36.875C474.771 36.5417 475.146 36.3333 475.562 36.25C476.146 35 476.979 34.0833 478.062 33.5C479.229 32.8333 480.146 31.9167 480.812 30.75C481.562 30.5833 482.188 30.3333 482.688 30C483.188 29.6667 483.646 29.2917 484.062 28.875C484.562 28.4583 485.062 28.0833 485.562 27.75C486.062 27.3333 486.646 27.0417 487.312 26.875V25.5C488.812 24.8333 489.896 24.0833 490.562 23.25C491.312 22.3333 492.188 21.25 493.188 20C493.938 19.9167 494.521 19.875 494.938 19.875C495.438 19.875 496.146 19.7917 497.062 19.625C497.729 18.4583 498.312 17.5833 498.812 17C499.396 16.4167 500.229 15.7917 501.312 15.125C502.312 15.625 503.396 15.9583 504.562 16.125C505.812 16.2917 506.896 16.8333 507.812 17.75C507.896 18.5833 508.146 19.25 508.562 19.75C508.979 20.1667 509.438 20.5833 509.938 21C510.438 21.3333 510.896 21.7083 511.312 22.125C511.812 22.5417 512.146 23.125 512.312 23.875C512.646 23.9583 512.854 23.9167 512.938 23.75C513.104 23.5833 513.354 23.5417 513.688 23.625C513.938 24.7917 514.229 25.5833 514.562 26C514.896 26.3333 515.229 27.0417 515.562 28.125C515.146 28.9583 514.812 29.8333 514.562 30.75C514.396 31.5833 513.896 32.2083 513.062 32.625C512.979 33.2083 513.146 33.5417 513.562 33.625C513.979 33.625 514.229 33.8333 514.312 34.25C514.396 35 514.271 35.5417 513.938 35.875C515.938 39.125 517.729 42.5833 519.312 46.25C520.896 49.8333 522.688 53.25 524.688 56.5ZM509.062 68.375C509.396 67.4583 509.812 66.7083 510.312 66.125C510.896 65.5417 511.229 64.6667 511.312 63.5C510.896 62.8333 510.646 62.3333 510.562 62C510.479 61.5833 510.438 60.9583 510.438 60.125C508.604 57.5417 507.021 54.7917 505.688 51.875C504.354 48.875 502.854 46.0833 501.188 43.5C501.021 43.8333 500.729 44.1667 500.312 44.5C499.896 44.8333 499.438 44.75 498.938 44.25C498.771 44.9167 498.479 45.4167 498.062 45.75C497.646 46 497.188 46.125 496.688 46.125C496.188 46.0417 495.646 45.9167 495.062 45.75C494.562 45.5 494.104 45.2083 493.688 44.875C491.271 46.7917 488.854 48.6667 486.438 50.5C484.021 52.3333 481.854 54.4583 479.938 56.875C479.604 57.0417 479.396 57.125 479.312 57.125C479.229 57.0417 478.979 57.0833 478.562 57.25C477.896 58.8333 477.062 60.2917 476.062 61.625C475.146 62.875 474.229 64.1667 473.312 65.5C472.396 66.8333 471.604 68.25 470.938 69.75C470.271 71.25 469.896 73 469.812 75C471.229 76.1667 472.896 76.875 474.812 77.125C476.729 77.375 478.688 77.4167 480.688 77.25C482.771 77.0833 484.771 76.8333 486.688 76.5C488.688 76.0833 490.521 75.875 492.188 75.875C495.688 75.0417 498.688 73.9583 501.188 72.625C503.688 71.2083 506.312 69.7917 509.062 68.375ZM552.438 81C551.521 84.3333 550.688 86.875 549.938 88.625C549.271 90.2917 548.229 92.0417 546.812 93.875C545.729 93.7083 544.979 93.8333 544.562 94.25C544.146 94.6667 543.688 95.0417 543.188 95.375C542.438 95.5417 541.896 95.5417 541.562 95.375C541.229 95.2083 540.938 95 540.688 94.75C540.438 94.5833 540.104 94.375 539.688 94.125C539.354 93.9583 538.812 93.875 538.062 93.875C537.896 93.2083 537.688 92.5833 537.438 92C537.271 91.4167 536.729 91.2083 535.812 91.375C535.979 90.7083 536.021 90.1667 535.938 89.75C535.854 89.25 535.729 88.8333 535.562 88.5C535.479 88.0833 535.396 87.7083 535.312 87.375C535.229 86.9583 535.271 86.4583 535.438 85.875C535.021 85.875 534.688 85.5833 534.438 85C534.188 84.4167 533.896 83.8333 533.562 83.25C533.812 81.75 534.062 80.3333 534.312 79C534.562 77.6667 534.854 76.4167 535.188 75.25C535.604 74.0833 535.938 72.9167 536.188 71.75C536.438 70.5833 536.312 69.375 535.812 68.125C536.146 68.375 536.396 68.3333 536.562 68C536.729 67.5833 536.854 67.0833 536.938 66.5C537.021 65.8333 537.062 65.2083 537.062 64.625C537.062 63.9583 537.021 63.4167 536.938 63C537.771 60.8333 538.438 58.625 538.938 56.375C539.521 54.0417 540.021 51.75 540.438 49.5C540.938 47.25 541.438 45.0417 541.938 42.875C542.438 40.7083 543.104 38.7083 543.938 36.875C544.854 36.7083 545.854 36.8333 546.938 37.25C548.104 37.5833 548.812 38.0417 549.062 38.625C551.229 36.9583 553.146 34.9583 554.812 32.625C556.479 30.2083 558.188 27.875 559.938 25.625C561.688 23.375 563.604 21.375 565.688 19.625C567.854 17.875 570.562 16.8333 573.812 16.5C575.479 17.75 577.312 19.0417 579.312 20.375C581.396 21.625 583.104 23.2917 584.438 25.375C585.104 25.7083 585.646 26.0833 586.062 26.5C586.562 26.8333 587.146 27.2083 587.812 27.625V29.125C588.812 30.0417 589.604 31.125 590.188 32.375C590.854 33.5417 591.438 34.8333 591.938 36.25C592.438 37.5833 592.938 38.9583 593.438 40.375C593.938 41.7083 594.521 43 595.188 44.25C595.021 44.6667 594.938 45.0417 594.938 45.375C594.938 45.625 594.979 45.9167 595.062 46.25C595.229 46.5833 595.354 46.9167 595.438 47.25C595.521 47.5833 595.521 48.0417 595.438 48.625C595.188 52.2917 593.979 55.25 591.812 57.5C589.729 59.75 587.188 61.625 584.188 63.125C581.188 64.5417 577.979 65.75 574.562 66.75C571.146 67.75 568.062 68.8333 565.312 70C565.312 70.3333 565.438 70.5 565.688 70.5C566.021 70.5 566.146 70.7083 566.062 71.125C568.062 72.375 569.646 73.375 570.812 74.125C571.979 74.875 573.062 75.5 574.062 76C575.146 76.5 576.271 76.9583 577.438 77.375C578.688 77.7083 580.396 78.125 582.562 78.625C584.729 79.125 586.396 79.5417 587.562 79.875C588.812 80.125 589.938 80.375 590.938 80.625C591.938 80.7917 592.938 80.9583 593.938 81.125C595.021 81.2083 596.521 81.3333 598.438 81.5C599.188 82.25 599.812 83.1667 600.312 84.25C600.896 85.25 601.271 86.2917 601.438 87.375C601.604 88.375 601.646 89.375 601.562 90.375C601.479 91.2917 601.188 92.0417 600.688 92.625C600.771 92.875 600.938 93 601.188 93C601.521 92.9167 601.854 92.9167 602.188 93C601.688 93.3333 601.271 93.75 600.938 94.25C600.604 94.75 600.271 95.25 599.938 95.75C599.604 96.25 599.229 96.6667 598.812 97C598.396 97.4167 597.812 97.6667 597.062 97.75C594.479 98.75 591.229 98.7917 587.312 97.875C583.396 97.0417 578.438 95.4583 572.438 93.125C569.438 91.9583 566.979 90.9583 565.062 90.125C563.229 89.2083 561.604 88.3333 560.188 87.5C558.854 86.5833 557.604 85.625 556.438 84.625C555.354 83.625 554.021 82.4167 552.438 81ZM570.312 38.125C569.396 39.4583 568.354 40.6667 567.188 41.75C566.104 42.8333 565.021 43.9583 563.938 45.125C562.938 46.2083 562.021 47.4583 561.188 48.875C560.354 50.2083 559.771 51.7917 559.438 53.625C562.354 53.2917 565.396 52.5 568.562 51.25C571.729 49.9167 574.729 48.6667 577.562 47.5C577.229 44.9167 576.312 42.8333 574.812 41.25C573.396 39.6667 571.896 38.625 570.312 38.125ZM628.062 85.25C628.479 87.75 628.312 89.7083 627.562 91.125C626.896 92.5417 625.896 93.5833 624.562 94.25C623.312 95 621.854 95.4167 620.188 95.5C618.521 95.5833 616.938 95.5 615.438 95.25C614.604 94.0833 613.854 92.625 613.188 90.875C612.521 89.125 611.896 87.3333 611.312 85.5C610.729 83.5833 610.188 81.7083 609.688 79.875C609.271 78.0417 608.896 76.4167 608.562 75C608.979 74 609.229 72.875 609.312 71.625C609.479 70.2917 609.562 68.9583 609.562 67.625C609.646 66.2917 609.688 64.9583 609.688 63.625C609.771 62.2083 609.896 60.875 610.062 59.625C610.646 56.125 611.479 52.7917 612.562 49.625C613.729 46.4583 614.646 43.1667 615.312 39.75C615.479 39 615.396 38.2917 615.062 37.625C614.812 36.9583 614.771 36.3333 614.938 35.75C615.021 35.4167 615.271 35.2083 615.688 35.125C616.104 34.9583 616.354 34.6667 616.438 34.25C616.688 33.3333 616.729 32.5833 616.562 32C616.479 31.4167 616.646 30.7083 617.062 29.875C617.479 29.2083 617.979 28.25 618.562 27C619.229 25.6667 619.479 24.2917 619.312 22.875C620.062 22.375 620.771 21.7917 621.438 21.125C622.104 20.4583 622.771 19.875 623.438 19.375C624.188 18.7917 624.979 18.2917 625.812 17.875C626.729 17.4583 627.812 17.25 629.062 17.25C629.729 18.0833 630.146 19 630.312 20C630.562 21 630.771 22 630.938 23C631.188 24 631.521 24.9583 631.938 25.875C632.354 26.7083 633.062 27.375 634.062 27.875C634.062 28.5417 634.062 29.375 634.062 30.375C634.062 31.375 634.104 32.375 634.188 33.375C634.271 34.2917 634.438 35.1667 634.688 36C635.021 36.75 635.521 37.25 636.188 37.5C634.688 41.5 633.271 45.4583 631.938 49.375C630.688 53.2917 629.646 57.25 628.812 61.25C627.979 65.1667 627.438 69.125 627.188 73.125C627.021 77.125 627.312 81.1667 628.062 85.25ZM712.312 23.625C712.396 24.2083 712.396 24.6667 712.312 25C712.312 25.25 712.271 25.5 712.188 25.75C712.188 26 712.188 26.2917 712.188 26.625C712.188 26.875 712.271 27.2917 712.438 27.875C710.688 30.7083 708.646 32.6667 706.312 33.75C704.062 34.75 701.604 35.5 698.938 36C696.271 36.4167 693.521 36.875 690.688 37.375C687.938 37.875 685.188 38.9583 682.438 40.625C681.354 40.2083 680.354 40.2083 679.438 40.625C678.604 41.0417 677.354 41.1667 675.688 41C675.188 41.5 674.562 41.875 673.812 42.125C673.062 42.2917 672.312 42.5 671.562 42.75C671.896 43.5 672.021 44.2917 671.938 45.125C671.938 45.875 672.062 46.5 672.312 47C675.229 47.25 678.438 47.2083 681.938 46.875C685.521 46.5417 689.021 46.3333 692.438 46.25C692.521 46.6667 692.479 46.9583 692.312 47.125C692.146 47.2083 692.104 47.4167 692.188 47.75C692.771 48.1667 693.354 48.7083 693.938 49.375C694.521 49.9583 695.104 50.5417 695.688 51.125C696.271 51.7083 696.854 52.2083 697.438 52.625C698.104 52.9583 698.854 53.0833 699.688 53C700.021 53.6667 700.229 54.4167 700.312 55.25C700.479 56 700.396 56.7917 700.062 57.625C698.729 58.5417 697.396 59.5 696.062 60.5C694.729 61.4167 693.312 62.25 691.812 63C690.396 63.75 688.854 64.375 687.188 64.875C685.604 65.2917 683.812 65.4583 681.812 65.375C681.396 65.375 681.062 65.375 680.812 65.375C680.646 65.375 680.396 65.25 680.062 65C679.396 65.4167 678.438 65.5417 677.188 65.375C676.021 65.2083 675.104 65.3333 674.438 65.75C673.521 65.3333 672.396 65.1667 671.062 65.25C669.812 65.25 668.688 65.0833 667.688 64.75C666.354 66.5 665.146 68.375 664.062 70.375C662.979 72.375 662.021 74.5 661.188 76.75C664.021 77.1667 666.354 77.3333 668.188 77.25C670.104 77.1667 671.896 77.0417 673.562 76.875C675.229 76.625 676.938 76.4167 678.688 76.25C680.438 76 682.646 75.9167 685.312 76C686.979 75.0833 688.938 74.5 691.188 74.25C693.521 73.9167 695.646 73.4167 697.562 72.75C698.229 73 698.812 73.4583 699.312 74.125C699.812 74.7083 700.271 75.2917 700.688 75.875C701.188 76.375 701.688 76.8333 702.188 77.25C702.688 77.6667 703.312 77.8333 704.062 77.75C704.396 78.0833 704.604 78.5 704.688 79C704.854 79.4167 704.979 79.8333 705.062 80.25C705.146 80.6667 705.271 81.0417 705.438 81.375C705.688 81.625 706.062 81.7083 706.562 81.625C705.312 84.375 703.854 86.5 702.188 88C700.604 89.4167 698.771 90.5 696.688 91.25C694.604 92 692.271 92.5833 689.688 93C687.188 93.4167 684.396 93.9167 681.312 94.5C680.562 94.6667 679.938 94.625 679.438 94.375C678.938 94.2083 678.354 94.125 677.688 94.125C675.771 94.5417 673.479 94.9167 670.812 95.25C668.146 95.5833 665.438 95.7083 662.688 95.625C659.938 95.5417 657.312 95.1667 654.812 94.5C652.312 93.9167 650.271 92.8333 648.688 91.25C648.021 90.6667 647.562 90 647.312 89.25C647.146 88.4167 646.604 87.7917 645.688 87.375C645.604 86.2917 645.438 85.0833 645.188 83.75C644.938 82.4167 644.688 81.0417 644.438 79.625C644.188 78.125 643.979 76.6667 643.812 75.25C643.729 73.8333 643.812 72.5417 644.062 71.375C644.312 70.125 644.812 69 645.562 68C646.396 67 646.688 65.9167 646.438 64.75C646.854 64.6667 647.104 64.4583 647.188 64.125C647.271 63.7083 647.604 63.5417 648.188 63.625C648.688 62.125 649.229 60.7083 649.812 59.375C650.396 58.0417 650.979 56.75 651.562 55.5C652.229 54.25 652.854 53 653.438 51.75C654.104 50.4167 654.729 48.9583 655.312 47.375C654.146 46.2917 653.271 45.125 652.688 43.875C652.188 42.5417 651.812 41.25 651.562 40C651.312 38.6667 651.104 37.3333 650.938 36C650.771 34.5833 650.479 33.1667 650.062 31.75C650.896 30.5 651.896 29.5 653.062 28.75C654.312 27.9167 655.646 27.25 657.062 26.75C658.479 26.25 660.021 25.8333 661.688 25.5C663.354 25.1667 665.104 24.7917 666.938 24.375C670.271 23.2917 673.229 22.4583 675.812 21.875C678.479 21.2917 681.062 20.8333 683.562 20.5C686.146 20.0833 688.812 19.7083 691.562 19.375C694.312 19.0417 697.438 18.5417 700.938 17.875C701.688 18.625 702.396 19 703.062 19C703.396 18.25 703.771 18.0417 704.188 18.375C704.688 18.625 704.896 18.375 704.812 17.625C705.646 19.0417 706.688 20.25 707.938 21.25C709.271 22.1667 710.729 22.9583 712.312 23.625ZM711.312 37.75C711.896 36 712.812 34.5 714.062 33.25C715.396 32 716.812 30.9583 718.312 30.125C719.896 29.2083 721.521 28.4583 723.188 27.875C724.854 27.2917 726.438 26.7917 727.938 26.375C731.271 24.9583 734.812 23.625 738.562 22.375C742.396 21.0417 746.271 19.875 750.188 18.875C754.188 17.875 758.271 17.25 762.438 17C766.604 16.6667 770.979 17.1667 775.562 18.5C775.812 19.3333 776.188 20.125 776.688 20.875C777.188 21.625 777.688 22.375 778.188 23.125C778.771 23.875 779.271 24.625 779.688 25.375C780.104 26.0417 780.354 26.75 780.438 27.5C781.271 28.25 781.938 29.0833 782.438 30C782.938 30.8333 783.021 31.9583 782.688 33.375C781.854 34.0417 781.021 34.6667 780.188 35.25C779.438 35.75 778.604 36.2083 777.688 36.625C774.604 35.875 771.479 35.625 768.312 35.875C765.146 36.125 762.312 36.3333 759.812 36.5C759.062 35.75 758.146 35.375 757.062 35.375C756.062 35.375 754.979 35.5417 753.812 35.875C752.729 36.2083 751.604 36.5417 750.438 36.875C749.354 37.2083 748.312 37.2917 747.312 37.125C746.479 37.7917 745.438 38.25 744.188 38.5C743.021 38.6667 741.729 38.8333 740.312 39C740.229 39.4167 740.312 39.7083 740.562 39.875C740.812 39.9583 740.854 40.2083 740.688 40.625C741.188 41.2083 741.812 41.625 742.562 41.875C743.396 42.125 744.229 42.375 745.062 42.625C745.979 42.875 746.771 43.2083 747.438 43.625C748.104 43.9583 748.562 44.5417 748.812 45.375C750.062 45.375 751.146 45.6667 752.062 46.25C752.979 46.8333 753.729 47.5417 754.312 48.375C754.896 49.2083 755.312 50.125 755.562 51.125C755.896 52.0417 756.062 52.875 756.062 53.625C756.312 54.2917 756.604 54.5833 756.938 54.5C757.271 54.4167 757.646 54.5833 758.062 55C758.312 56.0833 758.938 57.2083 759.938 58.375C760.938 59.4583 761.729 60.6667 762.312 62C762.479 64.0833 762.604 65.9583 762.688 67.625C762.771 69.2083 762.479 70.8333 761.812 72.5C760.562 75.5833 758.812 78.3333 756.562 80.75C754.396 83.1667 751.896 85.3333 749.062 87.25C746.312 89.0833 743.354 90.6667 740.188 92C737.021 93.3333 733.938 94.4583 730.938 95.375C730.604 95.2917 730.271 95.2917 729.938 95.375C729.604 95.4583 729.521 95.25 729.688 94.75C729.021 95.3333 728.271 95.7083 727.438 95.875C726.688 96.0417 725.854 96.0833 724.938 96C724.021 96 723.062 95.9583 722.062 95.875C721.146 95.7917 720.271 95.8333 719.438 96C718.854 95.4167 718.312 94.8333 717.812 94.25C717.396 93.75 717.062 93.0833 716.812 92.25C716.396 92.25 716.188 92.0417 716.188 91.625C716.271 91.2083 716.146 91 715.812 91C716.312 90.1667 716.521 89.7083 716.438 89.625C716.438 89.4583 716.312 89.3333 716.062 89.25C715.896 89.1667 715.729 89.0833 715.562 89C715.396 88.8333 715.354 88.625 715.438 88.375C715.771 87.7083 715.896 86.9583 715.812 86.125C715.729 85.2083 715.646 84.2917 715.562 83.375C715.479 82.4583 715.521 81.5833 715.688 80.75C715.938 79.9167 716.562 79.25 717.562 78.75C720.396 79.0833 723.062 79 725.562 78.5C728.146 77.9167 730.562 77.125 732.812 76.125C735.062 75.125 737.188 74.0417 739.188 72.875C741.271 71.7083 743.312 70.6667 745.312 69.75C745.562 69 745.896 68.375 746.312 67.875C746.812 67.375 747.312 66.9167 747.812 66.5C748.312 66.0833 748.771 65.625 749.188 65.125C749.604 64.625 749.896 64 750.062 63.25C750.146 62.6667 749.979 62.3333 749.562 62.25C749.229 62.0833 749.062 61.75 749.062 61.25L747.688 60.875C746.104 59.9583 744.312 59.2083 742.312 58.625C740.312 57.9583 738.604 57.25 737.188 56.5C736.271 57 735.396 57.125 734.562 56.875C733.812 56.625 732.812 56.375 731.562 56.125C728.729 55.9583 725.979 55.6667 723.312 55.25C720.729 54.8333 718.229 54.0833 715.812 53C715.646 52.5833 715.438 52.2083 715.188 51.875C714.938 51.5417 714.479 51.4583 713.812 51.625C713.312 50.9583 712.812 50.3333 712.312 49.75C711.812 49.0833 711.354 48.375 710.938 47.625C711.104 46.625 711.229 45.7917 711.312 45.125C711.396 44.375 711.146 43.6667 710.562 43C710.896 41.9167 711.146 41.0417 711.312 40.375C711.479 39.7083 711.479 38.8333 711.312 37.75Z" fill="#1FB2A6"/>
</svg>
