<svg width="1250" height="287" viewBox="0 0 1250 287" fill="none" xmlns="http://www.w3.org/2000/svg">
<path d="M316.938 47C316.521 44.6667 316.396 42.25 316.562 39.75C316.729 37.25 316.812 34.8333 316.812 32.5C316.812 30.25 316.646 27.875 316.312 25.375C316.062 22.7917 315.812 20.3333 315.562 18C315.396 15.6667 315.312 13.5417 315.312 11.625C315.396 9.625 315.688 8.08333 316.188 7C316.854 5.75 317.688 4.79167 318.688 4.125C319.688 3.375 320.646 2.54167 321.562 1.625C322.646 1.79167 323.604 2.125 324.438 2.625C325.354 3.04167 326.104 3.625 326.688 4.375C327.354 5.04167 327.812 5.75 328.062 6.5C328.396 7.25 328.479 8 328.312 8.75C330.396 10 332.062 11.7083 333.312 13.875C334.646 15.9583 335.646 18.2917 336.312 20.875C337.062 23.375 337.562 26.0417 337.812 28.875C338.146 31.7083 338.396 34.5 338.562 37.25C338.812 40 339.021 42.625 339.188 45.125C339.438 47.5417 339.854 49.6667 340.438 51.5C344.104 46.1667 347.188 41.4583 349.688 37.375C352.271 33.2083 354.854 29.25 357.438 25.5C360.021 21.6667 362.896 17.7917 366.062 13.875C369.312 9.95833 373.438 5.54167 378.438 0.625C379.521 0.791667 380.354 1 380.938 1.25C381.521 1.5 382.104 1.75 382.688 2C383.271 2.25 383.896 2.45833 384.562 2.625C385.229 2.70833 386.146 2.66667 387.312 2.5C387.729 3.5 388.021 4.25 388.188 4.75C388.438 5.16667 388.646 5.58333 388.812 6C388.979 6.41667 389.188 6.95833 389.438 7.625C389.688 8.29167 390.062 9.29167 390.562 10.625C390.812 10.9583 390.896 11.4167 390.812 12C390.812 12.5 390.771 12.9583 390.688 13.375C390.604 13.7917 390.562 14.125 390.562 14.375C390.646 14.625 390.938 14.625 391.438 14.375C391.104 15.7917 390.562 17.0833 389.812 18.25C389.062 19.3333 388.729 20.6667 388.812 22.25C386.562 25.25 384.062 28.3333 381.312 31.5C378.562 34.6667 375.812 38 373.062 41.5C370.312 44.9167 367.646 48.5 365.062 52.25C362.562 55.9167 360.438 59.8333 358.688 64C358.188 64 357.812 64.125 357.562 64.375C357.312 64.625 357.062 64.9167 356.812 65.25C356.646 65.5833 356.438 65.9167 356.188 66.25C356.021 66.5833 355.688 66.75 355.188 66.75C355.021 69.4167 354.021 71.9583 352.188 74.375C350.438 76.7083 348.646 78.7083 346.812 80.375C346.979 81.0417 347.062 81.5833 347.062 82C347.062 82.4167 347.021 82.8333 346.938 83.25C346.854 83.6667 346.771 84.125 346.688 84.625C346.688 85.0417 346.729 85.5833 346.812 86.25C346.062 88.25 345.062 89.9167 343.812 91.25C342.646 92.5833 341.354 93.5833 339.938 94.25C338.521 94.9167 337.062 95.1667 335.562 95C334.062 94.9167 332.646 94.4167 331.312 93.5C330.729 93.1667 330.229 92.7083 329.812 92.125C329.396 91.5417 328.938 91 328.438 90.5C328.021 89.9167 327.562 89.4167 327.062 89C326.646 88.5 326.104 88.1667 325.438 88C325.604 87.1667 325.604 86.2917 325.438 85.375C325.354 84.4583 325.188 83.625 324.938 82.875C324.688 82.125 324.396 81.5 324.062 81C323.729 80.5 323.396 80.25 323.062 80.25C322.729 78.1667 322.271 75.9167 321.688 73.5C321.188 71 320.646 68.5417 320.062 66.125C319.562 63.7083 319.146 61.3333 318.812 59C318.479 56.6667 318.354 54.5 318.438 52.5C318.521 51.5 318.312 50.625 317.812 49.875C317.396 49.0417 317.104 48.0833 316.938 47ZM408.312 85.25C408.729 87.75 408.562 89.7083 407.812 91.125C407.146 92.5417 406.146 93.5833 404.812 94.25C403.562 95 402.104 95.4167 400.438 95.5C398.771 95.5833 397.188 95.5 395.688 95.25C394.854 94.0833 394.104 92.625 393.438 90.875C392.771 89.125 392.146 87.3333 391.562 85.5C390.979 83.5833 390.438 81.7083 389.938 79.875C389.521 78.0417 389.146 76.4167 388.812 75C389.229 74 389.479 72.875 389.562 71.625C389.729 70.2917 389.812 68.9583 389.812 67.625C389.896 66.2917 389.938 64.9583 389.938 63.625C390.021 62.2083 390.146 60.875 390.312 59.625C390.896 56.125 391.729 52.7917 392.812 49.625C393.979 46.4583 394.896 43.1667 395.562 39.75C395.729 39 395.646 38.2917 395.312 37.625C395.062 36.9583 395.021 36.3333 395.188 35.75C395.271 35.4167 395.521 35.2083 395.938 35.125C396.354 34.9583 396.604 34.6667 396.688 34.25C396.938 33.3333 396.979 32.5833 396.812 32C396.729 31.4167 396.896 30.7083 397.312 29.875C397.729 29.2083 398.229 28.25 398.812 27C399.479 25.6667 399.729 24.2917 399.562 22.875C400.312 22.375 401.021 21.7917 401.688 21.125C402.354 20.4583 403.021 19.875 403.688 19.375C404.438 18.7917 405.229 18.2917 406.062 17.875C406.979 17.4583 408.062 17.25 409.312 17.25C409.979 18.0833 410.396 19 410.562 20C410.812 21 411.021 22 411.188 23C411.438 24 411.771 24.9583 412.188 25.875C412.604 26.7083 413.312 27.375 414.312 27.875C414.312 28.5417 414.312 29.375 414.312 30.375C414.312 31.375 414.354 32.375 414.438 33.375C414.521 34.2917 414.688 35.1667 414.938 36C415.271 36.75 415.771 37.25 416.438 37.5C414.938 41.5 413.521 45.4583 412.188 49.375C410.938 53.2917 409.896 57.25 409.062 61.25C408.229 65.1667 407.688 69.125 407.438 73.125C407.271 77.125 407.562 81.1667 408.312 85.25ZM424.812 37.75C425.396 36 426.312 34.5 427.562 33.25C428.896 32 430.312 30.9583 431.812 30.125C433.396 29.2083 435.021 28.4583 436.688 27.875C438.354 27.2917 439.938 26.7917 441.438 26.375C444.771 24.9583 448.312 23.625 452.062 22.375C455.896 21.0417 459.771 19.875 463.688 18.875C467.688 17.875 471.771 17.25 475.938 17C480.104 16.6667 484.479 17.1667 489.062 18.5C489.312 19.3333 489.688 20.125 490.188 20.875C490.688 21.625 491.188 22.375 491.688 23.125C492.271 23.875 492.771 24.625 493.188 25.375C493.604 26.0417 493.854 26.75 493.938 27.5C494.771 28.25 495.438 29.0833 495.938 30C496.438 30.8333 496.521 31.9583 496.188 33.375C495.354 34.0417 494.521 34.6667 493.688 35.25C492.938 35.75 492.104 36.2083 491.188 36.625C488.104 35.875 484.979 35.625 481.812 35.875C478.646 36.125 475.812 36.3333 473.312 36.5C472.562 35.75 471.646 35.375 470.562 35.375C469.562 35.375 468.479 35.5417 467.312 35.875C466.229 36.2083 465.104 36.5417 463.938 36.875C462.854 37.2083 461.812 37.2917 460.812 37.125C459.979 37.7917 458.938 38.25 457.688 38.5C456.521 38.6667 455.229 38.8333 453.812 39C453.729 39.4167 453.812 39.7083 454.062 39.875C454.312 39.9583 454.354 40.2083 454.188 40.625C454.688 41.2083 455.312 41.625 456.062 41.875C456.896 42.125 457.729 42.375 458.562 42.625C459.479 42.875 460.271 43.2083 460.938 43.625C461.604 43.9583 462.062 44.5417 462.312 45.375C463.562 45.375 464.646 45.6667 465.562 46.25C466.479 46.8333 467.229 47.5417 467.812 48.375C468.396 49.2083 468.812 50.125 469.062 51.125C469.396 52.0417 469.562 52.875 469.562 53.625C469.812 54.2917 470.104 54.5833 470.438 54.5C470.771 54.4167 471.146 54.5833 471.562 55C471.812 56.0833 472.438 57.2083 473.438 58.375C474.438 59.4583 475.229 60.6667 475.812 62C475.979 64.0833 476.104 65.9583 476.188 67.625C476.271 69.2083 475.979 70.8333 475.312 72.5C474.062 75.5833 472.312 78.3333 470.062 80.75C467.896 83.1667 465.396 85.3333 462.562 87.25C459.812 89.0833 456.854 90.6667 453.688 92C450.521 93.3333 447.438 94.4583 444.438 95.375C444.104 95.2917 443.771 95.2917 443.438 95.375C443.104 95.4583 443.021 95.25 443.188 94.75C442.521 95.3333 441.771 95.7083 440.938 95.875C440.188 96.0417 439.354 96.0833 438.438 96C437.521 96 436.562 95.9583 435.562 95.875C434.646 95.7917 433.771 95.8333 432.938 96C432.354 95.4167 431.812 94.8333 431.312 94.25C430.896 93.75 430.562 93.0833 430.312 92.25C429.896 92.25 429.688 92.0417 429.688 91.625C429.771 91.2083 429.646 91 429.312 91C429.812 90.1667 430.021 89.7083 429.938 89.625C429.938 89.4583 429.812 89.3333 429.562 89.25C429.396 89.1667 429.229 89.0833 429.062 89C428.896 88.8333 428.854 88.625 428.938 88.375C429.271 87.7083 429.396 86.9583 429.312 86.125C429.229 85.2083 429.146 84.2917 429.062 83.375C428.979 82.4583 429.021 81.5833 429.188 80.75C429.438 79.9167 430.062 79.25 431.062 78.75C433.896 79.0833 436.562 79 439.062 78.5C441.646 77.9167 444.062 77.125 446.312 76.125C448.562 75.125 450.688 74.0417 452.688 72.875C454.771 71.7083 456.812 70.6667 458.812 69.75C459.062 69 459.396 68.375 459.812 67.875C460.312 67.375 460.812 66.9167 461.312 66.5C461.812 66.0833 462.271 65.625 462.688 65.125C463.104 64.625 463.396 64 463.562 63.25C463.646 62.6667 463.479 62.3333 463.062 62.25C462.729 62.0833 462.562 61.75 462.562 61.25L461.188 60.875C459.604 59.9583 457.812 59.2083 455.812 58.625C453.812 57.9583 452.104 57.25 450.688 56.5C449.771 57 448.896 57.125 448.062 56.875C447.312 56.625 446.312 56.375 445.062 56.125C442.229 55.9583 439.479 55.6667 436.812 55.25C434.229 54.8333 431.729 54.0833 429.312 53C429.146 52.5833 428.938 52.2083 428.688 51.875C428.438 51.5417 427.979 51.4583 427.312 51.625C426.812 50.9583 426.312 50.3333 425.812 49.75C425.312 49.0833 424.854 48.375 424.438 47.625C424.604 46.625 424.729 45.7917 424.812 45.125C424.896 44.375 424.646 43.6667 424.062 43C424.396 41.9167 424.646 41.0417 424.812 40.375C424.979 39.7083 424.979 38.8333 424.812 37.75ZM508.688 85.25C509.104 87.75 508.938 89.7083 508.188 91.125C507.521 92.5417 506.521 93.5833 505.188 94.25C503.938 95 502.479 95.4167 500.812 95.5C499.146 95.5833 497.562 95.5 496.062 95.25C495.229 94.0833 494.479 92.625 493.812 90.875C493.146 89.125 492.521 87.3333 491.938 85.5C491.354 83.5833 490.812 81.7083 490.312 79.875C489.896 78.0417 489.521 76.4167 489.188 75C489.604 74 489.854 72.875 489.938 71.625C490.104 70.2917 490.188 68.9583 490.188 67.625C490.271 66.2917 490.312 64.9583 490.312 63.625C490.396 62.2083 490.521 60.875 490.688 59.625C491.271 56.125 492.104 52.7917 493.188 49.625C494.354 46.4583 495.271 43.1667 495.938 39.75C496.104 39 496.021 38.2917 495.688 37.625C495.438 36.9583 495.396 36.3333 495.562 35.75C495.646 35.4167 495.896 35.2083 496.312 35.125C496.729 34.9583 496.979 34.6667 497.062 34.25C497.312 33.3333 497.354 32.5833 497.188 32C497.104 31.4167 497.271 30.7083 497.688 29.875C498.104 29.2083 498.604 28.25 499.188 27C499.854 25.6667 500.104 24.2917 499.938 22.875C500.688 22.375 501.396 21.7917 502.062 21.125C502.729 20.4583 503.396 19.875 504.062 19.375C504.812 18.7917 505.604 18.2917 506.438 17.875C507.354 17.4583 508.438 17.25 509.688 17.25C510.354 18.0833 510.771 19 510.938 20C511.188 21 511.396 22 511.562 23C511.812 24 512.146 24.9583 512.562 25.875C512.979 26.7083 513.688 27.375 514.688 27.875C514.688 28.5417 514.688 29.375 514.688 30.375C514.688 31.375 514.729 32.375 514.812 33.375C514.896 34.2917 515.062 35.1667 515.312 36C515.646 36.75 516.146 37.25 516.812 37.5C515.312 41.5 513.896 45.4583 512.562 49.375C511.312 53.2917 510.271 57.25 509.438 61.25C508.604 65.1667 508.062 69.125 507.812 73.125C507.646 77.125 507.938 81.1667 508.688 85.25ZM594.312 33.875C592.229 33.875 589.979 34.0417 587.562 34.375C585.146 34.625 582.771 34.9167 580.438 35.25C578.771 35.5 577.146 35.7083 575.562 35.875C574.062 36.0417 572.688 36.1667 571.438 36.25C570.854 38.0833 570.271 39.7083 569.688 41.125C569.104 42.5417 568.479 43.9167 567.812 45.25C567.146 46.6667 566.521 48.125 565.938 49.625C565.438 51.0417 564.938 52.5833 564.438 54.25C563.604 55.5833 562.896 56.8333 562.312 58C561.812 59.0833 561.396 60.3333 561.062 61.75C560.062 63 559.312 64.3333 558.812 65.75C558.312 67.0833 557.938 68.25 557.688 69.25L557.188 70.75C556.688 71.25 556.396 71.6667 556.312 72C556.229 72.25 556.021 72.5 555.688 72.75C555.604 73.6667 555.312 74.5833 554.812 75.5C554.646 75.9167 554.521 76.3333 554.438 76.75C554.354 77.0833 554.312 77.3333 554.312 77.5C554.312 78.3333 554.104 78.875 553.688 79.125C553.771 79.5417 553.771 80 553.688 80.5C553.604 80.9167 553.521 81.3333 553.438 81.75C553.188 82.75 553.104 83.5417 553.188 84.125C553.438 84.4583 553.646 84.75 553.812 85C554.062 85.25 554.229 85.5833 554.312 86C554.812 86.3333 555.188 86.5417 555.438 86.625C555.771 86.875 556.271 87.1667 556.938 87.5L558.062 88.75C558.479 91.1667 558.104 93.0833 556.938 94.5C555.688 96.0833 553.562 96.875 550.562 96.875H549.062C548.646 96.4583 548.396 96.125 548.312 95.875C547.646 95.625 547.104 95.4167 546.688 95.25C546.271 95.0833 545.896 94.75 545.562 94.25C544.479 93.75 543.604 93.3333 542.938 93L541.812 92.375C541.812 91.4583 541.812 90.9583 541.812 90.875C541.229 90.125 540.771 89.2917 540.438 88.375C540.188 87.4583 539.979 86.5417 539.812 85.625C539.646 84.875 539.438 84.1667 539.188 83.5C539.021 82.8333 538.771 82.25 538.438 81.75C538.271 76.9167 538.729 72.8333 539.812 69.5C540.896 66.1667 542.021 62.9583 543.188 59.875C543.854 58.2083 544.521 56.5417 545.188 54.875C545.854 53.125 546.438 51.3333 546.938 49.5L548.062 48.25C548.646 46.9167 549.104 45.8333 549.438 45C549.854 44.0833 550.271 43.1667 550.688 42.25C550.938 41.6667 551.146 41.125 551.312 40.625C551.562 40.0417 551.771 39.5417 551.938 39.125C551.438 39.125 550.979 39.1667 550.562 39.25C550.146 39.25 549.729 39.2917 549.312 39.375C548.812 39.4583 548.354 39.5417 547.938 39.625C547.521 39.625 547.104 39.625 546.688 39.625C546.104 39.625 545.688 39.5833 545.438 39.5C544.521 39.9167 543.521 40.125 542.438 40.125H541.188C540.938 40.125 540.688 40.125 540.438 40.125C540.271 40.0417 540.104 40 539.938 40C539.104 40 538.438 40.125 537.938 40.375C536.938 40.375 535.979 40.375 535.062 40.375H533.812C533.646 40.375 533.438 40.4167 533.188 40.5C532.938 40.5 532.729 40.5 532.562 40.5C531.979 40.5 531.354 40.4583 530.688 40.375C530.021 40.2083 529.312 39.9167 528.562 39.5C527.562 38.1667 526.896 37.4583 526.562 37.375L525.438 35.875C525.354 35.375 525.229 34.9167 525.062 34.5C524.896 34 524.729 33.4583 524.562 32.875C524.229 32.0417 523.896 31.1667 523.562 30.25C523.312 29.25 523.188 28.0833 523.188 26.75C523.271 26.0833 523.438 25.5833 523.688 25.25C523.938 24.9167 524.146 24.625 524.312 24.375L524.688 22.5L526.312 22.625H529.812C532.479 22.625 535.188 22.5417 537.938 22.375C540.688 22.125 543.521 21.875 546.438 21.625C548.104 21.4583 549.771 21.2917 551.438 21.125C553.188 20.9583 554.979 20.7917 556.812 20.625C557.146 19.875 557.479 19.1667 557.812 18.5L559.062 17.875C560.562 17.7917 561.604 18 562.188 18.5C562.854 18.9167 563.396 19.3333 563.812 19.75C565.646 19.5833 567.479 19.4167 569.312 19.25C571.229 19 573.146 18.7083 575.062 18.375C577.896 17.9583 580.729 17.5833 583.562 17.25C586.479 16.9167 589.271 16.75 591.938 16.75C593.104 16.75 594.229 16.7917 595.312 16.875C596.396 16.9583 597.396 17.0833 598.312 17.25L599.562 18.125C599.812 18.625 600.146 19.0833 600.562 19.5C601.062 19.9167 601.562 20.3333 602.062 20.75C603.062 21.6667 604.062 22.75 605.062 24C606.062 25.25 606.438 27.0833 606.188 29.5C605.521 30.5 605.021 31.0833 604.688 31.25L603.562 32.75L602.312 32.625C601.812 32.625 601.354 32.7083 600.938 32.875C600.521 32.9583 600.104 33.0833 599.688 33.25C599.354 33.4167 599.021 33.5833 598.688 33.75C598.354 33.8333 597.979 33.9167 597.562 34C596.812 34 596.188 34 595.688 34C595.271 33.9167 594.812 33.875 594.312 33.875ZM705.688 22.875C705.854 24.7083 706.146 26.2917 706.562 27.625C706.979 28.9583 707.438 30.25 707.938 31.5C708.354 32.6667 708.729 33.8333 709.062 35C709.479 36.0833 709.771 37.4167 709.938 39C709.271 41.1667 708.771 43.1667 708.438 45C708.188 46.8333 707.896 48.75 707.562 50.75C706.229 53.6667 704.938 56.25 703.688 58.5C702.438 60.75 701.438 62.7083 700.688 64.375C700.271 64.7917 699.896 65.2917 699.562 65.875C699.312 66.375 699.021 66.9167 698.688 67.5C698.521 67.75 698.312 68.125 698.062 68.625C697.812 69.125 697.604 69.4583 697.438 69.625L694.938 68.75L694.438 71.875L692.688 72.375L691.438 73.875C689.854 76.625 688.188 78.9583 686.438 80.875C684.688 82.7083 682.688 84.375 680.438 85.875C678.271 87.2917 675.771 88.625 672.938 89.875C670.188 91.125 667.062 92.5 663.562 94C662.146 93.8333 660.896 93.75 659.812 93.75C658.812 93.6667 657.854 93.5833 656.938 93.5C655.354 93.5 653.396 93.375 651.062 93.125C650.812 92.4583 650.438 92 649.938 91.75C649.438 91.5 648.979 91.375 648.562 91.375C647.146 90.7083 646.062 89.75 645.312 88.5C644.646 87.1667 643.979 85.75 643.312 84.25C642.896 83.3333 642.479 82.5 642.062 81.75C641.646 80.9167 641.188 80.0833 640.688 79.25L642.812 78.625L640.062 75.625C639.896 75.375 639.688 75.1667 639.438 75C639.188 74.75 638.979 74.5 638.812 74.25L638.688 72.25C638.438 66.5 638.312 61.25 638.312 56.5C638.396 51.6667 639.062 47.375 640.312 43.625V42.25C640.562 40.4167 640.812 38.9167 641.062 37.75C641.312 36.5 641.521 35.3333 641.688 34.25C641.938 32.4167 642.312 30.7083 642.812 29.125C643.979 28.875 644.854 28.4167 645.438 27.75C646.021 27 646.521 26.3333 646.938 25.75C648.104 25.6667 648.896 25.8333 649.312 26.25C649.729 26.6667 650.146 27.3333 650.562 28.25C650.979 29 651.479 29.8333 652.062 30.75C652.729 31.6667 653.688 32.375 654.938 32.875C655.104 33.5417 655.312 34.25 655.562 35C655.896 35.6667 656.229 36.4167 656.562 37.25C657.229 38.6667 657.812 40.1667 658.312 41.75C658.896 43.25 659.229 44.7083 659.312 46.125C658.479 47.7083 657.812 49.5417 657.312 51.625C656.896 53.7083 656.604 55.8333 656.438 58C656.354 60.0833 656.396 62.125 656.562 64.125C656.812 66.0417 657.188 67.6667 657.688 69L658.438 70.625L660.562 70.375C663.062 69.7083 665.312 69 667.312 68.25C669.396 67.4167 671.312 66.4583 673.062 65.375C674.812 64.2917 676.479 63.0417 678.062 61.625C679.646 60.125 681.312 58.4167 683.062 56.5C684.812 54.5833 686.312 52.4167 687.562 50C688.896 47.5 689.979 44.9167 690.812 42.25C691.729 39.5833 692.396 36.9583 692.812 34.375C693.312 31.7083 693.646 29.2083 693.812 26.875C695.229 26.375 695.938 25.375 695.938 23.875L695.688 22.5C695.354 22 695.354 21.4167 695.688 20.75C696.188 19.1667 697.354 17.9583 699.188 17.125C700.521 17.9583 701.688 18.875 702.688 19.875C703.771 20.875 704.771 21.875 705.688 22.875ZM708.812 37.75C709.396 36 710.312 34.5 711.562 33.25C712.896 32 714.312 30.9583 715.812 30.125C717.396 29.2083 719.021 28.4583 720.688 27.875C722.354 27.2917 723.938 26.7917 725.438 26.375C728.771 24.9583 732.312 23.625 736.062 22.375C739.896 21.0417 743.771 19.875 747.688 18.875C751.688 17.875 755.771 17.25 759.938 17C764.104 16.6667 768.479 17.1667 773.062 18.5C773.312 19.3333 773.688 20.125 774.188 20.875C774.688 21.625 775.188 22.375 775.688 23.125C776.271 23.875 776.771 24.625 777.188 25.375C777.604 26.0417 777.854 26.75 777.938 27.5C778.771 28.25 779.438 29.0833 779.938 30C780.438 30.8333 780.521 31.9583 780.188 33.375C779.354 34.0417 778.521 34.6667 777.688 35.25C776.938 35.75 776.104 36.2083 775.188 36.625C772.104 35.875 768.979 35.625 765.812 35.875C762.646 36.125 759.812 36.3333 757.312 36.5C756.562 35.75 755.646 35.375 754.562 35.375C753.562 35.375 752.479 35.5417 751.312 35.875C750.229 36.2083 749.104 36.5417 747.938 36.875C746.854 37.2083 745.812 37.2917 744.812 37.125C743.979 37.7917 742.938 38.25 741.688 38.5C740.521 38.6667 739.229 38.8333 737.812 39C737.729 39.4167 737.812 39.7083 738.062 39.875C738.312 39.9583 738.354 40.2083 738.188 40.625C738.688 41.2083 739.312 41.625 740.062 41.875C740.896 42.125 741.729 42.375 742.562 42.625C743.479 42.875 744.271 43.2083 744.938 43.625C745.604 43.9583 746.062 44.5417 746.312 45.375C747.562 45.375 748.646 45.6667 749.562 46.25C750.479 46.8333 751.229 47.5417 751.812 48.375C752.396 49.2083 752.812 50.125 753.062 51.125C753.396 52.0417 753.562 52.875 753.562 53.625C753.812 54.2917 754.104 54.5833 754.438 54.5C754.771 54.4167 755.146 54.5833 755.562 55C755.812 56.0833 756.438 57.2083 757.438 58.375C758.438 59.4583 759.229 60.6667 759.812 62C759.979 64.0833 760.104 65.9583 760.188 67.625C760.271 69.2083 759.979 70.8333 759.312 72.5C758.062 75.5833 756.312 78.3333 754.062 80.75C751.896 83.1667 749.396 85.3333 746.562 87.25C743.812 89.0833 740.854 90.6667 737.688 92C734.521 93.3333 731.438 94.4583 728.438 95.375C728.104 95.2917 727.771 95.2917 727.438 95.375C727.104 95.4583 727.021 95.25 727.188 94.75C726.521 95.3333 725.771 95.7083 724.938 95.875C724.188 96.0417 723.354 96.0833 722.438 96C721.521 96 720.562 95.9583 719.562 95.875C718.646 95.7917 717.771 95.8333 716.938 96C716.354 95.4167 715.812 94.8333 715.312 94.25C714.896 93.75 714.562 93.0833 714.312 92.25C713.896 92.25 713.688 92.0417 713.688 91.625C713.771 91.2083 713.646 91 713.312 91C713.812 90.1667 714.021 89.7083 713.938 89.625C713.938 89.4583 713.812 89.3333 713.562 89.25C713.396 89.1667 713.229 89.0833 713.062 89C712.896 88.8333 712.854 88.625 712.938 88.375C713.271 87.7083 713.396 86.9583 713.312 86.125C713.229 85.2083 713.146 84.2917 713.062 83.375C712.979 82.4583 713.021 81.5833 713.188 80.75C713.438 79.9167 714.062 79.25 715.062 78.75C717.896 79.0833 720.562 79 723.062 78.5C725.646 77.9167 728.062 77.125 730.312 76.125C732.562 75.125 734.688 74.0417 736.688 72.875C738.771 71.7083 740.812 70.6667 742.812 69.75C743.062 69 743.396 68.375 743.812 67.875C744.312 67.375 744.812 66.9167 745.312 66.5C745.812 66.0833 746.271 65.625 746.688 65.125C747.104 64.625 747.396 64 747.562 63.25C747.646 62.6667 747.479 62.3333 747.062 62.25C746.729 62.0833 746.562 61.75 746.562 61.25L745.188 60.875C743.604 59.9583 741.812 59.2083 739.812 58.625C737.812 57.9583 736.104 57.25 734.688 56.5C733.771 57 732.896 57.125 732.062 56.875C731.312 56.625 730.312 56.375 729.062 56.125C726.229 55.9583 723.479 55.6667 720.812 55.25C718.229 54.8333 715.729 54.0833 713.312 53C713.146 52.5833 712.938 52.2083 712.688 51.875C712.438 51.5417 711.979 51.4583 711.312 51.625C710.812 50.9583 710.312 50.3333 709.812 49.75C709.312 49.0833 708.854 48.375 708.438 47.625C708.604 46.625 708.729 45.7917 708.812 45.125C708.896 44.375 708.646 43.6667 708.062 43C708.396 41.9167 708.646 41.0417 708.812 40.375C708.979 39.7083 708.979 38.8333 708.812 37.75ZM879.688 83.5C879.188 84.9167 878.438 86.375 877.438 87.875C876.521 89.2917 875.396 90.5833 874.062 91.75C872.812 92.8333 871.396 93.75 869.812 94.5C868.229 95.25 866.562 95.6667 864.812 95.75C863.729 95.5 862.979 95.2083 862.562 94.875C862.229 94.625 861.854 94.375 861.438 94.125C861.188 93.9583 860.938 93.8333 860.688 93.75C860.521 93.5833 860.354 93.4583 860.188 93.375L858.688 92.75L859.188 91.125C859.354 90.4583 859.312 89.9583 859.062 89.625C858.812 89.2083 858.312 88.6667 857.562 88C857.312 87.75 857.062 87.5 856.812 87.25C856.562 87 856.354 86.75 856.188 86.5L854.062 84.125L857.438 83.25C859.521 82.6667 860.896 81.9167 861.562 81C862.312 80.0833 862.604 78.5417 862.438 76.375C860.771 76.0417 859.354 76 858.188 76.25C857.104 76.5 855.979 76.7917 854.812 77.125C853.312 77.5417 851.771 77.9167 850.188 78.25C848.688 78.5 847.021 78.625 845.188 78.625C844.521 78.625 843.896 78.625 843.312 78.625C842.729 78.5417 842.104 78.4583 841.438 78.375L840.188 78.125C840.021 77.2083 839.854 76.7083 839.688 76.625C839.521 76.4583 839.354 76.2917 839.188 76.125C838.771 75.7083 838.312 75.1667 837.812 74.5C837.396 73.75 837.312 72.8333 837.562 71.75C837.146 71 836.896 70.25 836.812 69.5C836.312 70.5 835.938 71.5417 835.688 72.625L835.188 73.875L833.938 74.125C833.771 74.2083 833.646 74.4167 833.562 74.75C833.479 75 833.438 75.2083 833.438 75.375L832.812 77.5C832.646 77.6667 832.479 77.8333 832.312 78C832.146 78.0833 831.979 78.2083 831.812 78.375C831.646 79.125 831.438 79.875 831.188 80.625C830.938 81.375 830.688 82.0833 830.438 82.75C830.021 83.8333 829.646 84.9167 829.312 86C829.062 87 828.979 88 829.062 89L828.562 90.375C828.146 90.875 827.688 91.2917 827.188 91.625C826.688 91.875 826.188 92.125 825.688 92.375C825.521 92.5417 825.271 92.7083 824.938 92.875C824.688 92.9583 824.479 93.0417 824.312 93.125L823.938 94.5L822.438 94.75C821.521 94.9167 820.854 95.0417 820.438 95.125C820.104 95.2083 819.688 95.25 819.188 95.25L817.938 95.125C817.021 94.375 816.312 93.7917 815.812 93.375C815.312 92.875 814.729 92.4167 814.062 92C813.312 91 812.896 90.25 812.812 89.75C812.729 89.25 812.646 88.7917 812.562 88.375C812.396 87.875 812.312 87.4583 812.312 87.125C812.229 86.7917 812.104 86.5417 811.938 86.375L810.312 84.875L811.688 83.75L811.812 81.625C813.479 77.375 815.229 73.2917 817.062 69.375C818.979 65.4583 820.938 61.4583 822.938 57.375C823.604 56.0417 824.229 54.7083 824.812 53.375C825.479 52.0417 826.146 50.7083 826.812 49.375C826.729 49.125 826.688 48.8333 826.688 48.5C826.688 48.1667 826.771 47.7917 826.938 47.375C827.854 45.9583 828.604 44.7083 829.188 43.625C829.771 42.4583 830.354 41.2917 830.938 40.125C831.604 38.7083 832.271 37.3333 832.938 36C833.688 34.6667 834.604 33.2917 835.688 31.875L837.688 31C837.938 30.9167 838.229 30.8333 838.562 30.75C838.896 30.5833 839.271 30.5 839.688 30.5L841.562 30.75C843.896 29.6667 845.938 28.1667 847.688 26.25C849.438 24.25 851.229 21.875 853.062 19.125L854.312 17.375L855.938 18.375C856.354 18.625 856.938 18.875 857.688 19.125C858.438 19.2917 859.229 19.5 860.062 19.75C861.562 20.0833 862.979 20.4583 864.312 20.875C865.646 21.2917 866.729 21.9167 867.562 22.75C868.062 24.0833 868.354 25.0833 868.438 25.75C868.521 26.4167 868.646 27.0833 868.812 27.75C869.062 29.1667 869.271 30.5833 869.438 32C869.688 33.4167 869.854 35 869.938 36.75C870.354 38.1667 870.688 39.5833 870.938 41C871.271 42.3333 871.562 43.7083 871.812 45.125C872.229 47.125 872.646 49.0833 873.062 51C873.479 52.8333 874.021 54.5833 874.688 56.25C875.354 56.25 875.771 56.2917 875.938 56.375C876.354 56.2083 876.771 56.0833 877.188 56C877.688 55.9167 878.229 55.8333 878.812 55.75L880.188 55.625L880.688 56.875C880.771 57.2917 881.188 57.7083 881.938 58.125C883.021 58.2083 883.812 58.4583 884.312 58.875C884.812 59.2083 885.271 59.5833 885.688 60C886.021 60.3333 886.354 60.5833 886.688 60.75L888.562 61.5L887.562 63.375C886.729 64.875 885.521 66.3333 883.938 67.75C882.438 69.0833 880.729 70.2083 878.812 71.125C878.896 71.625 878.938 72.125 878.938 72.625C879.021 73.0417 879.146 73.5 879.312 74C879.562 75.4167 879.771 76.875 879.938 78.375C880.104 79.875 880.104 81.4167 879.938 83L879.688 83.5ZM843.562 61.875C846.062 61.7083 848.312 61.5417 850.312 61.375C852.396 61.125 854.688 60.75 857.188 60.25C856.604 57.75 855.979 55.1667 855.312 52.5C854.646 49.75 853.938 47.0417 853.188 44.375L852.438 45.625C850.771 47.375 849.146 49.3333 847.562 51.5C846.062 53.6667 844.771 55.7083 843.688 57.625C843.188 58.375 842.688 59.125 842.188 59.875C841.688 60.625 841.229 61.375 840.812 62.125C841.312 62.0417 841.771 62 842.188 62C842.688 62 843.146 61.9583 843.562 61.875ZM952.688 33.875C950.604 33.875 948.354 34.0417 945.938 34.375C943.521 34.625 941.146 34.9167 938.812 35.25C937.146 35.5 935.521 35.7083 933.938 35.875C932.438 36.0417 931.062 36.1667 929.812 36.25C929.229 38.0833 928.646 39.7083 928.062 41.125C927.479 42.5417 926.854 43.9167 926.188 45.25C925.521 46.6667 924.896 48.125 924.312 49.625C923.812 51.0417 923.312 52.5833 922.812 54.25C921.979 55.5833 921.271 56.8333 920.688 58C920.188 59.0833 919.771 60.3333 919.438 61.75C918.438 63 917.688 64.3333 917.188 65.75C916.688 67.0833 916.312 68.25 916.062 69.25L915.562 70.75C915.062 71.25 914.771 71.6667 914.688 72C914.604 72.25 914.396 72.5 914.062 72.75C913.979 73.6667 913.688 74.5833 913.188 75.5C913.021 75.9167 912.896 76.3333 912.812 76.75C912.729 77.0833 912.688 77.3333 912.688 77.5C912.688 78.3333 912.479 78.875 912.062 79.125C912.146 79.5417 912.146 80 912.062 80.5C911.979 80.9167 911.896 81.3333 911.812 81.75C911.562 82.75 911.479 83.5417 911.562 84.125C911.812 84.4583 912.021 84.75 912.188 85C912.438 85.25 912.604 85.5833 912.688 86C913.188 86.3333 913.562 86.5417 913.812 86.625C914.146 86.875 914.646 87.1667 915.312 87.5L916.438 88.75C916.854 91.1667 916.479 93.0833 915.312 94.5C914.062 96.0833 911.938 96.875 908.938 96.875H907.438C907.021 96.4583 906.771 96.125 906.688 95.875C906.021 95.625 905.479 95.4167 905.062 95.25C904.646 95.0833 904.271 94.75 903.938 94.25C902.854 93.75 901.979 93.3333 901.312 93L900.188 92.375C900.188 91.4583 900.188 90.9583 900.188 90.875C899.604 90.125 899.146 89.2917 898.812 88.375C898.562 87.4583 898.354 86.5417 898.188 85.625C898.021 84.875 897.812 84.1667 897.562 83.5C897.396 82.8333 897.146 82.25 896.812 81.75C896.646 76.9167 897.104 72.8333 898.188 69.5C899.271 66.1667 900.396 62.9583 901.562 59.875C902.229 58.2083 902.896 56.5417 903.562 54.875C904.229 53.125 904.812 51.3333 905.312 49.5L906.438 48.25C907.021 46.9167 907.479 45.8333 907.812 45C908.229 44.0833 908.646 43.1667 909.062 42.25C909.312 41.6667 909.521 41.125 909.688 40.625C909.938 40.0417 910.146 39.5417 910.312 39.125C909.812 39.125 909.354 39.1667 908.938 39.25C908.521 39.25 908.104 39.2917 907.688 39.375C907.188 39.4583 906.729 39.5417 906.312 39.625C905.896 39.625 905.479 39.625 905.062 39.625C904.479 39.625 904.062 39.5833 903.812 39.5C902.896 39.9167 901.896 40.125 900.812 40.125H899.562C899.312 40.125 899.062 40.125 898.812 40.125C898.646 40.0417 898.479 40 898.312 40C897.479 40 896.812 40.125 896.312 40.375C895.312 40.375 894.354 40.375 893.438 40.375H892.188C892.021 40.375 891.812 40.4167 891.562 40.5C891.312 40.5 891.104 40.5 890.938 40.5C890.354 40.5 889.729 40.4583 889.062 40.375C888.396 40.2083 887.688 39.9167 886.938 39.5C885.938 38.1667 885.271 37.4583 884.938 37.375L883.812 35.875C883.729 35.375 883.604 34.9167 883.438 34.5C883.271 34 883.104 33.4583 882.938 32.875C882.604 32.0417 882.271 31.1667 881.938 30.25C881.688 29.25 881.562 28.0833 881.562 26.75C881.646 26.0833 881.812 25.5833 882.062 25.25C882.312 24.9167 882.521 24.625 882.688 24.375L883.062 22.5L884.688 22.625H888.188C890.854 22.625 893.562 22.5417 896.312 22.375C899.062 22.125 901.896 21.875 904.812 21.625C906.479 21.4583 908.146 21.2917 909.812 21.125C911.562 20.9583 913.354 20.7917 915.188 20.625C915.521 19.875 915.854 19.1667 916.188 18.5L917.438 17.875C918.938 17.7917 919.979 18 920.562 18.5C921.229 18.9167 921.771 19.3333 922.188 19.75C924.021 19.5833 925.854 19.4167 927.688 19.25C929.604 19 931.521 18.7083 933.438 18.375C936.271 17.9583 939.104 17.5833 941.938 17.25C944.854 16.9167 947.646 16.75 950.312 16.75C951.479 16.75 952.604 16.7917 953.688 16.875C954.771 16.9583 955.771 17.0833 956.688 17.25L957.938 18.125C958.188 18.625 958.521 19.0833 958.938 19.5C959.438 19.9167 959.938 20.3333 960.438 20.75C961.438 21.6667 962.438 22.75 963.438 24C964.438 25.25 964.812 27.0833 964.562 29.5C963.896 30.5 963.396 31.0833 963.062 31.25L961.938 32.75L960.688 32.625C960.188 32.625 959.729 32.7083 959.312 32.875C958.896 32.9583 958.479 33.0833 958.062 33.25C957.729 33.4167 957.396 33.5833 957.062 33.75C956.729 33.8333 956.354 33.9167 955.938 34C955.188 34 954.562 34 954.062 34C953.646 33.9167 953.188 33.875 952.688 33.875ZM1.0625 224.625C1.3125 223.375 1.47917 222.375 1.5625 221.625C1.64583 220.792 1.35417 219.917 0.6875 219C1.02083 217.667 1.27083 216.625 1.4375 215.875C1.6875 215.125 1.72917 214.083 1.5625 212.75C2.3125 210.583 3.4375 208.75 4.9375 207.25C6.52083 205.75 8.22917 204.5 10.0625 203.5C11.8958 202.417 13.8125 201.542 15.8125 200.875C17.8125 200.125 19.6875 199.5 21.4375 199C21.4375 198.667 21.2708 198.5 20.9375 198.5C20.6042 198.5 20.5208 198.292 20.6875 197.875C25.1875 197.042 29.6875 195.833 34.1875 194.25C38.7708 192.667 43.4375 191.25 48.1875 190C52.9375 188.75 57.8125 188 62.8125 187.75C67.8125 187.417 73.0625 188.042 78.5625 189.625C78.8958 190.625 79.3542 191.583 79.9375 192.5C80.5208 193.417 81.1042 194.333 81.6875 195.25C82.3542 196.083 82.9375 196.917 83.4375 197.75C83.9375 198.583 84.2292 199.458 84.3125 200.375C85.3125 201.292 86.1042 202.292 86.6875 203.375C87.3542 204.375 87.4792 205.75 87.0625 207.5C86.1458 208.167 85.1875 208.833 84.1875 209.5C83.1875 210.167 82.1458 210.792 81.0625 211.375C77.3125 210.458 73.5625 210.125 69.8125 210.375C66.0625 210.625 62.6875 210.917 59.6875 211.25C58.7708 210.25 57.6875 209.792 56.4375 209.875C55.1875 209.875 53.8542 210.083 52.4375 210.5C51.1042 210.833 49.7708 211.208 48.4375 211.625C47.1042 211.958 45.8542 212.042 44.6875 211.875C43.7708 212.708 42.5625 213.292 41.0625 213.625C39.5625 213.875 37.9792 214.083 36.3125 214.25C36.2292 214.667 36.3125 214.958 36.5625 215.125C36.8125 215.292 36.8542 215.625 36.6875 216.125C37.2708 216.875 38.0625 217.417 39.0625 217.75C40.0625 218 41.0625 218.25 42.0625 218.5C43.1458 218.75 44.1042 219.125 44.9375 219.625C45.7708 220.042 46.3125 220.75 46.5625 221.75C48.0625 221.833 49.3542 222.25 50.4375 223C51.5208 223.667 52.4375 224.5 53.1875 225.5C53.9375 226.5 54.4792 227.583 54.8125 228.75C55.1458 229.833 55.2708 230.833 55.1875 231.75C55.5208 232.583 55.8542 232.917 56.1875 232.75C56.6042 232.583 57.0625 232.792 57.5625 233.375C57.8958 234.625 58.6458 235.958 59.8125 237.375C61.0625 238.708 62.0208 240.167 62.6875 241.75C62.8542 244.25 62.9792 246.5 63.0625 248.5C63.2292 250.5 62.8958 252.458 62.0625 254.375C60.6458 258.042 58.6042 261.333 55.9375 264.25C53.2708 267.167 50.2292 269.75 46.8125 272C43.4792 274.167 39.9375 276.083 36.1875 277.75C32.4375 279.333 28.7292 280.667 25.0625 281.75C24.7292 281.667 24.3125 281.667 23.8125 281.75C23.3958 281.833 23.3125 281.583 23.5625 281C22.8125 281.667 21.9375 282.083 20.9375 282.25C20.0208 282.417 18.9792 282.458 17.8125 282.375C16.7292 282.375 15.6042 282.333 14.4375 282.25C13.3542 282.167 12.2708 282.208 11.1875 282.375C10.5208 281.708 9.89583 281.042 9.3125 280.375C8.8125 279.708 8.39583 278.917 8.0625 278C7.64583 277.917 7.4375 277.667 7.4375 277.25C7.52083 276.75 7.35417 276.5 6.9375 276.5C6.9375 276.167 6.97917 275.917 7.0625 275.75C7.14583 275.583 7.22917 275.417 7.3125 275.25C7.64583 275 7.77083 274.833 7.6875 274.75C7.6875 274.583 7.5625 274.458 7.3125 274.375C7.14583 274.208 6.9375 274.042 6.6875 273.875C6.52083 273.708 6.47917 273.5 6.5625 273.25C6.97917 272.5 7.10417 271.625 6.9375 270.625C6.85417 269.542 6.77083 268.458 6.6875 267.375C6.60417 266.292 6.6875 265.292 6.9375 264.375C7.1875 263.375 7.89583 262.542 9.0625 261.875C12.4792 262.208 15.6875 262.042 18.6875 261.375C21.7708 260.708 24.6458 259.792 27.3125 258.625C30.0625 257.458 32.6458 256.208 35.0625 254.875C37.5625 253.458 39.9792 252.167 42.3125 251C42.5625 250.167 42.9375 249.458 43.4375 248.875C44.0208 248.292 44.6042 247.75 45.1875 247.25C45.7708 246.667 46.3125 246.083 46.8125 245.5C47.3125 244.833 47.6875 244.042 47.9375 243.125C48.0208 242.792 48.0208 242.542 47.9375 242.375C47.8542 242.208 47.7292 242.083 47.5625 242C47.3958 241.833 47.2292 241.667 47.0625 241.5C46.8958 241.333 46.8125 241.083 46.8125 240.75C46.5625 240.667 46.3125 240.583 46.0625 240.5C45.8958 240.417 45.7292 240.375 45.5625 240.375C43.3958 239.292 41.1042 238.375 38.6875 237.625C36.2708 236.875 34.2292 236.042 32.5625 235.125C31.5625 235.792 30.5625 235.958 29.5625 235.625C28.5625 235.292 27.3542 234.958 25.9375 234.625C22.4375 234.458 19.1042 234.125 15.9375 233.625C12.8542 233.125 9.85417 232.25 6.9375 231C6.77083 230.5 6.5625 230.083 6.3125 229.75C6.0625 229.333 5.47917 229.208 4.5625 229.375C3.97917 228.542 3.35417 227.792 2.6875 227.125C2.10417 226.375 1.5625 225.542 1.0625 224.625ZM144.312 220.875C142.229 220.875 139.979 221.042 137.562 221.375C135.146 221.625 132.771 221.917 130.438 222.25C128.771 222.5 127.146 222.708 125.562 222.875C124.062 223.042 122.688 223.167 121.438 223.25C120.854 225.083 120.271 226.708 119.688 228.125C119.104 229.542 118.479 230.917 117.812 232.25C117.146 233.667 116.521 235.125 115.938 236.625C115.438 238.042 114.938 239.583 114.438 241.25C113.604 242.583 112.896 243.833 112.312 245C111.812 246.083 111.396 247.333 111.062 248.75C110.062 250 109.312 251.333 108.812 252.75C108.312 254.083 107.938 255.25 107.688 256.25L107.188 257.75C106.688 258.25 106.396 258.667 106.312 259C106.229 259.25 106.021 259.5 105.688 259.75C105.604 260.667 105.312 261.583 104.812 262.5C104.646 262.917 104.521 263.333 104.438 263.75C104.354 264.083 104.312 264.333 104.312 264.5C104.312 265.333 104.104 265.875 103.688 266.125C103.771 266.542 103.771 267 103.688 267.5C103.604 267.917 103.521 268.333 103.438 268.75C103.188 269.75 103.104 270.542 103.188 271.125C103.438 271.458 103.646 271.75 103.812 272C104.062 272.25 104.229 272.583 104.312 273C104.812 273.333 105.188 273.542 105.438 273.625C105.771 273.875 106.271 274.167 106.938 274.5L108.062 275.75C108.479 278.167 108.104 280.083 106.938 281.5C105.688 283.083 103.562 283.875 100.562 283.875H99.0625C98.6458 283.458 98.3958 283.125 98.3125 282.875C97.6458 282.625 97.1042 282.417 96.6875 282.25C96.2708 282.083 95.8958 281.75 95.5625 281.25C94.4792 280.75 93.6042 280.333 92.9375 280L91.8125 279.375C91.8125 278.458 91.8125 277.958 91.8125 277.875C91.2292 277.125 90.7708 276.292 90.4375 275.375C90.1875 274.458 89.9792 273.542 89.8125 272.625C89.6458 271.875 89.4375 271.167 89.1875 270.5C89.0208 269.833 88.7708 269.25 88.4375 268.75C88.2708 263.917 88.7292 259.833 89.8125 256.5C90.8958 253.167 92.0208 249.958 93.1875 246.875C93.8542 245.208 94.5208 243.542 95.1875 241.875C95.8542 240.125 96.4375 238.333 96.9375 236.5L98.0625 235.25C98.6458 233.917 99.1042 232.833 99.4375 232C99.8542 231.083 100.271 230.167 100.688 229.25C100.938 228.667 101.146 228.125 101.312 227.625C101.562 227.042 101.771 226.542 101.938 226.125C101.438 226.125 100.979 226.167 100.562 226.25C100.146 226.25 99.7292 226.292 99.3125 226.375C98.8125 226.458 98.3542 226.542 97.9375 226.625C97.5208 226.625 97.1042 226.625 96.6875 226.625C96.1042 226.625 95.6875 226.583 95.4375 226.5C94.5208 226.917 93.5208 227.125 92.4375 227.125H91.1875C90.9375 227.125 90.6875 227.125 90.4375 227.125C90.2708 227.042 90.1042 227 89.9375 227C89.1042 227 88.4375 227.125 87.9375 227.375C86.9375 227.375 85.9792 227.375 85.0625 227.375H83.8125C83.6458 227.375 83.4375 227.417 83.1875 227.5C82.9375 227.5 82.7292 227.5 82.5625 227.5C81.9792 227.5 81.3542 227.458 80.6875 227.375C80.0208 227.208 79.3125 226.917 78.5625 226.5C77.5625 225.167 76.8958 224.458 76.5625 224.375L75.4375 222.875C75.3542 222.375 75.2292 221.917 75.0625 221.5C74.8958 221 74.7292 220.458 74.5625 219.875C74.2292 219.042 73.8958 218.167 73.5625 217.25C73.3125 216.25 73.1875 215.083 73.1875 213.75C73.2708 213.083 73.4375 212.583 73.6875 212.25C73.9375 211.917 74.1458 211.625 74.3125 211.375L74.6875 209.5L76.3125 209.625H79.8125C82.4792 209.625 85.1875 209.542 87.9375 209.375C90.6875 209.125 93.5208 208.875 96.4375 208.625C98.1042 208.458 99.7708 208.292 101.438 208.125C103.188 207.958 104.979 207.792 106.812 207.625C107.146 206.875 107.479 206.167 107.812 205.5L109.062 204.875C110.562 204.792 111.604 205 112.188 205.5C112.854 205.917 113.396 206.333 113.812 206.75C115.646 206.583 117.479 206.417 119.312 206.25C121.229 206 123.146 205.708 125.062 205.375C127.896 204.958 130.729 204.583 133.562 204.25C136.479 203.917 139.271 203.75 141.938 203.75C143.104 203.75 144.229 203.792 145.312 203.875C146.396 203.958 147.396 204.083 148.312 204.25L149.562 205.125C149.812 205.625 150.146 206.083 150.562 206.5C151.062 206.917 151.562 207.333 152.062 207.75C153.062 208.667 154.062 209.75 155.062 211C156.062 212.25 156.438 214.083 156.188 216.5C155.521 217.5 155.021 218.083 154.688 218.25L153.562 219.75L152.312 219.625C151.812 219.625 151.354 219.708 150.938 219.875C150.521 219.958 150.104 220.083 149.688 220.25C149.354 220.417 149.021 220.583 148.688 220.75C148.354 220.833 147.979 220.917 147.562 221C146.812 221 146.188 221 145.688 221C145.271 220.917 144.812 220.875 144.312 220.875ZM203.562 243.5C203.479 244.5 203.562 245.458 203.812 246.375C204.062 247.292 204.354 248.208 204.688 249.125C205.104 249.958 205.479 250.833 205.812 251.75C206.146 252.667 206.396 253.583 206.562 254.5C206.729 255.667 206.729 256.958 206.562 258.375C206.396 259.708 206.104 261.042 205.688 262.375C205.271 263.625 204.729 264.792 204.062 265.875C203.396 266.875 202.604 267.625 201.688 268.125C200.521 269.625 199.104 270.792 197.438 271.625C195.771 272.458 194.229 273.458 192.812 274.625C191.896 275.208 190.854 275.625 189.688 275.875C188.604 276.125 187.479 276.375 186.312 276.625C185.396 277.125 184.312 277.667 183.062 278.25C181.812 278.75 180.521 279.25 179.188 279.75C177.854 280.167 176.521 280.5 175.188 280.75C173.854 280.917 172.688 280.958 171.688 280.875C169.188 281.792 166.729 282.375 164.312 282.625C161.979 282.958 159.229 282.792 156.062 282.125C153.062 282.542 150.271 282.417 147.688 281.75C145.188 281.083 142.938 280.042 140.938 278.625C139.021 277.125 137.312 275.375 135.812 273.375C134.396 271.292 133.229 269.125 132.312 266.875C131.646 262.125 131.812 257.833 132.812 254C133.812 250.083 135.229 246.5 137.062 243.25C138.979 239.917 141.146 236.875 143.562 234.125C145.979 231.292 148.312 228.542 150.562 225.875C151.062 226.042 151.438 226.042 151.688 225.875C152.021 225.625 152.312 225.333 152.562 225C152.812 224.583 153.062 224.208 153.312 223.875C153.646 223.542 154.021 223.333 154.438 223.25C155.021 222 155.854 221.083 156.938 220.5C158.104 219.833 159.021 218.917 159.688 217.75C160.438 217.583 161.062 217.333 161.562 217C162.062 216.667 162.521 216.292 162.938 215.875C163.438 215.458 163.938 215.083 164.438 214.75C164.938 214.333 165.521 214.042 166.188 213.875V212.5C167.688 211.833 168.771 211.083 169.438 210.25C170.188 209.333 171.062 208.25 172.062 207C172.812 206.917 173.396 206.875 173.812 206.875C174.312 206.875 175.021 206.792 175.938 206.625C176.604 205.458 177.188 204.583 177.688 204C178.271 203.417 179.104 202.792 180.188 202.125C181.188 202.625 182.271 202.958 183.438 203.125C184.688 203.292 185.771 203.833 186.688 204.75C186.771 205.583 187.021 206.25 187.438 206.75C187.854 207.167 188.312 207.583 188.812 208C189.312 208.333 189.771 208.708 190.188 209.125C190.688 209.542 191.021 210.125 191.188 210.875C191.521 210.958 191.729 210.917 191.812 210.75C191.979 210.583 192.229 210.542 192.562 210.625C192.812 211.792 193.104 212.583 193.438 213C193.771 213.333 194.104 214.042 194.438 215.125C194.021 215.958 193.688 216.833 193.438 217.75C193.271 218.583 192.771 219.208 191.938 219.625C191.854 220.208 192.021 220.542 192.438 220.625C192.854 220.625 193.104 220.833 193.188 221.25C193.271 222 193.146 222.542 192.812 222.875C194.812 226.125 196.604 229.583 198.188 233.25C199.771 236.833 201.562 240.25 203.562 243.5ZM187.938 255.375C188.271 254.458 188.688 253.708 189.188 253.125C189.771 252.542 190.104 251.667 190.188 250.5C189.771 249.833 189.521 249.333 189.438 249C189.354 248.583 189.312 247.958 189.312 247.125C187.479 244.542 185.896 241.792 184.562 238.875C183.229 235.875 181.729 233.083 180.062 230.5C179.896 230.833 179.604 231.167 179.188 231.5C178.771 231.833 178.312 231.75 177.812 231.25C177.646 231.917 177.354 232.417 176.938 232.75C176.521 233 176.062 233.125 175.562 233.125C175.062 233.042 174.521 232.917 173.938 232.75C173.438 232.5 172.979 232.208 172.562 231.875C170.146 233.792 167.729 235.667 165.312 237.5C162.896 239.333 160.729 241.458 158.812 243.875C158.479 244.042 158.271 244.125 158.188 244.125C158.104 244.042 157.854 244.083 157.438 244.25C156.771 245.833 155.938 247.292 154.938 248.625C154.021 249.875 153.104 251.167 152.188 252.5C151.271 253.833 150.479 255.25 149.812 256.75C149.146 258.25 148.771 260 148.688 262C150.104 263.167 151.771 263.875 153.688 264.125C155.604 264.375 157.562 264.417 159.562 264.25C161.646 264.083 163.646 263.833 165.562 263.5C167.562 263.083 169.396 262.875 171.062 262.875C174.562 262.042 177.562 260.958 180.062 259.625C182.562 258.208 185.188 256.792 187.938 255.375ZM231.312 268C230.396 271.333 229.562 273.875 228.812 275.625C228.146 277.292 227.104 279.042 225.688 280.875C224.604 280.708 223.854 280.833 223.438 281.25C223.021 281.667 222.562 282.042 222.062 282.375C221.312 282.542 220.771 282.542 220.438 282.375C220.104 282.208 219.812 282 219.562 281.75C219.312 281.583 218.979 281.375 218.562 281.125C218.229 280.958 217.688 280.875 216.938 280.875C216.771 280.208 216.562 279.583 216.312 279C216.146 278.417 215.604 278.208 214.688 278.375C214.854 277.708 214.896 277.167 214.812 276.75C214.729 276.25 214.604 275.833 214.438 275.5C214.354 275.083 214.271 274.708 214.188 274.375C214.104 273.958 214.146 273.458 214.312 272.875C213.896 272.875 213.562 272.583 213.312 272C213.062 271.417 212.771 270.833 212.438 270.25C212.688 268.75 212.938 267.333 213.188 266C213.438 264.667 213.729 263.417 214.062 262.25C214.479 261.083 214.812 259.917 215.062 258.75C215.312 257.583 215.188 256.375 214.688 255.125C215.021 255.375 215.271 255.333 215.438 255C215.604 254.583 215.729 254.083 215.812 253.5C215.896 252.833 215.938 252.208 215.938 251.625C215.938 250.958 215.896 250.417 215.812 250C216.646 247.833 217.312 245.625 217.812 243.375C218.396 241.042 218.896 238.75 219.312 236.5C219.812 234.25 220.312 232.042 220.812 229.875C221.312 227.708 221.979 225.708 222.812 223.875C223.729 223.708 224.729 223.833 225.812 224.25C226.979 224.583 227.688 225.042 227.938 225.625C230.104 223.958 232.021 221.958 233.688 219.625C235.354 217.208 237.062 214.875 238.812 212.625C240.562 210.375 242.479 208.375 244.562 206.625C246.729 204.875 249.438 203.833 252.688 203.5C254.354 204.75 256.188 206.042 258.188 207.375C260.271 208.625 261.979 210.292 263.312 212.375C263.979 212.708 264.521 213.083 264.938 213.5C265.438 213.833 266.021 214.208 266.688 214.625V216.125C267.688 217.042 268.479 218.125 269.062 219.375C269.729 220.542 270.312 221.833 270.812 223.25C271.312 224.583 271.812 225.958 272.312 227.375C272.812 228.708 273.396 230 274.062 231.25C273.896 231.667 273.812 232.042 273.812 232.375C273.812 232.625 273.854 232.917 273.938 233.25C274.104 233.583 274.229 233.917 274.312 234.25C274.396 234.583 274.396 235.042 274.312 235.625C274.062 239.292 272.854 242.25 270.688 244.5C268.604 246.75 266.062 248.625 263.062 250.125C260.062 251.542 256.854 252.75 253.438 253.75C250.021 254.75 246.938 255.833 244.188 257C244.188 257.333 244.312 257.5 244.562 257.5C244.896 257.5 245.021 257.708 244.938 258.125C246.938 259.375 248.521 260.375 249.688 261.125C250.854 261.875 251.938 262.5 252.938 263C254.021 263.5 255.146 263.958 256.312 264.375C257.562 264.708 259.271 265.125 261.438 265.625C263.604 266.125 265.271 266.542 266.438 266.875C267.688 267.125 268.812 267.375 269.812 267.625C270.812 267.792 271.812 267.958 272.812 268.125C273.896 268.208 275.396 268.333 277.312 268.5C278.062 269.25 278.688 270.167 279.188 271.25C279.771 272.25 280.146 273.292 280.312 274.375C280.479 275.375 280.521 276.375 280.438 277.375C280.354 278.292 280.062 279.042 279.562 279.625C279.646 279.875 279.812 280 280.062 280C280.396 279.917 280.729 279.917 281.062 280C280.562 280.333 280.146 280.75 279.812 281.25C279.479 281.75 279.146 282.25 278.812 282.75C278.479 283.25 278.104 283.667 277.688 284C277.271 284.417 276.688 284.667 275.938 284.75C273.354 285.75 270.104 285.792 266.188 284.875C262.271 284.042 257.312 282.458 251.312 280.125C248.312 278.958 245.854 277.958 243.938 277.125C242.104 276.208 240.479 275.333 239.062 274.5C237.729 273.583 236.479 272.625 235.312 271.625C234.229 270.625 232.896 269.417 231.312 268ZM249.188 225.125C248.271 226.458 247.229 227.667 246.062 228.75C244.979 229.833 243.896 230.958 242.812 232.125C241.812 233.208 240.896 234.458 240.062 235.875C239.229 237.208 238.646 238.792 238.312 240.625C241.229 240.292 244.271 239.5 247.438 238.25C250.604 236.917 253.604 235.667 256.438 234.5C256.104 231.917 255.188 229.833 253.688 228.25C252.271 226.667 250.771 225.625 249.188 225.125ZM366.938 278.75C366.104 279.167 365.312 279.542 364.562 279.875C363.896 280.208 363.104 280.375 362.188 280.375C358.938 277.958 357.229 273.75 357.062 267.75C356.979 261.75 358.271 254.125 360.938 244.875C361.354 244.625 361.562 244.125 361.562 243.375L360.438 242.125C360.104 242.125 359.771 242.167 359.438 242.25C359.188 242.333 358.979 242.625 358.812 243.125C356.646 244.708 354.271 246.375 351.688 248.125C349.104 249.792 346.396 251.375 343.562 252.875C340.812 254.292 337.979 255.458 335.062 256.375C332.229 257.292 329.438 257.75 326.688 257.75C319.688 257.75 314.438 254.208 310.938 247.125L309.938 245.25L308.938 246.875C308.688 247.208 308.312 247.917 307.812 249C307.312 250 306.812 251.167 306.312 252.5C305.812 253.833 305.354 255.208 304.938 256.625C304.604 257.958 304.479 259.125 304.562 260.125C303.812 260.875 303.021 261.75 302.188 262.75C301.354 263.75 300.729 264.875 300.312 266.125C300.146 266.792 300.229 267.417 300.562 268C300.396 268.75 300.021 269.333 299.438 269.75C299.104 270.167 298.729 270.583 298.312 271C297.979 271.333 297.688 271.708 297.438 272.125C297.271 272.542 297.146 272.958 297.062 273.375C297.062 273.792 297.021 274.208 296.938 274.625C296.938 275.208 296.854 275.75 296.688 276.25C295.271 279.167 294.146 281.042 293.312 281.875C292.479 282.792 291.354 283.25 289.938 283.25C289.271 283.25 288.188 283.125 286.688 282.875C285.604 281.708 284.604 280.125 283.688 278.125C282.854 276.042 282.188 273.833 281.688 271.5C281.271 269.167 281.062 266.833 281.062 264.5C281.146 262.083 281.562 260 282.312 258.25C282.312 258.167 282.646 257.333 283.312 255.75C283.979 254.167 284.812 252.125 285.812 249.625C286.896 247.125 288.104 244.375 289.438 241.375C290.771 238.292 292.104 235.333 293.438 232.5C294.771 229.583 296.021 226.917 297.188 224.5C298.438 222.083 299.479 220.25 300.312 219C300.979 218 301.562 217.083 302.062 216.25C302.646 215.333 303.188 214.458 303.688 213.625C305.188 211.042 306.604 208.917 307.938 207.25C309.354 205.5 311.396 204.125 314.062 203.125C315.896 203.875 317.229 204.75 318.062 205.75L318.312 207.125C318.646 207.958 319.146 208.375 319.812 208.375C320.729 208.625 321.479 208.875 322.062 209.125C322.729 209.292 323.438 209.458 324.188 209.625C324.771 210.292 325.312 211.083 325.812 212C326.479 213 327.104 214 327.688 215C328.354 215.917 328.854 216.875 329.188 217.875C329.604 218.792 329.812 219.75 329.812 220.75C329.896 221.75 329.729 222.792 329.312 223.875L329.438 225.125C329.854 225.875 329.938 226.917 329.688 228.25C329.604 228.833 329.562 229.458 329.562 230.125C329.562 230.708 329.646 231.375 329.812 232.125C331.312 233.292 332.646 233.875 333.812 233.875C335.146 233.875 336.354 233.583 337.438 233C338.604 232.333 339.688 231.667 340.688 231C341.354 230.5 342.021 230.083 342.688 229.75C343.354 229.333 344.021 229.083 344.688 229C346.188 227.583 347.521 226.333 348.688 225.25C349.938 224.167 351.229 223.083 352.562 222C355.062 220 357.479 217.833 359.812 215.5C362.146 213.167 364.021 210.25 365.438 206.75C366.271 206.25 367.146 206 368.062 206C368.979 206 369.938 206.208 370.938 206.625C371.938 207.042 372.896 207.458 373.812 207.875C374.062 208.042 374.271 208.167 374.438 208.25C374.688 208.333 374.896 208.417 375.062 208.5C375.062 209.333 375.396 210.042 376.062 210.625C376.396 210.875 376.604 211.042 376.688 211.125C376.771 211.208 376.896 211.292 377.062 211.375C378.312 212.042 379.104 212.708 379.438 213.375C380.021 215.292 381.062 216.75 382.562 217.75C382.396 218.583 382.396 219.375 382.562 220.125C382.812 220.792 383.104 221.5 383.438 222.25C383.521 222.5 383.604 222.75 383.688 223C383.771 223.25 383.896 223.542 384.062 223.875L381.688 223.625L382.062 226C382.229 227.167 382.104 228.458 381.688 229.875C381.354 231.292 380.938 232.417 380.438 233.25C380.521 235.417 380.562 237.125 380.562 238.375C380.646 239.542 380.604 240.667 380.438 241.75C380.271 242.75 380.021 243.708 379.688 244.625C379.438 245.542 379.062 246.542 378.562 247.625C378.896 252.958 378.271 257.833 376.688 262.25C375.188 266.583 373.604 270.667 371.938 274.5C371.771 274.917 371.562 275.333 371.312 275.75C371.146 276.167 370.979 276.583 370.812 277C370.062 277.25 369.396 277.542 368.812 277.875C368.229 278.125 367.604 278.417 366.938 278.75ZM386.312 224.625C386.562 223.375 386.729 222.375 386.812 221.625C386.896 220.792 386.604 219.917 385.938 219C386.271 217.667 386.521 216.625 386.688 215.875C386.938 215.125 386.979 214.083 386.812 212.75C387.562 210.583 388.688 208.75 390.188 207.25C391.771 205.75 393.479 204.5 395.312 203.5C397.146 202.417 399.062 201.542 401.062 200.875C403.062 200.125 404.938 199.5 406.688 199C406.688 198.667 406.521 198.5 406.188 198.5C405.854 198.5 405.771 198.292 405.938 197.875C410.438 197.042 414.938 195.833 419.438 194.25C424.021 192.667 428.688 191.25 433.438 190C438.188 188.75 443.062 188 448.062 187.75C453.062 187.417 458.312 188.042 463.812 189.625C464.146 190.625 464.604 191.583 465.188 192.5C465.771 193.417 466.354 194.333 466.938 195.25C467.604 196.083 468.188 196.917 468.688 197.75C469.188 198.583 469.479 199.458 469.562 200.375C470.562 201.292 471.354 202.292 471.938 203.375C472.604 204.375 472.729 205.75 472.312 207.5C471.396 208.167 470.438 208.833 469.438 209.5C468.438 210.167 467.396 210.792 466.312 211.375C462.562 210.458 458.812 210.125 455.062 210.375C451.312 210.625 447.938 210.917 444.938 211.25C444.021 210.25 442.938 209.792 441.688 209.875C440.438 209.875 439.104 210.083 437.688 210.5C436.354 210.833 435.021 211.208 433.688 211.625C432.354 211.958 431.104 212.042 429.938 211.875C429.021 212.708 427.812 213.292 426.312 213.625C424.812 213.875 423.229 214.083 421.562 214.25C421.479 214.667 421.562 214.958 421.812 215.125C422.062 215.292 422.104 215.625 421.938 216.125C422.521 216.875 423.312 217.417 424.312 217.75C425.312 218 426.312 218.25 427.312 218.5C428.396 218.75 429.354 219.125 430.188 219.625C431.021 220.042 431.562 220.75 431.812 221.75C433.312 221.833 434.604 222.25 435.688 223C436.771 223.667 437.688 224.5 438.438 225.5C439.188 226.5 439.729 227.583 440.062 228.75C440.396 229.833 440.521 230.833 440.438 231.75C440.771 232.583 441.104 232.917 441.438 232.75C441.854 232.583 442.312 232.792 442.812 233.375C443.146 234.625 443.896 235.958 445.062 237.375C446.312 238.708 447.271 240.167 447.938 241.75C448.104 244.25 448.229 246.5 448.312 248.5C448.479 250.5 448.146 252.458 447.312 254.375C445.896 258.042 443.854 261.333 441.188 264.25C438.521 267.167 435.479 269.75 432.062 272C428.729 274.167 425.188 276.083 421.438 277.75C417.688 279.333 413.979 280.667 410.312 281.75C409.979 281.667 409.562 281.667 409.062 281.75C408.646 281.833 408.562 281.583 408.812 281C408.062 281.667 407.188 282.083 406.188 282.25C405.271 282.417 404.229 282.458 403.062 282.375C401.979 282.375 400.854 282.333 399.688 282.25C398.604 282.167 397.521 282.208 396.438 282.375C395.771 281.708 395.146 281.042 394.562 280.375C394.062 279.708 393.646 278.917 393.312 278C392.896 277.917 392.688 277.667 392.688 277.25C392.771 276.75 392.604 276.5 392.188 276.5C392.188 276.167 392.229 275.917 392.312 275.75C392.396 275.583 392.479 275.417 392.562 275.25C392.896 275 393.021 274.833 392.938 274.75C392.938 274.583 392.812 274.458 392.562 274.375C392.396 274.208 392.188 274.042 391.938 273.875C391.771 273.708 391.729 273.5 391.812 273.25C392.229 272.5 392.354 271.625 392.188 270.625C392.104 269.542 392.021 268.458 391.938 267.375C391.854 266.292 391.938 265.292 392.188 264.375C392.438 263.375 393.146 262.542 394.312 261.875C397.729 262.208 400.938 262.042 403.938 261.375C407.021 260.708 409.896 259.792 412.562 258.625C415.312 257.458 417.896 256.208 420.312 254.875C422.812 253.458 425.229 252.167 427.562 251C427.812 250.167 428.188 249.458 428.688 248.875C429.271 248.292 429.854 247.75 430.438 247.25C431.021 246.667 431.562 246.083 432.062 245.5C432.562 244.833 432.938 244.042 433.188 243.125C433.271 242.792 433.271 242.542 433.188 242.375C433.104 242.208 432.979 242.083 432.812 242C432.646 241.833 432.479 241.667 432.312 241.5C432.146 241.333 432.062 241.083 432.062 240.75C431.812 240.667 431.562 240.583 431.312 240.5C431.146 240.417 430.979 240.375 430.812 240.375C428.646 239.292 426.354 238.375 423.938 237.625C421.521 236.875 419.479 236.042 417.812 235.125C416.812 235.792 415.812 235.958 414.812 235.625C413.812 235.292 412.604 234.958 411.188 234.625C407.688 234.458 404.354 234.125 401.188 233.625C398.104 233.125 395.104 232.25 392.188 231C392.021 230.5 391.812 230.083 391.562 229.75C391.312 229.333 390.729 229.208 389.812 229.375C389.229 228.542 388.604 227.792 387.938 227.125C387.354 226.375 386.812 225.542 386.312 224.625ZM528.812 243.5C528.729 244.5 528.812 245.458 529.062 246.375C529.312 247.292 529.604 248.208 529.938 249.125C530.354 249.958 530.729 250.833 531.062 251.75C531.396 252.667 531.646 253.583 531.812 254.5C531.979 255.667 531.979 256.958 531.812 258.375C531.646 259.708 531.354 261.042 530.938 262.375C530.521 263.625 529.979 264.792 529.312 265.875C528.646 266.875 527.854 267.625 526.938 268.125C525.771 269.625 524.354 270.792 522.688 271.625C521.021 272.458 519.479 273.458 518.062 274.625C517.146 275.208 516.104 275.625 514.938 275.875C513.854 276.125 512.729 276.375 511.562 276.625C510.646 277.125 509.562 277.667 508.312 278.25C507.062 278.75 505.771 279.25 504.438 279.75C503.104 280.167 501.771 280.5 500.438 280.75C499.104 280.917 497.938 280.958 496.938 280.875C494.438 281.792 491.979 282.375 489.562 282.625C487.229 282.958 484.479 282.792 481.312 282.125C478.312 282.542 475.521 282.417 472.938 281.75C470.438 281.083 468.188 280.042 466.188 278.625C464.271 277.125 462.562 275.375 461.062 273.375C459.646 271.292 458.479 269.125 457.562 266.875C456.896 262.125 457.062 257.833 458.062 254C459.062 250.083 460.479 246.5 462.312 243.25C464.229 239.917 466.396 236.875 468.812 234.125C471.229 231.292 473.562 228.542 475.812 225.875C476.312 226.042 476.688 226.042 476.938 225.875C477.271 225.625 477.562 225.333 477.812 225C478.062 224.583 478.312 224.208 478.562 223.875C478.896 223.542 479.271 223.333 479.688 223.25C480.271 222 481.104 221.083 482.188 220.5C483.354 219.833 484.271 218.917 484.938 217.75C485.688 217.583 486.312 217.333 486.812 217C487.312 216.667 487.771 216.292 488.188 215.875C488.688 215.458 489.188 215.083 489.688 214.75C490.188 214.333 490.771 214.042 491.438 213.875V212.5C492.938 211.833 494.021 211.083 494.688 210.25C495.438 209.333 496.312 208.25 497.312 207C498.062 206.917 498.646 206.875 499.062 206.875C499.562 206.875 500.271 206.792 501.188 206.625C501.854 205.458 502.438 204.583 502.938 204C503.521 203.417 504.354 202.792 505.438 202.125C506.438 202.625 507.521 202.958 508.688 203.125C509.938 203.292 511.021 203.833 511.938 204.75C512.021 205.583 512.271 206.25 512.688 206.75C513.104 207.167 513.562 207.583 514.062 208C514.562 208.333 515.021 208.708 515.438 209.125C515.938 209.542 516.271 210.125 516.438 210.875C516.771 210.958 516.979 210.917 517.062 210.75C517.229 210.583 517.479 210.542 517.812 210.625C518.062 211.792 518.354 212.583 518.688 213C519.021 213.333 519.354 214.042 519.688 215.125C519.271 215.958 518.938 216.833 518.688 217.75C518.521 218.583 518.021 219.208 517.188 219.625C517.104 220.208 517.271 220.542 517.688 220.625C518.104 220.625 518.354 220.833 518.438 221.25C518.521 222 518.396 222.542 518.062 222.875C520.062 226.125 521.854 229.583 523.438 233.25C525.021 236.833 526.812 240.25 528.812 243.5ZM513.188 255.375C513.521 254.458 513.938 253.708 514.438 253.125C515.021 252.542 515.354 251.667 515.438 250.5C515.021 249.833 514.771 249.333 514.688 249C514.604 248.583 514.562 247.958 514.562 247.125C512.729 244.542 511.146 241.792 509.812 238.875C508.479 235.875 506.979 233.083 505.312 230.5C505.146 230.833 504.854 231.167 504.438 231.5C504.021 231.833 503.562 231.75 503.062 231.25C502.896 231.917 502.604 232.417 502.188 232.75C501.771 233 501.312 233.125 500.812 233.125C500.312 233.042 499.771 232.917 499.188 232.75C498.688 232.5 498.229 232.208 497.812 231.875C495.396 233.792 492.979 235.667 490.562 237.5C488.146 239.333 485.979 241.458 484.062 243.875C483.729 244.042 483.521 244.125 483.438 244.125C483.354 244.042 483.104 244.083 482.688 244.25C482.021 245.833 481.188 247.292 480.188 248.625C479.271 249.875 478.354 251.167 477.438 252.5C476.521 253.833 475.729 255.25 475.062 256.75C474.396 258.25 474.021 260 473.938 262C475.354 263.167 477.021 263.875 478.938 264.125C480.854 264.375 482.812 264.417 484.812 264.25C486.896 264.083 488.896 263.833 490.812 263.5C492.812 263.083 494.646 262.875 496.312 262.875C499.812 262.042 502.812 260.958 505.312 259.625C507.812 258.208 510.438 256.792 513.188 255.375ZM553.938 276.75C553.438 279.583 552.021 281.542 549.688 282.625C548.604 282.708 547.771 282.667 547.188 282.5C546.688 282.333 546.146 282.125 545.562 281.875C544.812 281.542 544.146 281.333 543.562 281.25L542.188 280.25C542.021 279.833 541.812 279.417 541.562 279C541.312 278.583 541.021 278.167 540.688 277.75C540.021 276.917 539.354 275.875 538.688 274.625C538.188 272.208 538.104 270.208 538.438 268.625C538.771 266.958 539.188 265.333 539.688 263.75C539.854 263.25 540.021 262.75 540.188 262.25C540.354 261.667 540.521 261.125 540.688 260.625C538.521 259.458 536.896 257.792 535.812 255.625C534.729 253.458 534.104 251.375 533.938 249.375C534.188 247.792 534.646 246.542 535.312 245.625C535.979 244.625 536.729 243.833 537.562 243.25C538.479 242.667 539.396 242.208 540.312 241.875C541.312 241.542 542.271 241.25 543.188 241L544.812 241.625C545.562 242.375 546.312 242.958 547.062 243.375C547.646 243.125 548.021 242.75 548.188 242.25C548.438 241.667 548.646 241.042 548.812 240.375C549.062 239.625 549.312 238.875 549.562 238.125C549.896 237.375 550.271 236.625 550.688 235.875C550.604 234.792 550.771 233.792 551.188 232.875C550.604 232.458 549.979 232.208 549.312 232.125C549.146 232.125 548.729 232.042 548.062 231.875C547.062 231.125 546.354 230.5 545.938 230C545.604 229.417 545.271 228.875 544.938 228.375C544.438 227.292 543.812 226.417 543.062 225.75L541.812 224.875L542.438 223.625C542.604 223.458 542.688 223.25 542.688 223C542.688 222.75 542.521 222.375 542.188 221.875C542.021 220.958 542.021 220.333 542.188 220L542.438 218.75C543.104 217.833 543.438 217.333 543.438 217.25L544.562 216.125C546.229 215.708 547.854 215.25 549.438 214.75C551.104 214.167 552.771 213.583 554.438 213C556.021 212.5 557.604 212 559.188 211.5C560.854 210.917 562.521 210.417 564.188 210C564.771 209.583 565.396 209.333 566.062 209.25C566.729 209.083 567.354 208.958 567.938 208.875C568.438 208.792 568.896 208.75 569.312 208.75C569.729 208.667 570.021 208.5 570.188 208.25C571.188 207.917 572.354 207.542 573.688 207.125C575.771 206.542 578.521 205.917 581.938 205.25C585.354 204.5 589.188 203.917 593.438 203.5L595.562 203.375C595.979 203.458 596.396 203.5 596.812 203.5C597.229 203.417 597.646 203.375 598.062 203.375C601.812 203.375 604.188 204.5 605.188 206.75C605.938 207.167 606.604 207.625 607.188 208.125C607.771 208.625 608.312 209.125 608.812 209.625C609.062 209.958 609.312 210.25 609.562 210.5C609.896 210.75 610.146 210.917 610.312 211C611.729 213.167 612.188 215.083 611.688 216.75C610.938 217.833 609.979 218.458 608.812 218.625L607.438 219.375C606.521 219.292 605.812 219.25 605.312 219.25C604.896 219.25 604.438 219.25 603.938 219.25C601.854 219.25 599.438 219.375 596.688 219.625C593.938 219.875 591.104 220.25 588.188 220.75C585.354 221.167 582.604 221.708 579.938 222.375C577.271 223.042 574.938 223.75 572.938 224.5L570.688 225.625C570.104 226.542 569.771 227.292 569.688 227.875C569.604 228.375 569.521 228.875 569.438 229.375C569.354 229.708 569.271 230.042 569.188 230.375C569.188 230.708 569.146 231.083 569.062 231.5C567.646 233.25 566.938 235.333 566.938 237.75C566.354 238.75 565.979 239.5 565.812 240C565.646 240.417 565.646 240.958 565.812 241.625C567.396 242.292 568.896 242.542 570.312 242.375C571.729 242.208 573.146 242 574.562 241.75C576.479 241.417 578.438 241.125 580.438 240.875C582.521 240.625 584.646 240.5 586.812 240.5H590.812L589.812 241.5L590.438 243.25C590.938 243.5 591.271 243.667 591.438 243.75C591.688 243.833 591.938 243.958 592.188 244.125L592.812 245.25C593.146 245.417 593.438 245.708 593.688 246.125C594.021 246.542 594.229 247.167 594.312 248L589.188 255.25L587.438 255.75C586.021 255.667 584.771 255.833 583.688 256.25C583.104 256.417 582.521 256.583 581.938 256.75C581.354 256.833 580.729 256.875 580.062 256.875C578.396 257.208 576.979 257.458 575.812 257.625C574.729 257.792 573.604 257.958 572.438 258.125C570.938 258.292 569.479 258.542 568.062 258.875C566.646 259.125 565.312 259.5 564.062 260C563.229 260 562.646 260 562.312 260C561.646 260 560.938 260.125 560.188 260.375C559.521 260.542 558.896 260.708 558.312 260.875C557.896 261.208 557.604 261.583 557.438 262C557.271 262.333 557.104 262.708 556.938 263.125C556.604 264.292 556.146 265.25 555.562 266V267.875C554.896 268.708 554.479 269.375 554.312 269.875C554.229 270.292 554.104 270.708 553.938 271.125C553.771 271.375 553.646 271.625 553.562 271.875C553.479 272.042 553.438 272.25 553.438 272.5C554.104 273.75 554.271 275.167 553.938 276.75ZM665.812 220.875C663.729 220.875 661.479 221.042 659.062 221.375C656.646 221.625 654.271 221.917 651.938 222.25C650.271 222.5 648.646 222.708 647.062 222.875C645.562 223.042 644.188 223.167 642.938 223.25C642.354 225.083 641.771 226.708 641.188 228.125C640.604 229.542 639.979 230.917 639.312 232.25C638.646 233.667 638.021 235.125 637.438 236.625C636.938 238.042 636.438 239.583 635.938 241.25C635.104 242.583 634.396 243.833 633.812 245C633.312 246.083 632.896 247.333 632.562 248.75C631.562 250 630.812 251.333 630.312 252.75C629.812 254.083 629.438 255.25 629.188 256.25L628.688 257.75C628.188 258.25 627.896 258.667 627.812 259C627.729 259.25 627.521 259.5 627.188 259.75C627.104 260.667 626.812 261.583 626.312 262.5C626.146 262.917 626.021 263.333 625.938 263.75C625.854 264.083 625.812 264.333 625.812 264.5C625.812 265.333 625.604 265.875 625.188 266.125C625.271 266.542 625.271 267 625.188 267.5C625.104 267.917 625.021 268.333 624.938 268.75C624.688 269.75 624.604 270.542 624.688 271.125C624.938 271.458 625.146 271.75 625.312 272C625.562 272.25 625.729 272.583 625.812 273C626.312 273.333 626.688 273.542 626.938 273.625C627.271 273.875 627.771 274.167 628.438 274.5L629.562 275.75C629.979 278.167 629.604 280.083 628.438 281.5C627.188 283.083 625.062 283.875 622.062 283.875H620.562C620.146 283.458 619.896 283.125 619.812 282.875C619.146 282.625 618.604 282.417 618.188 282.25C617.771 282.083 617.396 281.75 617.062 281.25C615.979 280.75 615.104 280.333 614.438 280L613.312 279.375C613.312 278.458 613.312 277.958 613.312 277.875C612.729 277.125 612.271 276.292 611.938 275.375C611.688 274.458 611.479 273.542 611.312 272.625C611.146 271.875 610.938 271.167 610.688 270.5C610.521 269.833 610.271 269.25 609.938 268.75C609.771 263.917 610.229 259.833 611.312 256.5C612.396 253.167 613.521 249.958 614.688 246.875C615.354 245.208 616.021 243.542 616.688 241.875C617.354 240.125 617.938 238.333 618.438 236.5L619.562 235.25C620.146 233.917 620.604 232.833 620.938 232C621.354 231.083 621.771 230.167 622.188 229.25C622.438 228.667 622.646 228.125 622.812 227.625C623.062 227.042 623.271 226.542 623.438 226.125C622.938 226.125 622.479 226.167 622.062 226.25C621.646 226.25 621.229 226.292 620.812 226.375C620.312 226.458 619.854 226.542 619.438 226.625C619.021 226.625 618.604 226.625 618.188 226.625C617.604 226.625 617.188 226.583 616.938 226.5C616.021 226.917 615.021 227.125 613.938 227.125H612.688C612.438 227.125 612.188 227.125 611.938 227.125C611.771 227.042 611.604 227 611.438 227C610.604 227 609.938 227.125 609.438 227.375C608.438 227.375 607.479 227.375 606.562 227.375H605.312C605.146 227.375 604.938 227.417 604.688 227.5C604.438 227.5 604.229 227.5 604.062 227.5C603.479 227.5 602.854 227.458 602.188 227.375C601.521 227.208 600.812 226.917 600.062 226.5C599.062 225.167 598.396 224.458 598.062 224.375L596.938 222.875C596.854 222.375 596.729 221.917 596.562 221.5C596.396 221 596.229 220.458 596.062 219.875C595.729 219.042 595.396 218.167 595.062 217.25C594.812 216.25 594.688 215.083 594.688 213.75C594.771 213.083 594.938 212.583 595.188 212.25C595.438 211.917 595.646 211.625 595.812 211.375L596.188 209.5L597.812 209.625H601.312C603.979 209.625 606.688 209.542 609.438 209.375C612.188 209.125 615.021 208.875 617.938 208.625C619.604 208.458 621.271 208.292 622.938 208.125C624.688 207.958 626.479 207.792 628.312 207.625C628.646 206.875 628.979 206.167 629.312 205.5L630.562 204.875C632.062 204.792 633.104 205 633.688 205.5C634.354 205.917 634.896 206.333 635.312 206.75C637.146 206.583 638.979 206.417 640.812 206.25C642.729 206 644.646 205.708 646.562 205.375C649.396 204.958 652.229 204.583 655.062 204.25C657.979 203.917 660.771 203.75 663.438 203.75C664.604 203.75 665.729 203.792 666.812 203.875C667.896 203.958 668.896 204.083 669.812 204.25L671.062 205.125C671.312 205.625 671.646 206.083 672.062 206.5C672.562 206.917 673.062 207.333 673.562 207.75C674.562 208.667 675.562 209.75 676.562 211C677.562 212.25 677.938 214.083 677.688 216.5C677.021 217.5 676.521 218.083 676.188 218.25L675.062 219.75L673.812 219.625C673.312 219.625 672.854 219.708 672.438 219.875C672.021 219.958 671.604 220.083 671.188 220.25C670.854 220.417 670.521 220.583 670.188 220.75C669.854 220.833 669.479 220.917 669.062 221C668.312 221 667.688 221 667.188 221C666.771 220.917 666.312 220.875 665.812 220.875ZM726.438 282.625C723.521 281.292 721.188 279.333 719.438 276.75C717.771 274.167 716.104 271.292 714.438 268.125C714.188 267.625 713.938 267.125 713.688 266.625C713.438 266.125 713.188 265.667 712.938 265.25L711.188 262L710.188 260L708.688 261.375L706.438 263.375L705.188 264.625C703.021 266.625 700.812 268.625 698.562 270.625C696.396 272.542 694.062 274.292 691.562 275.875C689.146 277.375 686.562 278.625 683.812 279.625C681.146 280.542 678.229 281.042 675.062 281.125L672.312 279.75C670.729 278.917 669.396 278.167 668.312 277.5C667.229 276.833 665.979 275.792 664.562 274.375C664.146 273.625 663.771 272.917 663.438 272.25C663.188 271.583 662.896 270.917 662.562 270.25C661.646 268.583 660.896 267.083 660.312 265.75C659.729 264.417 659.146 262.917 658.562 261.25C658.812 260.083 659.188 258.125 659.688 255.375C660.188 252.542 660.771 249.458 661.438 246.125C662.188 242.792 662.938 239.458 663.688 236.125C664.521 232.708 665.354 229.75 666.188 227.25C666.938 225.083 667.771 222.792 668.688 220.375C669.688 217.958 670.729 215.75 671.812 213.75C672.979 211.667 674.229 209.917 675.562 208.5C676.896 207 678.312 206.125 679.812 205.875C680.229 206.458 680.688 206.875 681.188 207.125C681.688 207.375 682.146 207.583 682.562 207.75C683.729 209.417 684.854 210.833 685.938 212C687.104 213.167 688.438 214.333 689.938 215.5C689.521 217.583 688.896 219.917 688.062 222.5C687.312 225 686.479 227.542 685.562 230.125C684.729 232.625 683.896 235.083 683.062 237.5C682.229 239.917 681.562 242 681.062 243.75C680.562 245.167 680.146 246.75 679.812 248.5C679.062 251.583 678.354 255.792 677.688 261.125C678.688 260.875 679.771 260.333 680.938 259.5C682.104 258.667 683.229 257.792 684.312 256.875C685.562 255.875 686.812 254.75 688.062 253.5C689.646 251.917 690.979 250.458 692.062 249.125C693.146 247.792 694.146 246.417 695.062 245C696.062 243.583 697.062 242.042 698.062 240.375C699.062 238.625 700.271 236.583 701.688 234.25C702.938 232.25 704.229 230.125 705.562 227.875C706.979 225.542 708.354 223.333 709.688 221.25C711.104 219.083 712.479 217.125 713.812 215.375C715.146 213.625 716.354 212.25 717.438 211.25C718.104 212.083 718.938 212.875 719.938 213.625C721.021 214.375 722.146 214.958 723.312 215.375C723.812 216.125 724.271 216.833 724.688 217.5C725.188 218.083 725.646 218.625 726.062 219.125C726.562 219.875 727.021 220.583 727.438 221.25C727.938 221.917 728.396 222.583 728.812 223.25C728.729 223.833 728.604 224.583 728.438 225.5C728.271 226.417 728.062 227.417 727.812 228.5C727.646 229.583 727.438 230.708 727.188 231.875C726.938 232.958 726.688 234 726.438 235C725.771 238.167 725.271 240.542 724.938 242.125C724.604 243.708 724.354 244.958 724.188 245.875C724.104 246.792 724.021 247.583 723.938 248.25C723.938 248.833 723.938 249.667 723.938 250.75C723.854 251.583 723.896 252.417 724.062 253.25C724.146 254 724.312 254.792 724.562 255.625C724.812 256.458 725.146 257.208 725.562 257.875L730.562 254C731.979 252.917 733.312 251.458 734.562 249.625C735.896 247.708 737.146 245.542 738.312 243.125C739.562 240.625 740.771 237.917 741.938 235C743.104 232.083 744.271 229.125 745.438 226.125C747.188 221.708 748.938 217.417 750.688 213.25C752.521 209.083 754.271 205.875 755.938 203.625C757.771 204.792 759.354 206 760.688 207.25C762.104 208.417 763.312 209.708 764.312 211.125C765.312 212.542 766.104 214.167 766.688 216C767.354 217.833 767.812 220 768.062 222.5C766.562 225.417 765.104 228.417 763.688 231.5C762.354 234.583 761.062 237.667 759.812 240.75C758.146 244.75 756.396 248.75 754.562 252.75C752.812 256.75 750.854 260.583 748.688 264.25C746.521 267.833 744.104 271.167 741.438 274.25C738.771 277.25 735.688 279.792 732.188 281.875C731.271 281.625 730.479 281.5 729.812 281.5C728.479 281.5 727.354 281.875 726.438 282.625ZM826.562 270.5C826.062 271.917 825.312 273.375 824.312 274.875C823.396 276.292 822.271 277.583 820.938 278.75C819.688 279.833 818.271 280.75 816.688 281.5C815.104 282.25 813.438 282.667 811.688 282.75C810.604 282.5 809.854 282.208 809.438 281.875C809.104 281.625 808.729 281.375 808.312 281.125C808.062 280.958 807.812 280.833 807.562 280.75C807.396 280.583 807.229 280.458 807.062 280.375L805.562 279.75L806.062 278.125C806.229 277.458 806.188 276.958 805.938 276.625C805.688 276.208 805.188 275.667 804.438 275C804.188 274.75 803.938 274.5 803.688 274.25C803.438 274 803.229 273.75 803.062 273.5L800.938 271.125L804.312 270.25C806.396 269.667 807.771 268.917 808.438 268C809.188 267.083 809.479 265.542 809.312 263.375C807.646 263.042 806.229 263 805.062 263.25C803.979 263.5 802.854 263.792 801.688 264.125C800.188 264.542 798.646 264.917 797.062 265.25C795.562 265.5 793.896 265.625 792.062 265.625C791.396 265.625 790.771 265.625 790.188 265.625C789.604 265.542 788.979 265.458 788.312 265.375L787.062 265.125C786.896 264.208 786.729 263.708 786.562 263.625C786.396 263.458 786.229 263.292 786.062 263.125C785.646 262.708 785.188 262.167 784.688 261.5C784.271 260.75 784.188 259.833 784.438 258.75C784.021 258 783.771 257.25 783.688 256.5C783.188 257.5 782.812 258.542 782.562 259.625L782.062 260.875L780.812 261.125C780.646 261.208 780.521 261.417 780.438 261.75C780.354 262 780.312 262.208 780.312 262.375L779.688 264.5C779.521 264.667 779.354 264.833 779.188 265C779.021 265.083 778.854 265.208 778.688 265.375C778.521 266.125 778.312 266.875 778.062 267.625C777.812 268.375 777.562 269.083 777.312 269.75C776.896 270.833 776.521 271.917 776.188 273C775.938 274 775.854 275 775.938 276L775.438 277.375C775.021 277.875 774.562 278.292 774.062 278.625C773.562 278.875 773.062 279.125 772.562 279.375C772.396 279.542 772.146 279.708 771.812 279.875C771.562 279.958 771.354 280.042 771.188 280.125L770.812 281.5L769.312 281.75C768.396 281.917 767.729 282.042 767.312 282.125C766.979 282.208 766.562 282.25 766.062 282.25L764.812 282.125C763.896 281.375 763.188 280.792 762.688 280.375C762.188 279.875 761.604 279.417 760.938 279C760.188 278 759.771 277.25 759.688 276.75C759.604 276.25 759.521 275.792 759.438 275.375C759.271 274.875 759.188 274.458 759.188 274.125C759.104 273.792 758.979 273.542 758.812 273.375L757.188 271.875L758.562 270.75L758.688 268.625C760.354 264.375 762.104 260.292 763.938 256.375C765.854 252.458 767.812 248.458 769.812 244.375C770.479 243.042 771.104 241.708 771.688 240.375C772.354 239.042 773.021 237.708 773.688 236.375C773.604 236.125 773.562 235.833 773.562 235.5C773.562 235.167 773.646 234.792 773.812 234.375C774.729 232.958 775.479 231.708 776.062 230.625C776.646 229.458 777.229 228.292 777.812 227.125C778.479 225.708 779.146 224.333 779.812 223C780.562 221.667 781.479 220.292 782.562 218.875L784.562 218C784.812 217.917 785.104 217.833 785.438 217.75C785.771 217.583 786.146 217.5 786.562 217.5L788.438 217.75C790.771 216.667 792.812 215.167 794.562 213.25C796.312 211.25 798.104 208.875 799.938 206.125L801.188 204.375L802.812 205.375C803.229 205.625 803.812 205.875 804.562 206.125C805.312 206.292 806.104 206.5 806.938 206.75C808.438 207.083 809.854 207.458 811.188 207.875C812.521 208.292 813.604 208.917 814.438 209.75C814.938 211.083 815.229 212.083 815.312 212.75C815.396 213.417 815.521 214.083 815.688 214.75C815.938 216.167 816.146 217.583 816.312 219C816.562 220.417 816.729 222 816.812 223.75C817.229 225.167 817.562 226.583 817.812 228C818.146 229.333 818.438 230.708 818.688 232.125C819.104 234.125 819.521 236.083 819.938 238C820.354 239.833 820.896 241.583 821.562 243.25C822.229 243.25 822.646 243.292 822.812 243.375C823.229 243.208 823.646 243.083 824.062 243C824.562 242.917 825.104 242.833 825.688 242.75L827.062 242.625L827.562 243.875C827.646 244.292 828.062 244.708 828.812 245.125C829.896 245.208 830.688 245.458 831.188 245.875C831.688 246.208 832.146 246.583 832.562 247C832.896 247.333 833.229 247.583 833.562 247.75L835.438 248.5L834.438 250.375C833.604 251.875 832.396 253.333 830.812 254.75C829.312 256.083 827.604 257.208 825.688 258.125C825.771 258.625 825.812 259.125 825.812 259.625C825.896 260.042 826.021 260.5 826.188 261C826.438 262.417 826.646 263.875 826.812 265.375C826.979 266.875 826.979 268.417 826.812 270L826.562 270.5ZM790.438 248.875C792.938 248.708 795.188 248.542 797.188 248.375C799.271 248.125 801.562 247.75 804.062 247.25C803.479 244.75 802.854 242.167 802.188 239.5C801.521 236.75 800.812 234.042 800.062 231.375L799.312 232.625C797.646 234.375 796.021 236.333 794.438 238.5C792.938 240.667 791.646 242.708 790.562 244.625C790.062 245.375 789.562 246.125 789.062 246.875C788.562 247.625 788.104 248.375 787.688 249.125C788.188 249.042 788.646 249 789.062 249C789.562 249 790.021 248.958 790.438 248.875ZM854.938 268C854.021 271.333 853.188 273.875 852.438 275.625C851.771 277.292 850.729 279.042 849.312 280.875C848.229 280.708 847.479 280.833 847.062 281.25C846.646 281.667 846.188 282.042 845.688 282.375C844.938 282.542 844.396 282.542 844.062 282.375C843.729 282.208 843.438 282 843.188 281.75C842.938 281.583 842.604 281.375 842.188 281.125C841.854 280.958 841.312 280.875 840.562 280.875C840.396 280.208 840.188 279.583 839.938 279C839.771 278.417 839.229 278.208 838.312 278.375C838.479 277.708 838.521 277.167 838.438 276.75C838.354 276.25 838.229 275.833 838.062 275.5C837.979 275.083 837.896 274.708 837.812 274.375C837.729 273.958 837.771 273.458 837.938 272.875C837.521 272.875 837.188 272.583 836.938 272C836.688 271.417 836.396 270.833 836.062 270.25C836.312 268.75 836.562 267.333 836.812 266C837.062 264.667 837.354 263.417 837.688 262.25C838.104 261.083 838.438 259.917 838.688 258.75C838.938 257.583 838.812 256.375 838.312 255.125C838.646 255.375 838.896 255.333 839.062 255C839.229 254.583 839.354 254.083 839.438 253.5C839.521 252.833 839.562 252.208 839.562 251.625C839.562 250.958 839.521 250.417 839.438 250C840.271 247.833 840.938 245.625 841.438 243.375C842.021 241.042 842.521 238.75 842.938 236.5C843.438 234.25 843.938 232.042 844.438 229.875C844.938 227.708 845.604 225.708 846.438 223.875C847.354 223.708 848.354 223.833 849.438 224.25C850.604 224.583 851.312 225.042 851.562 225.625C853.729 223.958 855.646 221.958 857.312 219.625C858.979 217.208 860.688 214.875 862.438 212.625C864.188 210.375 866.104 208.375 868.188 206.625C870.354 204.875 873.062 203.833 876.312 203.5C877.979 204.75 879.812 206.042 881.812 207.375C883.896 208.625 885.604 210.292 886.938 212.375C887.604 212.708 888.146 213.083 888.562 213.5C889.062 213.833 889.646 214.208 890.312 214.625V216.125C891.312 217.042 892.104 218.125 892.688 219.375C893.354 220.542 893.938 221.833 894.438 223.25C894.938 224.583 895.438 225.958 895.938 227.375C896.438 228.708 897.021 230 897.688 231.25C897.521 231.667 897.438 232.042 897.438 232.375C897.438 232.625 897.479 232.917 897.562 233.25C897.729 233.583 897.854 233.917 897.938 234.25C898.021 234.583 898.021 235.042 897.938 235.625C897.688 239.292 896.479 242.25 894.312 244.5C892.229 246.75 889.688 248.625 886.688 250.125C883.688 251.542 880.479 252.75 877.062 253.75C873.646 254.75 870.562 255.833 867.812 257C867.812 257.333 867.938 257.5 868.188 257.5C868.521 257.5 868.646 257.708 868.562 258.125C870.562 259.375 872.146 260.375 873.312 261.125C874.479 261.875 875.562 262.5 876.562 263C877.646 263.5 878.771 263.958 879.938 264.375C881.188 264.708 882.896 265.125 885.062 265.625C887.229 266.125 888.896 266.542 890.062 266.875C891.312 267.125 892.438 267.375 893.438 267.625C894.438 267.792 895.438 267.958 896.438 268.125C897.521 268.208 899.021 268.333 900.938 268.5C901.688 269.25 902.312 270.167 902.812 271.25C903.396 272.25 903.771 273.292 903.938 274.375C904.104 275.375 904.146 276.375 904.062 277.375C903.979 278.292 903.688 279.042 903.188 279.625C903.271 279.875 903.438 280 903.688 280C904.021 279.917 904.354 279.917 904.688 280C904.188 280.333 903.771 280.75 903.438 281.25C903.104 281.75 902.771 282.25 902.438 282.75C902.104 283.25 901.729 283.667 901.312 284C900.896 284.417 900.312 284.667 899.562 284.75C896.979 285.75 893.729 285.792 889.812 284.875C885.896 284.042 880.938 282.458 874.938 280.125C871.938 278.958 869.479 277.958 867.562 277.125C865.729 276.208 864.104 275.333 862.688 274.5C861.354 273.583 860.104 272.625 858.938 271.625C857.854 270.625 856.521 269.417 854.938 268ZM872.812 225.125C871.896 226.458 870.854 227.667 869.688 228.75C868.604 229.833 867.521 230.958 866.438 232.125C865.438 233.208 864.521 234.458 863.688 235.875C862.854 237.208 862.271 238.792 861.938 240.625C864.854 240.292 867.896 239.5 871.062 238.25C874.229 236.917 877.229 235.667 880.062 234.5C879.729 231.917 878.812 229.833 877.312 228.25C875.896 226.667 874.396 225.625 872.812 225.125ZM973.812 210.625C973.896 211.208 973.896 211.667 973.812 212C973.812 212.25 973.771 212.5 973.688 212.75C973.688 213 973.688 213.292 973.688 213.625C973.688 213.875 973.771 214.292 973.938 214.875C972.188 217.708 970.146 219.667 967.812 220.75C965.562 221.75 963.104 222.5 960.438 223C957.771 223.417 955.021 223.875 952.188 224.375C949.438 224.875 946.688 225.958 943.938 227.625C942.854 227.208 941.854 227.208 940.938 227.625C940.104 228.042 938.854 228.167 937.188 228C936.688 228.5 936.062 228.875 935.312 229.125C934.562 229.292 933.812 229.5 933.062 229.75C933.396 230.5 933.521 231.292 933.438 232.125C933.438 232.875 933.562 233.5 933.812 234C936.729 234.25 939.938 234.208 943.438 233.875C947.021 233.542 950.521 233.333 953.938 233.25C954.021 233.667 953.979 233.958 953.812 234.125C953.646 234.208 953.604 234.417 953.688 234.75C954.271 235.167 954.854 235.708 955.438 236.375C956.021 236.958 956.604 237.542 957.188 238.125C957.771 238.708 958.354 239.208 958.938 239.625C959.604 239.958 960.354 240.083 961.188 240C961.521 240.667 961.729 241.417 961.812 242.25C961.979 243 961.896 243.792 961.562 244.625C960.229 245.542 958.896 246.5 957.562 247.5C956.229 248.417 954.812 249.25 953.312 250C951.896 250.75 950.354 251.375 948.688 251.875C947.104 252.292 945.312 252.458 943.312 252.375C942.896 252.375 942.562 252.375 942.312 252.375C942.146 252.375 941.896 252.25 941.562 252C940.896 252.417 939.938 252.542 938.688 252.375C937.521 252.208 936.604 252.333 935.938 252.75C935.021 252.333 933.896 252.167 932.562 252.25C931.312 252.25 930.188 252.083 929.188 251.75C927.854 253.5 926.646 255.375 925.562 257.375C924.479 259.375 923.521 261.5 922.688 263.75C925.521 264.167 927.854 264.333 929.688 264.25C931.604 264.167 933.396 264.042 935.062 263.875C936.729 263.625 938.438 263.417 940.188 263.25C941.938 263 944.146 262.917 946.812 263C948.479 262.083 950.438 261.5 952.688 261.25C955.021 260.917 957.146 260.417 959.062 259.75C959.729 260 960.312 260.458 960.812 261.125C961.312 261.708 961.771 262.292 962.188 262.875C962.688 263.375 963.188 263.833 963.688 264.25C964.188 264.667 964.812 264.833 965.562 264.75C965.896 265.083 966.104 265.5 966.188 266C966.354 266.417 966.479 266.833 966.562 267.25C966.646 267.667 966.771 268.042 966.938 268.375C967.188 268.625 967.562 268.708 968.062 268.625C966.812 271.375 965.354 273.5 963.688 275C962.104 276.417 960.271 277.5 958.188 278.25C956.104 279 953.771 279.583 951.188 280C948.688 280.417 945.896 280.917 942.812 281.5C942.062 281.667 941.438 281.625 940.938 281.375C940.438 281.208 939.854 281.125 939.188 281.125C937.271 281.542 934.979 281.917 932.312 282.25C929.646 282.583 926.938 282.708 924.188 282.625C921.438 282.542 918.812 282.167 916.312 281.5C913.812 280.917 911.771 279.833 910.188 278.25C909.521 277.667 909.062 277 908.812 276.25C908.646 275.417 908.104 274.792 907.188 274.375C907.104 273.292 906.938 272.083 906.688 270.75C906.438 269.417 906.188 268.042 905.938 266.625C905.688 265.125 905.479 263.667 905.312 262.25C905.229 260.833 905.312 259.542 905.562 258.375C905.812 257.125 906.312 256 907.062 255C907.896 254 908.188 252.917 907.938 251.75C908.354 251.667 908.604 251.458 908.688 251.125C908.771 250.708 909.104 250.542 909.688 250.625C910.188 249.125 910.729 247.708 911.312 246.375C911.896 245.042 912.479 243.75 913.062 242.5C913.729 241.25 914.354 240 914.938 238.75C915.604 237.417 916.229 235.958 916.812 234.375C915.646 233.292 914.771 232.125 914.188 230.875C913.688 229.542 913.312 228.25 913.062 227C912.812 225.667 912.604 224.333 912.438 223C912.271 221.583 911.979 220.167 911.562 218.75C912.396 217.5 913.396 216.5 914.562 215.75C915.812 214.917 917.146 214.25 918.562 213.75C919.979 213.25 921.521 212.833 923.188 212.5C924.854 212.167 926.604 211.792 928.438 211.375C931.771 210.292 934.729 209.458 937.312 208.875C939.979 208.292 942.562 207.833 945.062 207.5C947.646 207.083 950.312 206.708 953.062 206.375C955.812 206.042 958.938 205.542 962.438 204.875C963.188 205.625 963.896 206 964.562 206C964.896 205.25 965.271 205.042 965.688 205.375C966.188 205.625 966.396 205.375 966.312 204.625C967.146 206.042 968.188 207.25 969.438 208.25C970.771 209.167 972.229 209.958 973.812 210.625ZM989.062 266.125C989.229 266.792 989.354 267.417 989.438 268C989.521 268.583 989.646 269.208 989.812 269.875C989.479 270.708 989.188 271.542 988.938 272.375C988.688 273.125 988.438 273.875 988.188 274.625C987.938 275.208 987.771 275.583 987.688 275.75C987.604 275.917 987.562 276.042 987.562 276.125C987.562 276.208 987.562 276.333 987.562 276.5C987.646 276.583 987.688 276.917 987.688 277.5L987.188 279C986.771 279.583 986.271 280.042 985.688 280.375C985.104 280.708 984.521 281 983.938 281.25C983.771 281.417 983.521 281.542 983.188 281.625C982.854 281.792 982.604 281.958 982.438 282.125L982.062 283.625L980.438 283.875C979.021 284.208 977.812 284.375 976.812 284.375H975.312C974.312 283.458 973.521 282.75 972.938 282.25C972.354 281.75 971.729 281.292 971.062 280.875C970.229 279.708 969.771 278.875 969.688 278.375C969.604 277.792 969.479 277.25 969.312 276.75C969.146 275.667 968.938 274.958 968.688 274.625L966.938 272.875L968.438 271.75L967.062 269.375C968.062 268.625 968.812 268.083 969.312 267.75C969.812 267.417 970.229 267.083 970.562 266.75C970.896 266.333 971.271 265.833 971.688 265.25C972.104 264.667 972.771 263.708 973.688 262.375L974.812 260.75L976.438 261.625C976.771 261.875 977.479 262.125 978.562 262.375C979.729 262.542 980.729 262.708 981.562 262.875C982.979 263.292 984.312 263.625 985.562 263.875C986.812 264.042 987.812 264.458 988.562 265.125L989.062 266.125ZM1052.06 281.25C1050.73 281.333 1049.06 281.292 1047.06 281.125C1045.15 280.958 1043.35 281.25 1041.69 282C1037.27 281.833 1032.77 281.292 1028.19 280.375C1023.6 279.458 1019.4 278.333 1015.56 277C1014.73 276.083 1013.9 275.25 1013.06 274.5C1012.23 273.667 1011.1 273.083 1009.69 272.75C1007.69 271.167 1006.06 269.25 1004.81 267C1003.56 264.667 1002.56 262.208 1001.81 259.625C1001.06 257.042 1000.56 254.417 1000.31 251.75C1000.06 249 999.979 246.375 1000.06 243.875C1001.31 240.125 1003.06 236.917 1005.31 234.25C1007.65 231.5 1010.02 228.792 1012.44 226.125C1013.52 225.625 1014.31 225.125 1014.81 224.625C1015.4 224.042 1015.98 223.542 1016.56 223.125C1017.23 222.625 1017.85 222.167 1018.44 221.75C1019.1 221.25 1019.69 220.667 1020.19 220C1021.94 219.583 1023.44 219 1024.69 218.25C1026.02 217.417 1027.31 216.583 1028.56 215.75C1029.81 214.833 1031.1 214 1032.44 213.25C1033.77 212.5 1035.31 211.917 1037.06 211.5C1037.73 210.75 1038.52 210.167 1039.44 209.75C1040.35 209.25 1041.27 208.792 1042.19 208.375C1043.19 207.875 1044.1 207.375 1044.94 206.875C1045.85 206.375 1046.56 205.708 1047.06 204.875C1047.48 205.542 1048.06 205.792 1048.81 205.625C1049.56 205.375 1050.27 205.125 1050.94 204.875C1051.35 204.792 1051.69 204.875 1051.94 205.125C1052.27 205.375 1052.56 205.625 1052.81 205.875C1053.06 206.125 1053.27 206.292 1053.44 206.375C1053.69 206.375 1053.9 206.167 1054.06 205.75C1054.48 205.75 1054.6 205.958 1054.44 206.375C1054.27 206.792 1054.15 207.083 1054.06 207.25C1054.73 207.167 1055.27 207.333 1055.69 207.75C1056.19 208.083 1056.94 208.292 1057.94 208.375C1058.27 208.792 1058.35 209.125 1058.19 209.375C1058.02 209.542 1057.94 209.875 1057.94 210.375C1060.44 211.125 1062.02 212.333 1062.69 214C1063.35 215.583 1063.4 217.25 1062.81 219C1062.23 220.75 1061.19 222.375 1059.69 223.875C1058.19 225.375 1056.56 226.375 1054.81 226.875C1050.81 227.958 1047.02 229.167 1043.44 230.5C1039.94 231.75 1037.06 233.625 1034.81 236.125C1032.81 236.708 1031.02 237.5 1029.44 238.5C1027.94 239.417 1026.48 240.5 1025.06 241.75C1023.73 242.917 1022.44 244.167 1021.19 245.5C1020.02 246.75 1018.77 248 1017.44 249.25C1017.52 250.417 1017.31 251.333 1016.81 252C1016.4 252.583 1015.98 253.208 1015.56 253.875C1015.73 255.125 1016.02 256.25 1016.44 257.25C1016.85 258.167 1017.31 259.083 1017.81 260C1023.31 261.667 1029.15 262.708 1035.31 263.125C1041.56 263.542 1047.81 263.792 1054.06 263.875C1054.65 264.708 1055.31 265.5 1056.06 266.25C1056.9 266.917 1057.65 267.667 1058.31 268.5C1058.98 269.25 1059.52 270.125 1059.94 271.125C1060.35 272.042 1060.44 273.208 1060.19 274.625C1059.02 275.875 1057.73 277.042 1056.31 278.125C1054.9 279.125 1053.48 280.167 1052.06 281.25ZM1138.69 243.5C1138.6 244.5 1138.69 245.458 1138.94 246.375C1139.19 247.292 1139.48 248.208 1139.81 249.125C1140.23 249.958 1140.6 250.833 1140.94 251.75C1141.27 252.667 1141.52 253.583 1141.69 254.5C1141.85 255.667 1141.85 256.958 1141.69 258.375C1141.52 259.708 1141.23 261.042 1140.81 262.375C1140.4 263.625 1139.85 264.792 1139.19 265.875C1138.52 266.875 1137.73 267.625 1136.81 268.125C1135.65 269.625 1134.23 270.792 1132.56 271.625C1130.9 272.458 1129.35 273.458 1127.94 274.625C1127.02 275.208 1125.98 275.625 1124.81 275.875C1123.73 276.125 1122.6 276.375 1121.44 276.625C1120.52 277.125 1119.44 277.667 1118.19 278.25C1116.94 278.75 1115.65 279.25 1114.31 279.75C1112.98 280.167 1111.65 280.5 1110.31 280.75C1108.98 280.917 1107.81 280.958 1106.81 280.875C1104.31 281.792 1101.85 282.375 1099.44 282.625C1097.1 282.958 1094.35 282.792 1091.19 282.125C1088.19 282.542 1085.4 282.417 1082.81 281.75C1080.31 281.083 1078.06 280.042 1076.06 278.625C1074.15 277.125 1072.44 275.375 1070.94 273.375C1069.52 271.292 1068.35 269.125 1067.44 266.875C1066.77 262.125 1066.94 257.833 1067.94 254C1068.94 250.083 1070.35 246.5 1072.19 243.25C1074.1 239.917 1076.27 236.875 1078.69 234.125C1081.1 231.292 1083.44 228.542 1085.69 225.875C1086.19 226.042 1086.56 226.042 1086.81 225.875C1087.15 225.625 1087.44 225.333 1087.69 225C1087.94 224.583 1088.19 224.208 1088.44 223.875C1088.77 223.542 1089.15 223.333 1089.56 223.25C1090.15 222 1090.98 221.083 1092.06 220.5C1093.23 219.833 1094.15 218.917 1094.81 217.75C1095.56 217.583 1096.19 217.333 1096.69 217C1097.19 216.667 1097.65 216.292 1098.06 215.875C1098.56 215.458 1099.06 215.083 1099.56 214.75C1100.06 214.333 1100.65 214.042 1101.31 213.875V212.5C1102.81 211.833 1103.9 211.083 1104.56 210.25C1105.31 209.333 1106.19 208.25 1107.19 207C1107.94 206.917 1108.52 206.875 1108.94 206.875C1109.44 206.875 1110.15 206.792 1111.06 206.625C1111.73 205.458 1112.31 204.583 1112.81 204C1113.4 203.417 1114.23 202.792 1115.31 202.125C1116.31 202.625 1117.4 202.958 1118.56 203.125C1119.81 203.292 1120.9 203.833 1121.81 204.75C1121.9 205.583 1122.15 206.25 1122.56 206.75C1122.98 207.167 1123.44 207.583 1123.94 208C1124.44 208.333 1124.9 208.708 1125.31 209.125C1125.81 209.542 1126.15 210.125 1126.31 210.875C1126.65 210.958 1126.85 210.917 1126.94 210.75C1127.1 210.583 1127.35 210.542 1127.69 210.625C1127.94 211.792 1128.23 212.583 1128.56 213C1128.9 213.333 1129.23 214.042 1129.56 215.125C1129.15 215.958 1128.81 216.833 1128.56 217.75C1128.4 218.583 1127.9 219.208 1127.06 219.625C1126.98 220.208 1127.15 220.542 1127.56 220.625C1127.98 220.625 1128.23 220.833 1128.31 221.25C1128.4 222 1128.27 222.542 1127.94 222.875C1129.94 226.125 1131.73 229.583 1133.31 233.25C1134.9 236.833 1136.69 240.25 1138.69 243.5ZM1123.06 255.375C1123.4 254.458 1123.81 253.708 1124.31 253.125C1124.9 252.542 1125.23 251.667 1125.31 250.5C1124.9 249.833 1124.65 249.333 1124.56 249C1124.48 248.583 1124.44 247.958 1124.44 247.125C1122.6 244.542 1121.02 241.792 1119.69 238.875C1118.35 235.875 1116.85 233.083 1115.19 230.5C1115.02 230.833 1114.73 231.167 1114.31 231.5C1113.9 231.833 1113.44 231.75 1112.94 231.25C1112.77 231.917 1112.48 232.417 1112.06 232.75C1111.65 233 1111.19 233.125 1110.69 233.125C1110.19 233.042 1109.65 232.917 1109.06 232.75C1108.56 232.5 1108.1 232.208 1107.69 231.875C1105.27 233.792 1102.85 235.667 1100.44 237.5C1098.02 239.333 1095.85 241.458 1093.94 243.875C1093.6 244.042 1093.4 244.125 1093.31 244.125C1093.23 244.042 1092.98 244.083 1092.56 244.25C1091.9 245.833 1091.06 247.292 1090.06 248.625C1089.15 249.875 1088.23 251.167 1087.31 252.5C1086.4 253.833 1085.6 255.25 1084.94 256.75C1084.27 258.25 1083.9 260 1083.81 262C1085.23 263.167 1086.9 263.875 1088.81 264.125C1090.73 264.375 1092.69 264.417 1094.69 264.25C1096.77 264.083 1098.77 263.833 1100.69 263.5C1102.69 263.083 1104.52 262.875 1106.19 262.875C1109.69 262.042 1112.69 260.958 1115.19 259.625C1117.69 258.208 1120.31 256.792 1123.06 255.375ZM1232.81 278.75C1231.98 279.167 1231.19 279.542 1230.44 279.875C1229.77 280.208 1228.98 280.375 1228.06 280.375C1224.81 277.958 1223.1 273.75 1222.94 267.75C1222.85 261.75 1224.15 254.125 1226.81 244.875C1227.23 244.625 1227.44 244.125 1227.44 243.375L1226.31 242.125C1225.98 242.125 1225.65 242.167 1225.31 242.25C1225.06 242.333 1224.85 242.625 1224.69 243.125C1222.52 244.708 1220.15 246.375 1217.56 248.125C1214.98 249.792 1212.27 251.375 1209.44 252.875C1206.69 254.292 1203.85 255.458 1200.94 256.375C1198.1 257.292 1195.31 257.75 1192.56 257.75C1185.56 257.75 1180.31 254.208 1176.81 247.125L1175.81 245.25L1174.81 246.875C1174.56 247.208 1174.19 247.917 1173.69 249C1173.19 250 1172.69 251.167 1172.19 252.5C1171.69 253.833 1171.23 255.208 1170.81 256.625C1170.48 257.958 1170.35 259.125 1170.44 260.125C1169.69 260.875 1168.9 261.75 1168.06 262.75C1167.23 263.75 1166.6 264.875 1166.19 266.125C1166.02 266.792 1166.1 267.417 1166.44 268C1166.27 268.75 1165.9 269.333 1165.31 269.75C1164.98 270.167 1164.6 270.583 1164.19 271C1163.85 271.333 1163.56 271.708 1163.31 272.125C1163.15 272.542 1163.02 272.958 1162.94 273.375C1162.94 273.792 1162.9 274.208 1162.81 274.625C1162.81 275.208 1162.73 275.75 1162.56 276.25C1161.15 279.167 1160.02 281.042 1159.19 281.875C1158.35 282.792 1157.23 283.25 1155.81 283.25C1155.15 283.25 1154.06 283.125 1152.56 282.875C1151.48 281.708 1150.48 280.125 1149.56 278.125C1148.73 276.042 1148.06 273.833 1147.56 271.5C1147.15 269.167 1146.94 266.833 1146.94 264.5C1147.02 262.083 1147.44 260 1148.19 258.25C1148.19 258.167 1148.52 257.333 1149.19 255.75C1149.85 254.167 1150.69 252.125 1151.69 249.625C1152.77 247.125 1153.98 244.375 1155.31 241.375C1156.65 238.292 1157.98 235.333 1159.31 232.5C1160.65 229.583 1161.9 226.917 1163.06 224.5C1164.31 222.083 1165.35 220.25 1166.19 219C1166.85 218 1167.44 217.083 1167.94 216.25C1168.52 215.333 1169.06 214.458 1169.56 213.625C1171.06 211.042 1172.48 208.917 1173.81 207.25C1175.23 205.5 1177.27 204.125 1179.94 203.125C1181.77 203.875 1183.1 204.75 1183.94 205.75L1184.19 207.125C1184.52 207.958 1185.02 208.375 1185.69 208.375C1186.6 208.625 1187.35 208.875 1187.94 209.125C1188.6 209.292 1189.31 209.458 1190.06 209.625C1190.65 210.292 1191.19 211.083 1191.69 212C1192.35 213 1192.98 214 1193.56 215C1194.23 215.917 1194.73 216.875 1195.06 217.875C1195.48 218.792 1195.69 219.75 1195.69 220.75C1195.77 221.75 1195.6 222.792 1195.19 223.875L1195.31 225.125C1195.73 225.875 1195.81 226.917 1195.56 228.25C1195.48 228.833 1195.44 229.458 1195.44 230.125C1195.44 230.708 1195.52 231.375 1195.69 232.125C1197.19 233.292 1198.52 233.875 1199.69 233.875C1201.02 233.875 1202.23 233.583 1203.31 233C1204.48 232.333 1205.56 231.667 1206.56 231C1207.23 230.5 1207.9 230.083 1208.56 229.75C1209.23 229.333 1209.9 229.083 1210.56 229C1212.06 227.583 1213.4 226.333 1214.56 225.25C1215.81 224.167 1217.1 223.083 1218.44 222C1220.94 220 1223.35 217.833 1225.69 215.5C1228.02 213.167 1229.9 210.25 1231.31 206.75C1232.15 206.25 1233.02 206 1233.94 206C1234.85 206 1235.81 206.208 1236.81 206.625C1237.81 207.042 1238.77 207.458 1239.69 207.875C1239.94 208.042 1240.15 208.167 1240.31 208.25C1240.56 208.333 1240.77 208.417 1240.94 208.5C1240.94 209.333 1241.27 210.042 1241.94 210.625C1242.27 210.875 1242.48 211.042 1242.56 211.125C1242.65 211.208 1242.77 211.292 1242.94 211.375C1244.19 212.042 1244.98 212.708 1245.31 213.375C1245.9 215.292 1246.94 216.75 1248.44 217.75C1248.27 218.583 1248.27 219.375 1248.44 220.125C1248.69 220.792 1248.98 221.5 1249.31 222.25C1249.4 222.5 1249.48 222.75 1249.56 223C1249.65 223.25 1249.77 223.542 1249.94 223.875L1247.56 223.625L1247.94 226C1248.1 227.167 1247.98 228.458 1247.56 229.875C1247.23 231.292 1246.81 232.417 1246.31 233.25C1246.4 235.417 1246.44 237.125 1246.44 238.375C1246.52 239.542 1246.48 240.667 1246.31 241.75C1246.15 242.75 1245.9 243.708 1245.56 244.625C1245.31 245.542 1244.94 246.542 1244.44 247.625C1244.77 252.958 1244.15 257.833 1242.56 262.25C1241.06 266.583 1239.48 270.667 1237.81 274.5C1237.65 274.917 1237.44 275.333 1237.19 275.75C1237.02 276.167 1236.85 276.583 1236.69 277C1235.94 277.25 1235.27 277.542 1234.69 277.875C1234.1 278.125 1233.48 278.417 1232.81 278.75Z" fill="#1FB2A6"/>
</svg>
